<?xml version="1.0" encoding="UTF-8" standalone="no"?>
<svg
   xmlns:dc="http://purl.org/dc/elements/1.1/"
   xmlns:cc="http://creativecommons.org/ns#"
   xmlns:rdf="http://www.w3.org/1999/02/22-rdf-syntax-ns#"
   xmlns:svg="http://www.w3.org/2000/svg"
   xmlns="http://www.w3.org/2000/svg"
   xmlns:sodipodi="http://sodipodi.sourceforge.net/DTD/sodipodi-0.dtd"
   xmlns:inkscape="http://www.inkscape.org/namespaces/inkscape"
   width="1200"
   height="1200"
   xml:space="preserve"
   overflow="hidden"
   version="1.1"
   id="svg34"
   sodipodi:docname="lab-logo.svg"
   style="overflow:hidden"
   inkscape:version="0.92.4 (5da689c313, 2019-01-14)"><metadata
     id="metadata40"><rdf:RDF><cc:Work
         rdf:about=""><dc:format>image/svg+xml</dc:format><dc:type
           rdf:resource="http://purl.org/dc/dcmitype/StillImage" /><dc:title></dc:title></cc:Work></rdf:RDF></metadata><defs
     id="defs38" /><sodipodi:namedview
     pagecolor="#ffffff"
     bordercolor="#666666"
     borderopacity="1"
     objecttolerance="10"
     gridtolerance="10"
     guidetolerance="10"
     inkscape:pageopacity="0"
     inkscape:pageshadow="2"
     inkscape:window-width="1920"
     inkscape:window-height="991"
     id="namedview36"
     showgrid="false"
     inkscape:zoom="0.38280616"
     inkscape:cx="194.24571"
     inkscape:cy="886.66986"
     inkscape:window-x="-9"
     inkscape:window-y="-9"
     inkscape:window-maximized="1"
     inkscape:current-layer="g862" /><g
     transform="translate(-737,-1220)"
     id="g32"><g
       id="g862"
       transform="translate(-249.5,16.5)"><rect
   style="fill:#ffffff"
   id="rect2"
   height="1233"
   width="1233"
   y="1187"
   x="970" /><path
   style="fill:#a6a6a6;fill-opacity:0.50196078;fill-rule:evenodd"
   inkscape:connector-curvature="0"
   id="path4"
   d="m 1559.82,1932.61 c 10.04,22.99 36.85,33.49 59.88,23.46 23.02,-10.04 33.54,-36.81 23.49,-59.8 -10.05,-23 -36.86,-33.5 -59.88,-23.47 -10.51,4.59 -18.9,12.97 -23.49,23.47 h -121.96 v 72.68 h -67.68 c -10.05,-23 -36.85,-33.5 -59.88,-23.47 -23.02,10.04 -33.54,36.81 -23.49,59.8 10.05,23 36.86,33.5 59.88,23.47 10.51,-4.58 18.9,-12.96 23.49,-23.47 h 67.67 l -0.13,94.16 c 9.73,3.49 12.04,-1.33 22.29,1.4 2.22,0.58 11.88,-0.65 14.1,-0.04 l 0.16,-168.19 z" /><path
   style="fill:#bfbfbf;fill-rule:evenodd"
   inkscape:connector-curvature="0"
   id="path6"
   d="m 1543.53,2140.04 c -5.31,0.04 -10.56,1.03 -15.53,2.91 l -49.87,-45.95 -40.13,4.35 63.65,66.19 c -9.93,23.07 0.74,49.82 23.83,59.75 23.09,9.92 49.87,-0.73 59.8,-23.8 9.94,-23.08 -0.73,-49.82 -23.82,-59.75 -5.66,-2.43 -11.76,-3.69 -17.93,-3.7 z" /><path
   style="fill:#bfbfbf;fill-rule:evenodd"
   inkscape:connector-curvature="0"
   id="path8"
   d="m 1647.73,1604.49 c 0,5.94 1.18,11.81 3.45,17.29 l -128.75,128.32 h -211.32 v -109.21 h 85.55 c 10.05,23.03 36.87,33.56 59.9,23.51 23.04,-10.06 33.56,-36.88 23.51,-59.91 -10.06,-23.03 -36.88,-33.55 -59.91,-23.5 -10.52,4.59 -18.91,12.98 -23.5,23.5 h -121.97 v 145.61 h -49.47 c -10.05,-23.03 -36.87,-33.56 -59.91,-23.5 -23.03,10.05 -33.55,36.87 -23.5,59.9 10.05,23.03 36.87,33.56 59.91,23.5 10.51,-4.59 18.91,-12.98 23.5,-23.5 h 311.61 l 62.04,-60.06 96.47,96.46 h 89.08 v 109.77 l -82.44,70.19 c -23.39,-10.97 -51.24,-0.89 -62.2,22.5 -10.97,23.4 -0.89,51.25 22.5,62.21 23.4,10.96 51.25,0.88 62.21,-22.51 5.04,-10.76 5.8,-23.04 2.12,-34.34 l 94.23,-80.99 V 1822.9 h 30.94 c 10.05,23.03 36.87,33.56 59.91,23.51 23.03,-10.06 33.55,-36.88 23.5,-59.91 -10.05,-23.03 -36.87,-33.55 -59.91,-23.5 -10.51,4.59 -18.91,12.98 -23.5,23.5 H 1709.7 l -85.54,-85.54 54.05,-53.68 c 23.68,8.23 49.55,-4.29 57.79,-27.97 8.23,-23.68 -4.29,-49.55 -27.97,-57.78 -23.68,-8.23 -49.55,4.29 -57.79,27.97 -1.67,4.82 -2.52,9.89 -2.51,14.99 z" /><g
   id="g16"><g
     id="g14"><g
       id="g12"><path
         style="fill:#3e4981;stroke:#3e4981;stroke-width:6.08334017"
         inkscape:connector-curvature="0"
         id="path10"
         transform="translate(989,1303)"
         d="M 39.9492,316.078 79.424,355.546 109.5,327.064 V 523.02 l 152.083,0.061 V 371.187 h 60.833 v 151.919 l 152.084,0.06 V 326.809 L 504.728,355.4 544.05,316.084 292,76.65 Z M 462.333,511 334.583,510.945 V 359.02 H 249.417 V 510.908 L 121.667,510.86 V 315.542 L 292,154.237 462.333,315.305 Z M 79.6551,338.574 57.384,316.333 292,93.4156 526.616,316.333 504.491,338.428 292,137.483 Z" /></g></g></g><g
   id="g24"><g
     id="g22"><g
       id="g20"><path
         style="fill:#007155;stroke:#007155;stroke-width:6.88000011"
         inkscape:connector-curvature="0"
         id="path18"
         d="m 1849,1747.33 c -134.57,0 -243.67,109.1 -243.67,243.67 0,134.57 109.1,243.67 243.67,243.67 134.57,0 243.67,-109.1 243.67,-243.67 -0.15,-134.51 -109.16,-243.52 -243.67,-243.67 z m 217.77,171.91 h -87.85 c -7.91,0 -14.33,-6.42 -14.33,-14.33 0,-7.92 6.42,-14.34 14.33,-14.34 h 76.21 c 4.52,9.29 8.41,18.86 11.64,28.67 z m -307.35,14.43 h 129 c 7.91,0 14.33,6.41 14.33,14.33 0,7.92 -6.42,14.33 -14.33,14.33 h -266.9 c 5.27,-41.99 22.12,-81.69 48.65,-114.66 h 141.18 c 7.92,0 14.34,6.41 14.34,14.33 0,7.92 -6.42,14.33 -14.34,14.33 h -51.93 c -15.84,0 -28.67,12.84 -28.67,28.67 0,15.83 12.83,28.67 28.67,28.67 z m -128.22,129 h 96.89 c 7.92,0 14.33,6.41 14.33,14.33 0,7.92 -6.41,14.33 -14.33,14.33 h -85.28 c -4.52,-9.28 -8.4,-18.85 -11.61,-28.66 z m 217.8,157.66 c -81.88,-0.06 -157.53,-43.76 -198.48,-114.66 h 77.57 c 15.83,0 28.67,-12.84 28.67,-28.67 0,-15.83 -12.84,-28.67 -28.67,-28.67 h -101.17 c -4.83,-18.73 -7.26,-37.99 -7.25,-57.33 0,-4.82 0.2,-9.6 0.49,-14.33 h 268.26 c 15.83,0 28.66,-12.84 28.66,-28.67 0,-15.83 -12.83,-28.67 -28.66,-28.67 h -129 c -7.92,0 -14.34,-6.41 -14.34,-14.33 0,-7.92 6.42,-14.33 14.34,-14.33 h 51.96 c 15.83,0 28.66,-12.84 28.66,-28.67 0,-15.83 -12.83,-28.67 -28.66,-28.67 h -128.65 c 86.89,-91.88 231.81,-95.94 323.7,-9.06 16.12,15.25 29.94,32.75 41.03,51.98 h -68.54 c -15.83,0 -28.66,12.83 -28.66,28.66 0,15.84 12.83,28.67 28.66,28.67 h 92.13 c 4.85,18.76 7.29,38.05 7.28,57.42 0,4.82 -0.2,9.58 -0.49,14.33 h -126.73 c -15.83,0 -28.67,12.84 -28.67,28.67 0,15.83 12.84,28.67 28.67,28.67 h 16.14 c 7.92,0 14.33,6.41 14.33,14.33 0,7.92 -6.41,14.33 -14.33,14.33 h -129 c -15.83,0 -28.67,12.84 -28.67,28.67 0,15.83 12.84,28.67 28.67,28.67 h 177.06 c -43.21,45.76 -103.37,71.68 -166.31,71.66 z m 118.25,-172 h -16.13 c -7.91,0 -14.33,-6.41 -14.33,-14.33 0,-7.92 6.42,-14.33 14.33,-14.33 h 125.36 c -5.27,41.99 -22.11,81.69 -48.64,114.66 h -189.59 c -7.92,0 -14.33,-6.41 -14.33,-14.33 0,-7.92 6.41,-14.33 14.33,-14.33 h 129 c 15.83,0 28.67,-12.84 28.67,-28.67 0,-15.83 -12.84,-28.67 -28.67,-28.67 z" /></g></g></g><text
   transform="translate(1010.07,1866)"
   style="font-weight:700;font-stretch:semi-expanded;font-size:454px;font-family:Magneto, Magneto_MSFontService, sans-serif"
   id="text26"
   font-size="454"
   font-stretch="semi-expanded"
   font-weight="700">SEE</text>

<path
   style="fill:#3e4981;fill-rule:evenodd"
   inkscape:connector-curvature="0"
   id="path28"
   d="m 1177.2,1813.78 6.7,20.17 v 0 l 25.46,46.15 10.42,13.74 22.37,27.59 14.66,14.27 24.76,21.72 17.57,12.73 27.91,17.37 19.56,10.35 31.66,13.33 20.35,7.44 37.39,9.33 18.48,4.05 59.04,5.49 -13.66,-58.83 126.65,82.64 -83.13,104.87 -13.65,-58.83 c -85.47,-1.53 -163.69,-28.57 -224.86,-73.87 -61.18,-45.31 -105.32,-108.87 -122.62,-183.44 l -8.36,-36.01 z" /><path
   style="fill:#007155;fill-rule:evenodd"
   inkscape:connector-curvature="0"
   id="path30"
   d="m 1465.37,1365.11 31.46,51.56 c 81.62,-25.41 164.37,-24.32 236.68,-0.54 72.32,23.77 134.19,70.24 174.06,135.6 l 37.35,61.21 v 0 0 0 l 0.77,1.45 0.84,1.22 8.33,15.93 6.58,12.3 0.44,1.13 0.33,0.62 4.1,10.54 7.84,19.74 c 10.82,32.53 16.05,66.39 16.02,100.48 l -0.9,17.26 -42.59,-20.97 5.33,-37.82 0.19,-6.85 -2.13,-54.22 -3.37,-19.68 -1.85,-10.21 -8.41,-30.1 v -0.01 l -10.3,-26 -15.07,-20.22 v 0 l -38.67,-35.81 -14.22,-9.77 -29.9,-19.16 -18.4,-8.95 -30.34,-12.82 -20.68,-6.57 -31.95,-7.71 -21.82,-3.69 -34.25,-2.7 -21.65,-0.66 -38.43,2.89 -18.82,1.96 -57.77,13.35 31.45,51.56 -146.2,-38.66 z" /></g></g></svg>