<?xml version="1.0" encoding="UTF-8" standalone="no"?>
<svg
   xmlns:dc="http://purl.org/dc/elements/1.1/"
   xmlns:cc="http://creativecommons.org/ns#"
   xmlns:rdf="http://www.w3.org/1999/02/22-rdf-syntax-ns#"
   xmlns:svg="http://www.w3.org/2000/svg"
   xmlns="http://www.w3.org/2000/svg"
   xmlns:sodipodi="http://sodipodi.sourceforge.net/DTD/sodipodi-0.dtd"
   xmlns:inkscape="http://www.inkscape.org/namespaces/inkscape"
   width="1100"
   height="1100"
   xml:space="preserve"
   overflow="hidden"
   version="1.1"
   id="svg37"
   sodipodi:docname="SEE-Logo-Graphic.svg"
   style="overflow:hidden"
   inkscape:version="0.92.4 (5da689c313, 2019-01-14)"><metadata
     id="metadata41"><rdf:RDF><cc:Work
         rdf:about=""><dc:format>image/svg+xml</dc:format><dc:type
           rdf:resource="http://purl.org/dc/dcmitype/StillImage" /><dc:title></dc:title></cc:Work></rdf:RDF></metadata><sodipodi:namedview
     pagecolor="#ffffff"
     bordercolor="#666666"
     borderopacity="1"
     objecttolerance="10"
     gridtolerance="10"
     guidetolerance="10"
     inkscape:pageopacity="0"
     inkscape:pageshadow="2"
     inkscape:window-width="1920"
     inkscape:window-height="991"
     id="namedview39"
     showgrid="false"
     fit-margin-top="0"
     fit-margin-left="0"
     fit-margin-right="0"
     fit-margin-bottom="0"
     inkscape:zoom="0.38311688"
     inkscape:cx="414.34723"
     inkscape:cy="657.44806"
     inkscape:window-x="-9"
     inkscape:window-y="-9"
     inkscape:window-maximized="1"
     inkscape:current-layer="g35" /><defs
     id="defs5"><clipPath
       id="clip0"><rect
         x="571"
         y="27"
         width="1232"
         height="1232"
         id="rect2" /></clipPath></defs><g
     clip-path="url(#clip0)"
     transform="translate(-624.59128,22.890251)"
     id="g35"><g
       id="g861"
       transform="translate(14.171641,-113.59763)"><path
         style="fill:#a6a6a6;fill-opacity:0.50196078;fill-rule:evenodd"
         inkscape:connector-curvature="0"
         id="path9"
         d="m 1160.82,771.606 c 10.05,22.992 36.85,33.498 59.88,23.463 23.02,-10.035 33.54,-36.811 23.49,-59.803 -10.05,-22.992 -36.86,-33.498 -59.88,-23.462 -10.51,4.582 -18.9,12.962 -23.49,23.462 h -121.96 v 72.679 h -67.677 c -10.048,-22.992 -36.856,-33.498 -59.881,-23.462 -23.022,10.035 -33.542,36.81 -23.493,59.802 10.048,22.992 36.858,33.498 59.881,23.463 10.514,-4.583 18.905,-12.963 23.493,-23.463 h 67.667 l -0.13,94.156 c 9.73,3.489 12.04,-1.326 22.29,1.4 2.22,0.581 11.88,-0.655 14.1,-0.037 l 0.16,-168.198 z" /><path
         style="fill:#bfbfbf;fill-rule:evenodd"
         inkscape:connector-curvature="0"
         id="path11"
         d="m 1144.53,979.038 c -5.31,0.045 -10.56,1.031 -15.53,2.91 L 1079.13,936 l -40.13,4.349 63.65,66.191 c -9.93,23.07 0.74,49.82 23.83,59.75 23.09,9.92 49.87,-0.73 59.8,-23.8 9.94,-23.08 -0.73,-49.823 -23.82,-59.75 -5.66,-2.434 -11.76,-3.693 -17.93,-3.702 z" /><path
         style="fill:#bfbfbf;fill-rule:evenodd"
         inkscape:connector-curvature="0"
         id="path13"
         d="m 1247.73,443.491 c 0,5.935 1.18,11.81 3.45,17.291 L 1122.43,589.099 H 911.111 V 479.893 h 85.547 c 10.052,23.031 36.872,33.555 59.902,23.503 23.04,-10.053 33.56,-36.874 23.51,-59.905 -10.06,-23.032 -36.88,-33.556 -59.91,-23.503 -10.52,4.59 -18.91,12.984 -23.502,23.503 H 874.691 V 589.099 H 825.22 c -10.053,-23.032 -36.872,-33.556 -59.906,-23.503 -23.032,10.052 -33.556,36.873 -23.504,59.905 10.053,23.031 36.874,33.555 59.906,23.503 10.519,-4.59 18.913,-12.985 23.504,-23.503 h 311.61 l 62.04,-60.063 96.47,96.465 h 89.08 v 109.77 l -82.44,70.183 c -23.39,-10.963 -51.24,-0.886 -62.2,22.507 -10.97,23.392 -0.89,51.243 22.5,62.206 23.4,10.962 51.25,0.884 62.21,-22.508 5.04,-10.762 5.8,-23.038 2.12,-34.34 l 94.23,-80.994 V 661.903 h 30.94 c 10.05,23.031 36.87,33.555 59.91,23.503 23.03,-10.053 33.55,-36.874 23.5,-59.905 -10.05,-23.032 -36.87,-33.556 -59.91,-23.503 -10.51,4.59 -18.91,12.984 -23.5,23.503 H 1309.7 l -85.54,-85.545 54.05,-53.674 c 23.68,8.232 49.55,-4.291 57.79,-27.97 8.23,-23.679 -4.29,-49.551 -27.97,-57.783 -23.68,-8.232 -49.55,4.29 -57.79,27.97 -1.67,4.821 -2.52,9.888 -2.51,14.992 z" /><g
         id="g21"><g
           id="g19"><g
             id="g17"><path
               style="fill:#3e4981;stroke:#3e4981;stroke-width:6.08334017"
               inkscape:connector-curvature="0"
               id="path15"
               d="m 628.949,458.078 39.475,39.468 30.076,-28.482 v 195.957 l 152.083,0.061 V 513.187 h 60.834 v 151.919 l 152.083,0.061 V 468.809 l 30.23,28.591 39.32,-39.316 L 881,218.65 Z M 1051.33,653 923.583,652.945 V 501.02 H 838.417 V 652.909 L 710.667,652.86 V 457.542 L 881,296.237 1051.33,457.305 Z M 668.655,480.574 646.384,458.333 881,235.416 1115.62,458.333 1093.49,480.428 881,279.483 Z" /></g></g></g><g
         id="g29"><g
           id="g27"><g
             id="g25"><path
               style="fill:#007155;stroke:#007155;stroke-width:6.86999989"
               inkscape:connector-curvature="0"
               id="path23"
               transform="matrix(1,0,0,1.00146,1106,486)"
               d="m 343.5,100.188 c -134.378,0 -243.312,108.934 -243.312,243.312 0,134.378 108.934,243.313 243.312,243.313 134.378,0 243.313,-108.935 243.313,-243.313 C 586.663,209.184 477.816,100.337 343.5,100.188 Z m 217.457,171.657 h -87.721 c -7.905,0 -14.313,-6.408 -14.313,-14.313 0,-7.905 6.408,-14.312 14.313,-14.312 h 76.092 c 4.517,9.268 8.402,18.831 11.629,28.625 z m -306.91,14.405 h 128.812 c 7.905,0 14.313,6.408 14.313,14.313 0,7.904 -6.408,14.312 -14.313,14.312 H 116.354 c 5.263,-41.932 22.082,-81.575 48.576,-114.5 h 140.978 c 7.905,0 14.313,6.408 14.313,14.313 0,7.904 -6.408,14.312 -14.313,14.312 h -51.861 c -15.809,0 -28.625,12.816 -28.625,28.625 0,15.809 12.816,28.625 28.625,28.625 z M 126.014,415.063 h 96.753 c 7.905,0 14.312,6.407 14.312,14.312 0,7.905 -6.407,14.313 -14.312,14.313 h -85.159 c -4.512,-9.267 -8.385,-18.831 -11.594,-28.625 z M 343.5,572.5 C 261.736,572.441 186.201,528.804 145.308,458 h 77.459 c 15.809,0 28.625,-12.816 28.625,-28.625 0,-15.809 -12.816,-28.625 -28.625,-28.625 H 121.742 c -4.82,-18.701 -7.253,-37.937 -7.242,-57.25 0,-4.816 0.2,-9.582 0.494,-14.312 h 267.865 c 15.809,0 28.625,-12.817 28.625,-28.625 0,-15.809 -12.816,-28.625 -28.625,-28.625 H 254.047 c -7.905,0 -14.313,-6.408 -14.313,-14.313 0,-7.905 6.408,-14.312 14.313,-14.312 h 51.883 c 15.809,0 28.625,-12.817 28.625,-28.625 0,-15.809 -12.816,-28.625 -28.625,-28.625 H 177.475 c 86.757,-91.755 231.468,-95.8069 323.222,-9.05 16.101,15.223 29.903,32.707 40.974,51.901 h -68.435 c -15.809,0 -28.625,12.816 -28.625,28.625 0,15.809 12.816,28.625 28.625,28.625 h 91.993 c 4.839,18.727 7.283,37.993 7.271,57.336 0,4.809 -0.2,9.568 -0.494,14.313 H 445.462 c -15.809,0 -28.625,12.816 -28.625,28.625 0,15.808 12.816,28.625 28.625,28.625 h 16.116 c 7.905,0 14.313,6.407 14.313,14.312 0,7.905 -6.408,14.313 -14.313,14.313 H 332.766 c -15.809,0 -28.625,12.816 -28.625,28.625 0,15.808 12.816,28.625 28.625,28.625 H 509.568 C 466.419,546.63 406.346,572.517 343.5,572.5 Z M 461.578,400.75 h -16.101 c -7.905,0 -14.313,-6.408 -14.313,-14.312 0,-7.905 6.408,-14.313 14.313,-14.313 h 125.17 c -5.261,41.931 -22.077,81.575 -48.57,114.5 H 332.766 c -7.905,0 -14.313,-6.408 -14.313,-14.312 0,-7.905 6.408,-14.313 14.313,-14.313 h 128.812 c 15.809,0 28.625,-12.816 28.625,-28.625 0,-15.809 -12.816,-28.625 -28.625,-28.625 z" /></g></g></g><path
         style="fill:#3e4981;fill-rule:evenodd"
         inkscape:connector-curvature="0"
         id="path31"
         d="m 777.949,652.976 6.7,20.165 v 0.001 l 25.458,46.147 10.422,13.748 22.363,27.587 14.66,14.274 24.766,21.711 17.572,12.737 27.909,17.364 19.555,10.353 31.658,13.335 20.35,7.433 37.398,9.328 18.48,4.054 59.03,5.489 -13.65,-58.832 126.65,82.648 -83.13,104.872 -13.66,-58.835 C 1045.01,945.022 966.797,917.98 905.621,872.679 844.445,827.377 800.31,763.816 783.003,689.243 l -8.357,-36.009 z" /><path
         style="fill:#007155;fill-rule:evenodd"
         inkscape:connector-curvature="0"
         id="path33"
         d="m 1066.12,204.305 31.45,51.558 c 81.62,-25.407 164.37,-24.32 236.69,-0.543 72.31,23.778 134.19,70.246 174.06,135.6 l 37.34,61.218 v 0 0 0 l 0.78,1.444 0.83,1.216 8.34,15.937 6.57,12.298 0.45,1.129 0.33,0.622 4.1,10.541 7.83,19.743 c 10.83,32.523 16.06,66.386 16.03,100.474 l -0.9,17.26 -42.59,-20.964 5.32,-37.824 0.19,-6.852 -2.12,-54.223 -3.37,-19.676 -1.85,-10.207 -8.41,-30.108 -0.01,-0.003 -10.29,-25.999 -15.07,-20.223 v 0 l -38.68,-35.808 -14.21,-9.776 -29.9,-19.159 -18.41,-8.943 -30.33,-12.826 -20.68,-6.569 -31.96,-7.712 -21.82,-3.683 -34.24,-2.708 -21.65,-0.66 -38.44,2.899 -18.82,1.959 -57.76,13.344 31.45,51.559 -146.21,-38.653 z" /></g></g></svg>