<svg width="305" height="206" xmlns="http://www.w3.org/2000/svg" xmlns:xlink="http://www.w3.org/1999/xlink" xml:space="preserve" overflow="hidden"><defs><clipPath id="clip0"><rect x="64" y="144" width="305" height="206"/></clipPath></defs><g clip-path="url(#clip0)" transform="translate(-64 -144)"><path d="M196.88 110.603 247.488 110.603 247.488 135.906 196.88 135.906Z" stroke="#00007F" stroke-width="0.575082" fill="#FFFFFF" transform="matrix(1.00198 0 0 1 64.2072 144)"/><path d="M-124.117 196.88-122.392 196.88-122.392 247.488-124.117 247.488Z" transform="matrix(6.13537e-17 -1 1.00198 6.12323e-17 64.2072 144)"/><path d="M-123.921-207.577-110.695-207.577-110.695-206.427-123.921-206.427Z" transform="matrix(0 -1 -1.00198 0 64.2072 144)"/><path d="M-121.633-237.941-110.706-237.941-110.706-236.791-121.633-236.791Z" transform="matrix(0 -1 -1.00198 0 64.2072 144)"/><path d="M-131.708 196.88-129.983 196.88-129.983 247.488-131.708 247.488Z" transform="matrix(6.13537e-17 -1 1.00198 6.12323e-17 64.2072 144)"/><path d="M-131.639-237.941-124.738-237.941-124.738-236.791-131.639-236.791Z" transform="matrix(0 -1 -1.00198 0 64.2072 144)"/><path d="M133.621 59.9954 158.925 59.9954 158.925 85.299 133.621 85.299Z" stroke="#00007F" stroke-width="0.575082" fill="#FFFFFF" transform="matrix(1.00198 0 0 1 64.2072 144)"/><path d="M272.244 89.5977 274.774 89.5977 274.774 97.1888 277.304 97.1888 277.304 94.6584 282.365 97.1888 282.365 94.6584 287.426 97.1888 287.426 94.6584 292.487 97.1888 292.487 104.78 272.244 104.78Z" stroke="#5F5F5F" stroke-width="0.575082" fill="#1C6CC8" transform="matrix(1.00198 0 0 1 -72.1544 119.459)"/><path d="M141.868 75.8331 143.593 75.8331 143.593 77.5584 141.868 77.5584Z" stroke="#FFFFFF" stroke-width="0.575082" fill="#FFFFFF" transform="matrix(1.00198 0 0 1 64.2072 144)"/><path d="M143.892 75.8331 145.618 75.8331 145.618 77.5584 143.892 77.5584Z" stroke="#FFFFFF" stroke-width="0.575082" fill="#FFFFFF" transform="matrix(1.00198 0 0 1 64.2072 144)"/><path d="M141.868 77.8574 143.593 77.8574 143.593 79.5827 141.868 79.5827Z" stroke="#FFFFFF" stroke-width="0.575082" fill="#FFFFFF" transform="matrix(1.00198 0 0 1 64.2072 144)"/><path d="M143.892 77.8574 145.618 77.8574 145.618 79.5827 143.892 79.5827Z" stroke="#FFFFFF" stroke-width="0.575082" fill="#FFFFFF" transform="matrix(1.00198 0 0 1 64.2072 144)"/><path d="M146.929 75.8331 148.654 75.8331 148.654 77.5584 146.929 77.5584Z" stroke="#FFFFFF" stroke-width="0.575082" fill="#FFFFFF" transform="matrix(1.00198 0 0 1 64.2072 144)"/><path d="M148.953 75.8331 150.678 75.8331 150.678 77.5584 148.953 77.5584Z" stroke="#FFFFFF" stroke-width="0.575082" fill="#FFFFFF" transform="matrix(1.00198 0 0 1 64.2072 144)"/><path d="M148.953 77.8574 150.678 77.8574 150.678 79.5827 148.953 79.5827Z" stroke="#FFFFFF" stroke-width="0.575082" fill="#FFFFFF" transform="matrix(1.00198 0 0 1 64.2072 144)"/><path d="M146.929 77.8574 148.654 77.8574 148.654 79.5827 146.929 79.5827Z" stroke="#FFFFFF" stroke-width="0.575082" fill="#FFFFFF" transform="matrix(1.00198 0 0 1 64.2072 144)"/><path d="M151.989 75.8331 153.715 75.8331 153.715 77.5584 151.989 77.5584Z" stroke="#FFFFFF" stroke-width="0.575082" fill="#FFFFFF" transform="matrix(1.00198 0 0 1 64.2072 144)"/><path d="M151.989 77.8574 153.715 77.8574 153.715 79.5827 151.989 79.5827Z" stroke="#FFFFFF" stroke-width="0.575082" fill="#FFFFFF" transform="matrix(1.00198 0 0 1 64.2072 144)"/><path d="M154.014 77.8574 155.739 77.8574 155.739 79.5827 154.014 79.5827Z" stroke="#FFFFFF" stroke-width="0.575082" fill="#FFFFFF" transform="matrix(1.00198 0 0 1 64.2072 144)"/><path d="M154.014 75.8331 155.739 75.8331 155.739 77.5584 154.014 77.5584Z" stroke="#FFFFFF" stroke-width="0.575082" fill="#FFFFFF" transform="matrix(1.00198 0 0 1 64.2072 144)"/><path d="M19.7551-34.692 45.0587-34.692 45.0587-9.38838 19.7551-9.38838Z" stroke="#7C8EFF" stroke-width="0.575082" fill="#7C8EFF" transform="matrix(1.00198 0 0 -1 64.2072 144)"/><path d="M34.1781 17.8018C34.1781 20.8413 31.7141 23.3054 28.6746 23.3054 25.6351 23.3054 23.1711 20.8413 23.1711 17.8018 23.1711 14.7623 25.6351 12.2983 28.6746 12.2983 31.7141 12.2983 34.1781 14.7623 34.1781 17.8018Z" fill="#FFDCDC" transform="matrix(1.00198 0 0 1 64.2072 144)"/><path d="M34.1269 17.8018C34.1269 20.813 31.6858 23.2541 28.6746 23.2541 25.6634 23.2541 23.2223 20.813 23.2223 17.8018 23.2223 14.7906 25.6634 12.3496 28.6746 12.3496 31.6858 12.3496 34.1269 14.7906 34.1269 17.8018Z" fill="#FFE0BC" transform="matrix(1.00198 0 0 1 64.2072 144)"/><path d="M33.9741 17.8018C33.9741 20.7286 31.6014 23.1013 28.6746 23.1013 25.7478 23.1013 23.3752 20.7286 23.3752 17.8018 23.3752 14.875 25.7478 12.5024 28.6746 12.5024 31.6014 12.5024 33.9741 14.875 33.9741 17.8018Z" fill="#FFE59E" transform="matrix(1.00198 0 0 1 64.2072 144)"/><path d="M33.7225 17.8018C33.7225 20.5897 31.4625 22.8497 28.6746 22.8497 25.8867 22.8497 23.6267 20.5897 23.6267 17.8018 23.6267 15.0139 25.8867 12.7539 28.6746 12.7539 31.4625 12.7539 33.7225 15.0139 33.7225 17.8018Z" fill="#FFEA80" transform="matrix(1.00198 0 0 1 64.2072 144)"/><path d="M33.3769 17.8018C33.3769 20.3988 31.2716 22.5041 28.6746 22.5041 26.0776 22.5041 23.9723 20.3988 23.9723 17.8018 23.9723 15.2048 26.0776 13.0995 28.6746 13.0995 31.2716 13.0995 33.3769 15.2048 33.3769 17.8018Z" fill="#FFEE65" transform="matrix(1.00198 0 0 1 64.2072 144)"/><path d="M32.9438 17.8018C32.9438 20.1596 31.0324 22.071 28.6746 22.071 26.3168 22.071 24.4055 20.1596 24.4055 17.8018 24.4055 15.444 26.3168 13.5327 28.6746 13.5327 31.0324 13.5327 32.9438 15.444 32.9438 17.8018Z" fill="#FFF24B" transform="matrix(1.00198 0 0 1 64.2072 144)"/><path d="M32.4311 17.8018C32.4311 19.8765 30.7492 21.5583 28.6746 21.5583 26.6 21.5583 24.9182 19.8765 24.9182 17.8018 24.9182 15.7272 26.6 14.0454 28.6746 14.0454 30.7492 14.0454 32.4311 15.7272 32.4311 17.8018Z" fill="#FFF635" transform="matrix(1.00198 0 0 1 64.2072 144)"/><path d="M31.8484 17.8018C31.8484 19.5547 30.4274 20.9756 28.6746 20.9756 26.9218 20.9756 25.5008 19.5547 25.5008 17.8018 25.5008 16.049 26.9218 14.628 28.6746 14.628 30.4274 14.628 31.8484 16.049 31.8484 17.8018Z" fill="#FFF922" transform="matrix(1.00198 0 0 1 64.2072 144)"/><path d="M31.2066 17.8018C31.2066 19.2002 30.073 20.3338 28.6746 20.3338 27.2762 20.3338 26.1426 19.2002 26.1426 17.8018 26.1426 16.4035 27.2762 15.2698 28.6746 15.2698 30.073 15.2698 31.2066 16.4035 31.2066 17.8018Z" fill="#FFFB13" transform="matrix(1.00198 0 0 1 64.2072 144)"/><path d="M30.5176 17.8018C30.5176 18.8197 29.6925 19.6448 28.6746 19.6448 27.6567 19.6448 26.8316 18.8197 26.8316 17.8018 26.8316 16.784 27.6567 15.9588 28.6746 15.9588 29.6925 15.9588 30.5176 16.784 30.5176 17.8018Z" fill="#FFFD08" transform="matrix(1.00198 0 0 1 64.2072 144)"/><path d="M29.7943 17.8018C29.7943 18.4202 29.293 18.9215 28.6746 18.9215 28.0562 18.9215 27.5549 18.4202 27.5549 17.8018 27.5549 17.1834 28.0562 16.6821 28.6746 16.6821 29.293 16.6821 29.7943 17.1834 29.7943 17.8018Z" fill="#FFFE02" transform="matrix(1.00198 0 0 1 64.2072 144)"/><path d="M29.0502 17.8018C29.0502 18.0092 28.882 18.1774 28.6746 18.1774 28.4672 18.1774 28.299 18.0092 28.299 17.8018 28.299 17.5944 28.4672 17.4263 28.6746 17.4263 28.882 17.4263 29.0502 17.5944 29.0502 17.8018Z" fill="#FFFF00" transform="matrix(1.00198 0 0 1 64.2072 144)"/><path d="M173.756 42.5881 173.68 42.8886 173.614 43.1499 173.558 43.372 173.513 43.5548 173.477 43.6983 173.452 43.8026 173.437 43.8677 173.432 43.8936 173.432 43.8936 173.432 43.8936 173.442 43.8963 173.473 43.8921 173.524 43.881 173.595 43.8629 173.686 43.8379 173.797 43.8059 173.929 43.7669 174.081 43.721 174.253 43.6682 174.445 43.6084 174.445 43.6084 174.445 43.6084 174.647 43.549 174.845 43.4971 175.041 43.4528 175.235 43.4161 175.426 43.387 175.614 43.3655 175.8 43.3516 175.984 43.3453 176.165 43.3465 176.343 43.3554 176.343 43.3554 176.343 43.3554 176.52 43.3712 176.695 43.3934 176.869 43.4218 177.041 43.4566 177.213 43.4977 177.383 43.5452 177.552 43.599 177.72 43.659 177.886 43.7255 178.051 43.7982 178.051 43.7982 178.051 43.7982 178.213 43.8912 178.37 44.0184 178.521 44.1797 178.669 44.3751 178.81 44.6048 178.947 44.8686 179.078 45.1665 179.205 45.4986 179.327 45.8649 179.443 46.2653 179.443 46.2653 179.443 46.2653 179.537 46.6854 179.592 47.1105 179.608 47.5406 179.584 47.9758 179.522 48.4161 179.42 48.8615 179.279 49.3119 179.099 49.7673 178.879 50.2279 178.62 50.6934 178.62 50.6934 178.62 50.6934 178.316 51.1407 177.957 51.5462 177.546 51.9099 177.082 52.2319 176.564 52.5121 175.994 52.7506 175.37 52.9474 174.693 53.1023 173.963 53.2156 173.18 53.2871 173.18 53.2871 173.18 53.2871 172.363 53.3339 171.533 53.3731 170.688 53.4047 169.83 53.4288 168.957 53.4452 168.071 53.4541 167.171 53.4553 166.257 53.449 165.329 53.4351 164.387 53.4136 164.387 53.4136 164.387 53.4136 163.477 53.3655 162.646 53.2719 161.894 53.1327 161.219 52.948 160.623 52.7177 160.106 52.4419 159.667 52.1206 159.306 51.7537 159.024 51.3412 158.82 50.8832 158.82 50.8832 158.82 50.8832 158.669 50.4094 158.544 49.9495 158.446 49.5035 158.375 49.0715 158.33 48.6533 158.312 48.2491 158.32 47.8588 158.354 47.4824 158.416 47.1199 158.504 46.7714 158.504 46.7714 158.504 46.7714 158.616 46.4462 158.747 46.154 158.899 45.8946 159.071 45.6682 159.263 45.4746 159.476 45.3139 159.708 45.1861 159.961 45.0912 160.235 45.0292 160.528 45.0001 160.528 45.0001 160.528 45.0001 160.824 44.9938 161.105 44.9999 161.37 45.0187 161.62 45.0499 161.855 45.0938 162.075 45.1502 162.279 45.2191 162.467 45.3006 162.641 45.3946 162.799 45.5012 162.799 45.5012 162.799 45.5012 162.942 45.6085 163.07 45.7046 163.183 45.7894 163.282 45.8632 163.365 45.9257 163.434 45.977 163.487 46.0172 163.526 46.0462 163.549 46.0639 163.558 46.0705 163.558 46.0705 163.558 46.0705 163.555 46.0518 163.543 45.9939 163.522 45.8966 163.492 45.76 163.453 45.584 163.404 45.3688 163.347 45.1142 163.281 44.8203 163.206 44.4871 163.122 44.1145 163.122 44.1145 163.122 44.1145 163.048 43.7261 163.006 43.3453 162.993 42.9721 163.01 42.6064 163.059 42.2484 163.137 41.8979 163.246 41.5551 163.385 41.2198 163.554 40.8921 163.755 40.572 163.755 40.572 163.755 40.572 163.988 40.2652 164.258 39.9774 164.565 39.7085 164.908 39.4587 165.289 39.2278 165.705 39.0158 166.159 38.8229 166.649 38.6489 167.176 38.494 167.74 38.3579 167.74 38.3579 167.74 38.3579 168.311 38.2485 168.864 38.1732 169.395 38.1321 169.906 38.1252 170.397 38.1524 170.867 38.2137 171.318 38.3092 171.748 38.4389 172.158 38.6028 172.548 38.8008 172.548 38.8008 172.548 38.8008 172.903 39.025 173.211 39.2676 173.47 39.5286 173.681 39.8079 173.844 40.1056 173.959 40.4216 174.026 40.756 174.045 41.1088 174.016 41.4798 173.938 41.8693 173.842 42.2483Z" stroke="#DCDCDC" stroke-width="0.575082" fill="#E6E6E6" transform="matrix(1.00198 0 0 1 -72.1544 119.459)"/><path d="M406.353 109.841 406.353 106.045 401.292 107.943Z" stroke="#0080FF" stroke-width="0.575082" fill="#0080FF" transform="matrix(1.00198 0 0 1 -72.1544 119.459)"/><path d="M401.925 107.943 416.474 107.943" stroke="#0080FF" stroke-width="0.575082" fill="none" transform="matrix(1.00198 0 0 1 -72.1544 119.459)"/><path d="M-285.443 59.9954-260.139 59.9954-260.139 85.299-285.443 85.299Z" stroke="#00007F" stroke-width="0.575082" fill="#FFFFFF" transform="matrix(-1.00198 0 0 1 64.2072 144)"/><path d="M398.762 92.3811 408.883 87.0674 418.751 92.3811Z" stroke="#5F5F5F" stroke-width="0.575082" fill="#5F5F5F" transform="matrix(1.00198 0 0 1 -72.1544 119.459)"/><path d="M-280.842-81.5725-264.74-81.5725-264.74-67.7705-280.842-67.7705Z" fill="#969696" transform="matrix(-1.00198 0 0 -1 64.2072 144)"/><path d="M-280.842-81.5725-264.74-81.5725-264.74-67.7705-280.842-67.7705Z" fill="#8787A0" transform="matrix(-1.00198 0 0 -1 64.2072 144)"/><path d="M-280.842-81.2849-264.74-81.2849-264.74-68.058-280.842-68.058Z" fill="#7878AA" transform="matrix(-1.00198 0 0 -1 64.2072 144)"/><path d="M-280.555-81.2849-265.028-81.2849-265.028-68.058-280.555-68.058Z" fill="#6A6AB4" transform="matrix(-1.00198 0 0 -1 64.2072 144)"/><path d="M-280.267-80.9974-265.315-80.9974-265.315-68.3456-280.267-68.3456Z" fill="#5C5CBE" transform="matrix(-1.00198 0 0 -1 64.2072 144)"/><path d="M-279.98-80.7098-265.603-80.7098-265.603-68.6331-279.98-68.6331Z" fill="#4F4FC7" transform="matrix(-1.00198 0 0 -1 64.2072 144)"/><path d="M-279.692-80.4223-265.89-80.4223-265.89-68.9207-279.692-68.9207Z" fill="#4242D0" transform="matrix(-1.00198 0 0 -1 64.2072 144)"/><path d="M-279.117-80.1348-266.465-80.1348-266.465-69.2082-279.117-69.2082Z" fill="#3636D8" transform="matrix(-1.00198 0 0 -1 64.2072 144)"/><path d="M-278.542-79.5597-267.04-79.5597-267.04-69.7833-278.542-69.7833Z" fill="#2B2BE0" transform="matrix(-1.00198 0 0 -1 64.2072 144)"/><path d="M-277.967-79.2721-267.615-79.2721-267.615-70.0708-277.967-70.0708Z" fill="#2222E7" transform="matrix(-1.00198 0 0 -1 64.2072 144)"/><path d="M-277.392-78.6971-268.19-78.6971-268.19-70.6459-277.392-70.6459Z" fill="#1919ED" transform="matrix(-1.00198 0 0 -1 64.2072 144)"/><path d="M-276.817-78.122-268.766-78.122-268.766-71.221-276.817-71.221Z" fill="#1111F2" transform="matrix(-1.00198 0 0 -1 64.2072 144)"/><path d="M-276.242-77.5469-269.341-77.5469-269.341-71.7961-276.242-71.7961Z" fill="#0B0BF7" transform="matrix(-1.00198 0 0 -1 64.2072 144)"/><path d="M-275.379-76.9718-270.203-76.9718-270.203-72.3711-275.379-72.3711Z" fill="#0606FA" transform="matrix(-1.00198 0 0 -1 64.2072 144)"/><path d="M-274.804-76.3967-270.778-76.3967-270.778-72.9462-274.804-72.9462Z" fill="#0202FC" transform="matrix(-1.00198 0 0 -1 64.2072 144)"/><path d="M-273.941-75.5341-271.641-75.5341-271.641-73.8089-273.941-73.8089Z" fill="#0000FE" transform="matrix(-1.00198 0 0 -1 64.2072 144)"/><path d="M-273.079-74.959-272.504-74.959-272.504-74.3839-273.079-74.3839Z" fill="#0000FF" transform="matrix(-1.00198 0 0 -1 64.2072 144)"/><path d="M-278.059 69.6568-274.608 69.6568-274.608 73.1073-278.059 73.1073Z" stroke="#FFFFFF" stroke-width="0.575082" fill="#FFFFFF" transform="matrix(-1.00198 0 0 1 64.2072 144)"/><path d="M-270.721 69.6568-267.27 69.6568-267.27 73.1073-270.721 73.1073Z" stroke="#FFFFFF" stroke-width="0.575082" fill="#FFFFFF" transform="matrix(-1.00198 0 0 1 64.2072 144)"/><path d="M-270.721 75.9827-267.27 75.9827-267.27 79.4332-270.721 79.4332Z" stroke="#FFFFFF" stroke-width="0.575082" fill="#FFFFFF" transform="matrix(-1.00198 0 0 1 64.2072 144)"/><path d="M-278.059 75.9827-274.608 75.9827-274.608 79.4332-278.059 79.4332Z" stroke="#FFFFFF" stroke-width="0.575082" fill="#FFFFFF" transform="matrix(-1.00198 0 0 1 64.2072 144)"/><text fill="#0000FF" font-family="Arial,Arial_MSFontService,sans-serif" font-weight="400" font-size="10" transform="matrix(0.576222 0 0 0.575082 331.362 234)">bui</text><text fill="#0000FF" font-family="Arial,Arial_MSFontService,sans-serif" font-weight="400" font-size="10" transform="matrix(0.576222 0 0 0.575082 340.005 234)">[]</text><path d="M406.353 109.841 406.353 106.045 401.292 107.943Z" stroke="#0080FF" stroke-width="0.575082" fill="#0080FF" transform="matrix(1.00198 0 0 1 -72.1544 119.459)"/><path d="M401.925 107.943 416.474 107.943" stroke="#0080FF" stroke-width="0.575082" fill="none" transform="matrix(1.00198 0 0 1 -72.1544 119.459)"/><path d="M-285.443 59.9954-260.139 59.9954-260.139 85.299-285.443 85.299Z" stroke="#00007F" stroke-width="0.575082" fill="#FFFFFF" transform="matrix(-1.00198 0 0 1 64.2072 144)"/><path d="M398.762 92.3811 408.883 87.0674 418.751 92.3811Z" stroke="#5F5F5F" stroke-width="0.575082" fill="#5F5F5F" transform="matrix(1.00198 0 0 1 -72.1544 119.459)"/><path d="M-280.842-81.5725-264.74-81.5725-264.74-67.7705-280.842-67.7705Z" fill="#969696" transform="matrix(-1.00198 0 0 -1 64.2072 144)"/><path d="M-280.842-81.5725-264.74-81.5725-264.74-67.7705-280.842-67.7705Z" fill="#8787A0" transform="matrix(-1.00198 0 0 -1 64.2072 144)"/><path d="M-280.842-81.2849-264.74-81.2849-264.74-68.058-280.842-68.058Z" fill="#7878AA" transform="matrix(-1.00198 0 0 -1 64.2072 144)"/><path d="M-280.555-81.2849-265.028-81.2849-265.028-68.058-280.555-68.058Z" fill="#6A6AB4" transform="matrix(-1.00198 0 0 -1 64.2072 144)"/><path d="M-280.267-80.9974-265.315-80.9974-265.315-68.3456-280.267-68.3456Z" fill="#5C5CBE" transform="matrix(-1.00198 0 0 -1 64.2072 144)"/><path d="M-279.98-80.7098-265.603-80.7098-265.603-68.6331-279.98-68.6331Z" fill="#4F4FC7" transform="matrix(-1.00198 0 0 -1 64.2072 144)"/><path d="M-279.692-80.4223-265.89-80.4223-265.89-68.9207-279.692-68.9207Z" fill="#4242D0" transform="matrix(-1.00198 0 0 -1 64.2072 144)"/><path d="M-279.117-80.1348-266.465-80.1348-266.465-69.2082-279.117-69.2082Z" fill="#3636D8" transform="matrix(-1.00198 0 0 -1 64.2072 144)"/><path d="M-278.542-79.5597-267.04-79.5597-267.04-69.7833-278.542-69.7833Z" fill="#2B2BE0" transform="matrix(-1.00198 0 0 -1 64.2072 144)"/><path d="M-277.967-79.2721-267.615-79.2721-267.615-70.0708-277.967-70.0708Z" fill="#2222E7" transform="matrix(-1.00198 0 0 -1 64.2072 144)"/><path d="M-277.392-78.6971-268.19-78.6971-268.19-70.6459-277.392-70.6459Z" fill="#1919ED" transform="matrix(-1.00198 0 0 -1 64.2072 144)"/><path d="M-276.817-78.122-268.766-78.122-268.766-71.221-276.817-71.221Z" fill="#1111F2" transform="matrix(-1.00198 0 0 -1 64.2072 144)"/><path d="M-276.242-77.5469-269.341-77.5469-269.341-71.7961-276.242-71.7961Z" fill="#0B0BF7" transform="matrix(-1.00198 0 0 -1 64.2072 144)"/><path d="M-275.379-76.9718-270.203-76.9718-270.203-72.3711-275.379-72.3711Z" fill="#0606FA" transform="matrix(-1.00198 0 0 -1 64.2072 144)"/><path d="M-274.804-76.3967-270.778-76.3967-270.778-72.9462-274.804-72.9462Z" fill="#0202FC" transform="matrix(-1.00198 0 0 -1 64.2072 144)"/><path d="M-273.941-75.5341-271.641-75.5341-271.641-73.8089-273.941-73.8089Z" fill="#0000FE" transform="matrix(-1.00198 0 0 -1 64.2072 144)"/><path d="M-273.079-74.959-272.504-74.959-272.504-74.3839-273.079-74.3839Z" fill="#0000FF" transform="matrix(-1.00198 0 0 -1 64.2072 144)"/><path d="M-278.059 69.6568-274.608 69.6568-274.608 73.1073-278.059 73.1073Z" stroke="#FFFFFF" stroke-width="0.575082" fill="#FFFFFF" transform="matrix(-1.00198 0 0 1 64.2072 144)"/><path d="M-270.721 69.6568-267.27 69.6568-267.27 73.1073-270.721 73.1073Z" stroke="#FFFFFF" stroke-width="0.575082" fill="#FFFFFF" transform="matrix(-1.00198 0 0 1 64.2072 144)"/><path d="M-270.721 75.9827-267.27 75.9827-267.27 79.4332-270.721 79.4332Z" stroke="#FFFFFF" stroke-width="0.575082" fill="#FFFFFF" transform="matrix(-1.00198 0 0 1 64.2072 144)"/><path d="M-278.059 75.9827-274.608 75.9827-274.608 79.4332-278.059 79.4332Z" stroke="#FFFFFF" stroke-width="0.575082" fill="#FFFFFF" transform="matrix(-1.00198 0 0 1 64.2072 144)"/><text fill="#0000FF" font-family="Arial,Arial_MSFontService,sans-serif" font-weight="400" font-size="10" transform="matrix(0.576222 0 0 0.575082 331.362 234)">bui</text><text fill="#0000FF" font-family="Arial,Arial_MSFontService,sans-serif" font-weight="400" font-size="10" transform="matrix(0.576222 0 0 0.575082 340.005 234)">[]</text><text fill="#0000FF" font-family="Arial,Arial_MSFontService,sans-serif" font-weight="400" font-size="10" transform="matrix(0.576222 0 0 0.575082 323.537 249)">sumMasFlo</text><path d="M265.143-125.842 282.97-125.842 282.97-108.015 265.143-108.015Z" stroke="#FF8900" stroke-width="0.575082" fill="#FFFFFF" transform="matrix(1.00198 0 0 -1 64.2072 144)"/><path d="M264.604 107.476 265.2 107.476 265.2 125.785 264.604 125.785Z" fill="#ACA899" transform="matrix(1.00198 0 0 1 64.2072 144)"/><path d="M264.604 125.785 282.913 125.785 282.913 126.381 264.604 126.381Z" fill="#ACA899" transform="matrix(1.00198 0 0 1 64.2072 144)"/><path d="M282.913 108.072 283.509 108.072 283.509 126.381 282.913 126.381Z" fill="#ACA899" transform="matrix(1.00198 0 0 1 64.2072 144)"/><path d="M265.2 107.476 283.509 107.476 283.509 108.072 265.2 108.072Z" fill="#ACA899" transform="matrix(1.00198 0 0 1 64.2072 144)"/><path d="M265.2 108.072 266.095 108.072 266.095 125.785 265.2 125.785Z" fill="#FFFFFF" transform="matrix(1.00198 0 0 1 64.2072 144)"/><path d="M265.2 108.072 282.913 108.072 282.913 108.967 265.2 108.967Z" fill="#FFFFFF" transform="matrix(1.00198 0 0 1 64.2072 144)"/><path d="M282.316 108.072 282.913 108.072 282.913 125.785 282.316 125.785Z" fill="#716F64" transform="matrix(1.00198 0 0 1 64.2072 144)"/><path d="M265.2 125.188 282.913 125.188 282.913 125.785 265.2 125.785Z" fill="#716F64" transform="matrix(1.00198 0 0 1 64.2072 144)"/><path d="M281.719 108.669 282.316 108.669 282.316 125.188 281.719 125.188Z" fill="#ACA899" transform="matrix(1.00198 0 0 1 64.2072 144)"/><path d="M265.796 124.591 282.316 124.591 282.316 125.188 265.796 125.188Z" fill="#ACA899" transform="matrix(1.00198 0 0 1 64.2072 144)"/><text font-family="Arial,Arial_MSFontService,sans-serif" font-weight="400" font-size="10" transform="matrix(0.576222 0 0 0.575082 323.825 272)">fill</text><text font-family="Arial,Arial_MSFontService,sans-serif" font-weight="400" font-size="10" transform="matrix(0.576222 0 0 0.575082 330.74 272)">(</text><text font-family="Arial,Arial_MSFontService,sans-serif" font-weight="400" font-size="10" transform="matrix(0.576222 0 0 0.575082 332.468 272)">1</text><text font-family="Arial,Arial_MSFontService,sans-serif" font-weight="400" font-size="10" transform="matrix(0.576222 0 0 0.575082 335.926 272)">, </text><text font-family="Arial,Arial_MSFontService,sans-serif" font-weight="400" font-size="10" transform="matrix(0.576222 0 0 0.575082 339.383 272)">nBui</text><text font-family="Arial,Arial_MSFontService,sans-serif" font-weight="400" font-size="10" transform="matrix(0.576222 0 0 0.575082 352.06 272)">)</text><text font-family="Arial,Arial_MSFontService,sans-serif" font-weight="400" font-size="21" transform="matrix(0.576222 0 0 0.575082 336.237 261)">+</text><path d="M19.7551 52.4045 45.0587 52.4045 45.0587 77.7081 19.7551 77.7081Z" stroke="#00007F" stroke-width="0.575082" fill="#FFFFFF" transform="matrix(1.00198 0 0 1 64.2072 144)"/><text fill="#0000FF" font-family="Arial,Arial_MSFontService,sans-serif" font-weight="400" font-size="10" transform="matrix(0.576222 0 0 0.575082 91.4924 193)">ram</text><path d="M158.377 80.9945 158.377 99.7192" stroke="#C0C0C0" stroke-width="0.575082" fill="none" transform="matrix(1.00198 0 0 1 -72.1544 119.459)"/><path d="M159.39 80.9945 158.377 78.2111 157.365 80.9945Z" stroke="#C0C0C0" stroke-width="0.575082" fill="#C0C0C0" transform="matrix(1.00198 0 0 1 -72.1544 119.459)"/><path d="M157.112 98.454 178.873 98.454" stroke="#C0C0C0" stroke-width="0.575082" fill="none" transform="matrix(1.00198 0 0 1 -72.1544 119.459)"/><path d="M177.102 99.4661 179.886 98.454 177.102 97.4418Z" stroke="#C0C0C0" stroke-width="0.575082" fill="#C0C0C0" transform="matrix(1.00198 0 0 1 -72.1544 119.459)"/><path d="M158.377 98.454 163.438 98.454 172.421 84.79" stroke="#000000" stroke-width="0.575082" fill="none" transform="matrix(1.00198 0 0 1 -72.1544 119.459)"/><text font-family="Arial,Arial_MSFontService,sans-serif" font-weight="400" font-size="10" transform="matrix(0.576222 0 0 0.575082 74.2057 226)">duration</text><text font-family="Arial,Arial_MSFontService,sans-serif" font-weight="400" font-size="10" transform="matrix(0.576222 0 0 0.575082 96.6784 226)">=</text><text font-family="Arial,Arial_MSFontService,sans-serif" font-weight="400" font-size="10" transform="matrix(0.576222 0 0 0.575082 100.136 226)">15 </text><text font-family="Arial,Arial_MSFontService,sans-serif" font-weight="400" font-size="10" transform="matrix(0.576222 0 0 0.575082 108.779 226)">min</text><path d="M172.421 84.79 179.379 84.79" stroke="#000000" stroke-width="0.575082" fill="none" transform="matrix(1.00198 0 0 1 -72.1544 119.459)"/><path d="M70.3624 59.9954 95.666 59.9954 95.666 85.299 70.3624 85.299Z" stroke="#00007F" stroke-width="0.575082" fill="#FFFFFF" transform="matrix(1.00198 0 0 1 64.2072 144)"/><text fill="#0000FF" font-family="Arial,Arial_MSFontService,sans-serif" font-weight="400" font-size="10" transform="matrix(0.576222 0 0 0.575082 143.064 200)">pro</text><path d="M206.454 89.5977 214.045 89.5977 215.311 92.1281" stroke="#00007F" stroke-width="0.575082" fill="none" transform="matrix(1.00198 0 0 1 -72.1544 119.459)"/><path d="M206.454 104.78 214.045 104.78 215.311 102.25" stroke="#00007F" stroke-width="0.575082" fill="none" transform="matrix(1.00198 0 0 1 -72.1544 119.459)"/><path d="M225.432 97.1888 231.758 97.1888" stroke="#00007F" stroke-width="0.575082" fill="none" transform="matrix(1.00198 0 0 1 -72.1544 119.459)"/><path d="M215.311 97.1888 222.902 97.1888" stroke="#000000" stroke-width="0.575082" fill="none" transform="matrix(1.00198 0 0 1 -72.1544 119.459)"/><path d="M217.208 93.9005 221.004 100.477" stroke="#000000" stroke-width="0.575082" fill="none" transform="matrix(1.00198 0 0 1 -72.1544 119.459)"/><path d="M217.208 100.477 221.004 93.9005" stroke="#000000" stroke-width="0.575082" fill="none" transform="matrix(1.00198 0 0 1 -72.1544 119.459)"/><path d="M89.3401 72.6472C89.3401 76.1409 86.5079 78.9731 83.0142 78.9731 79.5205 78.9731 76.6883 76.1409 76.6883 72.6472 76.6883 69.1535 79.5205 66.3213 83.0142 66.3213 86.5079 66.3213 89.3401 69.1535 89.3401 72.6472Z" stroke="#00007F" stroke-width="0.575082" fill="none" transform="matrix(1.00198 0 0 1 64.2072 144)"/><path d="M22.2854 173.862 47.589 173.862 47.589 199.165 22.2854 199.165Z" stroke="#00007F" stroke-width="0.575082" fill="#FFFFFF" transform="matrix(1.00198 0 0 1 64.2072 144)"/><path d="M160.908 202.452 160.908 221.176" stroke="#C0C0C0" stroke-width="0.575082" fill="none" transform="matrix(1.00198 0 0 1 -72.1544 119.459)"/><path d="M161.92 202.452 160.908 199.668 159.896 202.452Z" stroke="#C0C0C0" stroke-width="0.575082" fill="#C0C0C0" transform="matrix(1.00198 0 0 1 -72.1544 119.459)"/><path d="M159.643 211.055 179.632 211.055" stroke="#C0C0C0" stroke-width="0.575082" fill="none" transform="matrix(1.00198 0 0 1 -72.1544 119.459)"/><path d="M179.632 212.067 182.416 211.055 179.632 210.043Z" stroke="#C0C0C0" stroke-width="0.575082" fill="#C0C0C0" transform="matrix(1.00198 0 0 1 -72.1544 119.459)"/><path d="M160.908 200.934 161.028 200.94 161.051 200.941 161.072 200.942 161.091 200.943 161.109 200.944 161.124 200.945 161.138 200.946 161.149 200.947 161.159 200.947 161.167 200.948 161.173 200.948 161.173 200.948 161.173 200.948 161.178 200.949 161.183 200.95 161.188 200.95 161.193 200.95 161.198 200.951 161.203 200.952 161.208 200.953 161.213 200.953 161.218 200.954 161.223 200.955 161.223 200.955 161.223 200.955 161.228 200.955 161.233 200.957 161.239 200.957 161.244 200.958 161.249 200.959 161.255 200.961 161.26 200.961 161.265 200.962 161.271 200.963 161.276 200.965 161.276 200.965 161.276 200.965 161.281 200.966 161.287 200.967 161.292 200.969 161.298 200.97 161.303 200.971 161.309 200.973 161.314 200.974 161.32 200.976 161.325 200.977 161.331 200.979 161.331 200.979 161.331 200.979 161.336 200.98 161.342 200.982 161.348 200.984 161.354 200.985 161.359 200.987 161.365 200.989 161.371 200.991 161.377 200.993 161.382 200.994 161.388 200.996 161.388 200.996 161.388 200.996 161.394 200.999 161.4 201 161.405 201.003 161.412 201.005 161.417 201.007 161.423 201.009 161.429 201.011 161.435 201.013 161.442 201.016 161.447 201.018 161.447 201.018 161.447 201.018 161.454 201.02 161.459 201.023 161.466 201.025 161.472 201.028 161.478 201.03 161.484 201.032 161.49 201.035 161.497 201.038 161.503 201.04 161.509 201.043 161.509 201.043 161.509 201.043 161.516 201.046 161.521 201.049 161.528 201.051 161.535 201.054 161.541 201.057 161.547 201.06 161.554 201.064 161.56 201.066 161.567 201.069 161.573 201.072 161.573 201.072 161.573 201.072 161.58 201.076 161.586 201.078 161.593 201.082 161.6 201.085 161.606 201.088 161.613 201.092 161.619 201.095 161.626 201.099 161.632 201.102 161.639 201.105 161.639 201.105 161.639 201.105 161.646 201.109 161.653 201.112 161.66 201.116 161.666 201.119 161.673 201.123 161.68 201.127 161.687 201.131 161.694 201.134 161.701 201.138 161.708 201.142 161.708 201.142 161.708 201.142 161.715 201.146 161.722 201.15 161.729 201.154 161.736 201.158 161.743 201.162 161.75 201.166 161.757 201.17 161.764 201.174 161.771 201.179 161.779 201.183 161.779 201.183 161.779 201.183 161.785 201.187 161.792 201.191 161.8 201.196 161.807 201.2 161.814 201.204 161.821 201.209 161.828 201.214 161.835 201.218 161.842 201.223 161.849 201.228 161.849 201.228 161.849 201.228 161.856 201.233 161.864 201.237 161.871 201.242 161.878 201.247 161.885 201.252 161.892 201.257 161.899 201.262 161.906 201.267 161.913 201.272 161.921 201.277 161.921 201.277 161.921 201.277 161.927 201.283 161.934 201.288 161.942 201.294 161.949 201.299 161.956 201.304 161.963 201.31 161.97 201.315 161.977 201.321 161.984 201.326 161.992 201.332 161.992 201.332 161.992 201.332 161.999 201.338 162.006 201.344 162.013 201.349 162.02 201.355 162.028 201.361 162.034 201.367 162.041 201.373 162.049 201.379 162.056 201.386 162.063 201.391 162.063 201.391 162.063 201.391 162.07 201.398 162.077 201.404 162.084 201.41 162.091 201.417 162.099 201.423 162.106 201.429 162.113 201.436 162.12 201.442 162.128 201.449 162.135 201.455 162.135 201.455 162.135 201.455 162.141 201.462 162.149 201.469 162.156 201.475 162.163 201.482 162.17 201.489 162.178 201.496 162.185 201.503 162.192 201.51 162.199 201.517 162.206 201.524 162.206 201.524 162.206 201.524 162.213 201.531 162.22 201.538 162.228 201.545 162.235 201.553 162.242 201.56 162.249 201.567 162.256 201.575 162.263 201.582 162.271 201.59 162.278 201.597 162.278 201.597 162.278 201.597 162.285 201.605 162.292 201.612 162.3 201.62 162.306 201.628 162.314 201.636 162.321 201.643 162.328 201.651 162.335 201.659 162.343 201.667 162.35 201.675 162.35 201.675 162.35 201.675 162.357 201.683 162.364 201.691 162.371 201.7 162.378 201.708 162.386 201.716 162.393 201.724 162.4 201.732 162.407 201.741 162.415 201.749 162.421 201.758 162.421 201.758 162.421 201.758 162.429 201.766 162.436 201.775 162.443 201.783 162.45 201.792 162.458 201.801 162.465 201.809 162.472 201.818 162.48 201.827 162.486 201.836 162.494 201.845 162.494 201.845 162.494 201.845 162.501 201.854 162.508 201.863 162.515 201.872 162.523 201.881 162.53 201.89 162.537 201.899 162.544 201.908 162.551 201.918 162.558 201.927 162.566 201.936 162.566 201.936 162.566 201.936 162.573 201.946 162.58 201.955 162.587 201.965 162.595 201.974 162.601 201.984 162.609 201.993 162.616 202.003 162.623 202.013 162.63 202.023 162.638 202.033 162.638 202.033 162.638 202.033 162.645 202.042 162.652 202.052 162.659 202.062 162.666 202.072 162.673 202.082 162.681 202.092 162.688 202.102 162.695 202.112 162.702 202.122 162.71 202.133 162.71 202.133 162.71 202.133 162.716 202.143 162.723 202.153 162.731 202.164 162.738 202.174 162.745 202.184 162.752 202.195 162.76 202.205 162.767 202.216 162.774 202.226 162.781 202.237 162.781 202.237 162.781 202.237 162.788 202.248 162.795 202.259 162.802 202.269 162.81 202.28 162.817 202.291 162.824 202.302 162.831 202.313 162.838 202.324 162.845 202.335 162.852 202.346 162.852 202.346 162.852 202.346 162.86 202.357 162.867 202.368 162.874 202.379 162.881 202.391 162.888 202.402 162.895 202.413 162.902 202.425 162.91 202.436 162.917 202.448 162.924 202.459 162.924 202.459 162.924 202.459 162.931 202.471 162.938 202.482 162.945 202.494 162.952 202.505 162.959 202.517 162.967 202.529 162.974 202.541 162.981 202.552 162.988 202.564 162.995 202.577 162.995 202.577 162.995 202.577 163.002 202.589 163.009 202.601 163.016 202.613 163.024 202.625 163.03 202.637 163.038 202.649 163.045 202.661 163.052 202.674 163.059 202.686 163.066 202.698 163.066 202.698 163.066 202.698 163.073 202.711 163.081 202.723 163.087 202.735 163.094 202.748 163.102 202.761 163.109 202.773 163.116 202.786 163.123 202.799 163.13 202.811 163.137 202.824 163.137 202.824 163.137 202.824 163.144 202.837 163.151 202.85 163.158 202.863 163.166 202.876 163.173 202.889 163.179 202.902 163.187 202.915 163.194 202.928 163.201 202.942 163.208 202.955 163.208 202.955 163.208 202.955 163.215 202.968 163.223 202.982 163.229 202.995 163.237 203.009 163.244 203.022 163.251 203.036 163.258 203.05 163.266 203.064 163.273 203.077 163.28 203.092 163.28 203.092 163.28 203.092 163.288 203.106 163.294 203.119 163.302 203.134 163.309 203.148 163.316 203.163 163.324 203.176 163.331 203.191 163.338 203.206 163.346 203.22 163.353 203.234 163.353 203.234 163.353 203.234 163.36 203.249 163.367 203.264 163.375 203.279 163.382 203.294 163.39 203.309 163.397 203.324 163.404 203.339 163.412 203.353 163.419 203.368 163.427 203.384 163.427 203.384 163.427 203.384 163.434 203.399 163.442 203.414 163.449 203.43 163.457 203.445 163.464 203.461 163.472 203.477 163.479 203.492 163.487 203.508 163.494 203.524 163.501 203.539 163.501 203.539 163.501 203.539 163.51 203.555 163.517 203.571 163.524 203.588 163.532 203.604 163.539 203.62 163.547 203.636 163.555 203.652 163.562 203.669 163.57 203.685 163.577 203.701 163.577 203.701 163.577 203.701 163.585 203.718 163.593 203.735 163.6 203.751 163.608 203.768 163.616 203.785 163.623 203.801 163.631 203.819 163.639 203.835 163.647 203.853 163.654 203.87 163.654 203.87 163.654 203.87 163.662 203.887 163.67 203.904 163.678 203.922 163.685 203.939 163.694 203.956 163.701 203.973 163.709 203.991 163.717 204.009 163.725 204.026 163.733 204.044 163.733 204.044 163.733 204.044 163.74 204.062 163.748 204.08 163.756 204.098 163.764 204.116 163.772 204.134 163.78 204.152 163.788 204.17 163.795 204.188 163.803 204.207 163.811 204.225 163.811 204.225 163.811 204.225 163.819 204.244 163.828 204.262 163.836 204.281 163.843 204.299 163.851 204.318 163.859 204.337 163.867 204.356 163.875 204.374 163.883 204.393 163.891 204.412 163.891 204.412 163.891 204.412 163.899 204.432 163.907 204.451 163.916 204.47 163.924 204.489 163.932 204.509 163.94 204.528 163.948 204.548 163.956 204.567 163.964 204.587 163.972 204.607 163.972 204.607 163.972 204.607 163.981 204.627 163.989 204.647 163.997 204.667 164.006 204.687 164.014 204.707 164.022 204.727 164.031 204.748 164.039 204.769 164.047 204.789 164.056 204.81 164.056 204.81 164.056 204.81 164.064 204.831 164.073 204.852 164.081 204.873 164.09 204.894 164.098 204.915 164.106 204.937 164.115 204.958 164.124 204.979 164.132 205.001 164.141 205.023 164.141 205.023 164.141 205.023 164.15 205.045 164.158 205.067 164.167 205.088 164.175 205.111 164.184 205.133 164.193 205.155 164.202 205.178 164.211 205.2 164.219 205.222 164.228 205.245 164.228 205.245 164.228 205.245 164.237 205.268 164.246 205.291 164.255 205.314 164.264 205.337 164.273 205.36 164.282 205.384 164.29 205.407 164.3 205.43 164.309 205.454 164.318 205.477 164.318 205.477 164.318 205.477 164.327 205.501 164.336 205.525 164.345 205.549 164.354 205.573 164.363 205.597 164.372 205.621 164.381 205.645 164.391 205.67 164.4 205.694 164.409 205.719 164.409 205.719 164.409 205.719 164.419 205.744 164.428 205.768 164.437 205.794 164.446 205.818 164.456 205.844 164.465 205.868 164.475 205.894 164.484 205.919 164.493 205.945 164.503 205.97 164.503 205.97 164.503 205.97 164.512 205.996 164.522 206.022 164.531 206.048 164.541 206.074 164.55 206.099 164.56 206.125 164.569 206.152 164.579 206.178 164.589 206.205 164.599 206.231 164.599 206.231 164.599 206.231 164.608 206.258 164.618 206.285 164.627 206.311 164.637 206.338 164.647 206.365 164.657 206.392 164.667 206.419 164.677 206.447 164.687 206.474 164.696 206.501 164.696 206.501 164.696 206.501 164.706 206.529 164.716 206.557 164.726 206.585 164.736 206.612 164.746 206.641 164.756 206.668 164.766 206.696 164.776 206.725 164.786 206.753 164.797 206.782 164.797 206.782 164.797 206.782 164.806 206.81 164.817 206.839 164.827 206.868 164.837 206.898 164.848 206.927 164.858 206.957 164.869 206.987 164.879 207.017 164.89 207.048 164.901 207.078 164.901 207.078 164.901 207.078 164.912 207.109 164.923 207.14 164.933 207.173 164.945 207.204 164.956 207.237 164.967 207.27 164.979 207.303 164.99 207.336 165.002 207.37 165.014 207.405 165.014 207.405 165.014 207.405 165.026 207.439 165.038 207.475 165.05 207.51 165.063 207.546 165.075 207.582 165.088 207.618 165.1 207.655 165.113 207.692 165.125 207.73 165.139 207.768 165.139 207.768 165.139 207.768 165.152 207.806 165.165 207.845 165.178 207.885 165.192 207.924 165.205 207.963 165.219 208.004 165.232 208.044 165.246 208.085 165.26 208.127 165.274 208.168 165.274 208.168 165.274 208.168 165.289 208.211 165.303 208.253 165.318 208.296 165.332 208.339 165.346 208.382 165.361 208.426 165.376 208.471 165.391 208.515 165.406 208.56 165.421 208.605 165.421 208.605 165.421 208.605 165.437 208.651 165.452 208.697 165.468 208.744 165.483 208.79 165.499 208.837 165.515 208.885 165.531 208.933 165.547 208.981 165.563 209.03 165.579 209.079 165.579 209.079 165.579 209.079 165.596 209.128 165.613 209.178 165.629 209.229 165.646 209.279 165.663 209.33 165.68 209.381 165.697 209.433 165.714 209.484 165.732 209.537 165.749 209.59 165.749 209.59 165.749 209.59 165.766 209.643 165.784 209.696 165.802 209.75 165.82 209.804 165.837 209.859 165.856 209.914 165.874 209.969 165.893 210.025 165.911 210.081 165.929 210.137 165.929 210.137 165.929 210.137 165.948 210.194 165.967 210.251 165.986 210.309 166.005 210.367 166.024 210.425 166.043 210.483 166.062 210.543 166.082 210.602 166.101 210.662 166.121 210.721 166.121 210.721 166.121 210.721 166.141 210.782 166.161 210.843 166.181 210.904 166.201 210.965 166.221 211.027 166.242 211.089 166.262 211.152 166.283 211.215 166.303 211.279 166.324 211.342 166.324 211.342 166.324 211.342 166.344 211.403 166.362 211.458 166.377 211.506 166.391 211.547 166.402 211.582 166.412 211.611 166.419 211.633 166.424 211.65 166.427 211.659 166.429 211.662 166.429 211.662 166.429 211.662 166.43 211.666 166.433 211.675 166.438 211.691 166.445 211.713 166.455 211.742 166.466 211.777 166.479 211.818 166.495 211.866 166.513 211.92 166.533 211.981 166.533 211.981 166.533 211.981 166.553 212.045 166.574 212.107 166.594 212.17 166.615 212.233 166.635 212.294 166.655 212.356 166.675 212.417 166.695 212.478 166.714 212.538 166.735 212.597 166.735 212.597 166.735 212.597 166.754 212.657 166.773 212.716 166.793 212.774 166.812 212.833 166.831 212.891 166.85 212.948 166.869 213.005 166.887 213.061 166.905 213.117 166.924 213.173 166.924 213.173 166.924 213.173 166.942 213.228 166.961 213.283 166.978 213.337 166.996 213.392 167.014 213.445 167.032 213.498 167.049 213.551 167.067 213.604 167.084 213.655 167.101 213.707 167.101 213.707 167.101 213.707 167.118 213.758 167.135 213.809 167.152 213.859 167.169 213.909 167.185 213.959 167.202 214.008 167.218 214.056 167.234 214.105 167.25 214.152 167.266 214.2 167.266 214.2 167.266 214.2 167.282 214.247 167.298 214.294 167.313 214.34 167.329 214.386 167.344 214.431 167.359 214.476 167.374 214.52 167.389 214.565 167.404 214.608 167.419 214.652 167.419 214.652 167.419 214.652 167.433 214.695 167.448 214.737 167.462 214.779 167.476 214.821 167.49 214.862 167.505 214.903 167.518 214.943 167.532 214.983 167.545 215.023 167.559 215.062 167.559 215.062 167.559 215.062 167.572 215.101 167.586 215.139 167.599 215.177 167.612 215.215 167.625 215.252 167.637 215.289 167.65 215.325 167.663 215.361 167.675 215.396 167.687 215.431 167.687 215.431 167.687 215.431 167.7 215.466 167.711 215.5 167.723 215.534 167.735 215.568 167.747 215.6 167.758 215.633 167.77 215.665 167.781 215.697 167.792 215.728 167.803 215.759 167.803 215.759 167.803 215.759 167.814 215.79 167.824 215.82 167.835 215.849 167.846 215.879 167.856 215.908 167.866 215.936 167.877 215.964 167.886 215.992 167.896 216.019 167.906 216.046 167.906 216.046 167.906 216.046 167.916 216.073 167.926 216.098 167.935 216.125 167.945 216.15 167.954 216.176 167.964 216.201 167.973 216.226 167.982 216.251 167.991 216.276 168 216.3 168 216.3 168 216.3 168.009 216.324 168.018 216.348 168.027 216.372 168.037 216.396 168.045 216.42 168.054 216.444 168.064 216.468 168.072 216.491 168.081 216.515 168.09 216.538 168.09 216.538 168.09 216.538 168.099 216.562 168.108 216.586 168.117 216.609 168.126 216.632 168.135 216.655 168.144 216.679 168.153 216.702 168.161 216.725 168.171 216.748 168.179 216.77 168.179 216.77 168.179 216.77 168.188 216.793 168.197 216.816 168.206 216.839 168.215 216.861 168.223 216.883 168.232 216.906 168.241 216.928 168.25 216.951 168.259 216.973 168.267 216.996 168.267 216.996 168.267 216.996 168.276 217.017 168.285 217.039 168.294 217.062 168.302 217.084 168.311 217.105 168.319 217.127 168.329 217.149 168.337 217.17 168.346 217.192 168.355 217.214 168.355 217.214 168.355 217.214 168.363 217.235 168.372 217.256 168.38 217.277 168.389 217.299 168.398 217.32 168.406 217.341 168.415 217.362 168.424 217.383 168.432 217.404 168.44 217.425 168.44 217.425 168.44 217.425 168.449 217.445 168.458 217.466 168.466 217.487 168.475 217.507 168.483 217.528 168.491 217.548 168.5 217.568 168.509 217.589 168.517 217.609 168.525 217.629 168.525 217.629 168.525 217.629 168.534 217.649 168.543 217.669 168.551 217.689 168.559 217.709 168.567 217.729 168.576 217.748 168.585 217.768 168.593 217.788 168.601 217.808 168.609 217.827 168.609 217.827 168.609 217.827 168.618 217.846 168.626 217.866 168.635 217.885 168.643 217.904 168.651 217.923 168.659 217.942 168.667 217.961 168.676 217.98 168.684 217.999 168.693 218.017 168.693 218.017 168.693 218.017 168.701 218.036 168.709 218.055 168.717 218.073 168.726 218.092 168.734 218.111 168.742 218.129 168.75 218.147 168.758 218.165 168.766 218.184 168.774 218.202 168.774 218.202 168.774 218.202 168.782 218.219 168.79 218.238 168.799 218.256 168.807 218.273 168.815 218.291 168.823 218.308 168.831 218.326 168.839 218.344 168.847 218.361 168.855 218.379 168.855 218.379 168.855 218.379 168.864 218.396 168.872 218.413 168.88 218.43 168.888 218.448 168.896 218.465 168.904 218.482 168.911 218.499 168.919 218.516 168.927 218.533 168.935 218.549 168.935 218.549 168.935 218.549 168.943 218.566 168.952 218.583 168.959 218.599 168.967 218.616 168.975 218.632 168.983 218.649 168.991 218.665 168.999 218.681 169.007 218.697 169.014 218.714 169.014 218.714 169.014 218.714 169.022 218.729 169.03 218.746 169.038 218.762 169.046 218.778 169.053 218.793 169.061 218.809 169.069 218.825 169.077 218.84 169.084 218.856 169.092 218.871 169.092 218.871 169.092 218.871 169.1 218.887 169.108 218.902 169.115 218.917 169.123 218.932 169.131 218.948 169.138 218.963 169.146 218.978 169.154 218.993 169.161 219.008 169.169 219.023 169.169 219.023 169.169 219.023 169.177 219.038 169.184 219.052 169.192 219.067 169.2 219.081 169.207 219.096 169.215 219.11 169.222 219.125 169.23 219.139 169.237 219.153 169.245 219.168 169.245 219.168 169.245 219.168 169.253 219.181 169.26 219.196 169.268 219.21 169.275 219.223 169.283 219.238 169.29 219.252 169.298 219.265 169.305 219.279 169.313 219.292 169.32 219.306 169.32 219.306 169.32 219.306 169.328 219.319 169.335 219.333 169.343 219.346 169.349 219.36 169.357 219.373 169.364 219.386 169.372 219.399 169.379 219.412 169.387 219.425 169.394 219.438 169.394 219.438 169.394 219.438 169.401 219.451 169.409 219.464 169.416 219.476 169.423 219.489 169.431 219.502 169.438 219.514 169.445 219.526 169.452 219.539 169.459 219.551 169.467 219.563 169.467 219.563 169.467 219.563 169.474 219.575 169.481 219.588 169.489 219.6 169.496 219.612 169.503 219.624 169.51 219.636 169.517 219.647 169.524 219.659 169.532 219.671 169.539 219.682 169.539 219.682 169.539 219.682 169.546 219.693 169.551 219.704 169.557 219.712 169.562 219.72 169.565 219.726 169.569 219.731 169.571 219.735 169.573 219.738 169.574 219.74 169.574 219.74 169.574 219.74 169.574 219.74 169.575 219.741 169.575 219.743 169.578 219.746 169.58 219.749 169.583 219.754 169.587 219.761 169.592 219.767 169.597 219.775 169.603 219.785 169.61 219.796 169.61 219.796 169.61 219.796 169.617 219.807 169.624 219.817 169.631 219.828 169.638 219.839 169.645 219.85 169.653 219.861 169.659 219.872 169.666 219.882 169.674 219.893 169.681 219.904 169.681 219.904 169.681 219.904 169.688 219.914 169.695 219.924 169.702 219.935 169.709 219.946 169.716 219.956 169.723 219.966 169.731 219.977 169.738 219.987 169.745 219.997 169.752 220.007 169.752 220.007 169.752 220.007 169.759 220.017 169.766 220.027 169.773 220.037 169.78 220.048 169.788 220.057 169.795 220.067 169.801 220.077 169.809 220.087 169.816 220.096 169.823 220.106 169.823 220.106 169.823 220.106 169.83 220.116 169.837 220.125 169.845 220.135 169.852 220.144 169.859 220.154 169.866 220.163 169.873 220.173 169.88 220.182 169.887 220.191 169.895 220.201 169.895 220.201 169.895 220.201 169.902 220.21 169.909 220.219 169.916 220.228 169.923 220.237 169.93 220.246 169.937 220.255 169.945 220.264 169.952 220.273 169.959 220.282 169.966 220.29 169.966 220.29 169.966 220.29 169.973 220.299 169.98 220.307 169.987 220.316 169.995 220.325 170.002 220.333 170.009 220.342 170.016 220.351 170.023 220.359 170.03 220.367 170.037 220.375 170.037 220.375 170.037 220.375 170.045 220.384 170.052 220.392 170.059 220.4 170.066 220.408 170.074 220.417 170.08 220.425 170.088 220.432 170.095 220.44 170.102 220.448 170.109 220.456 170.109 220.456 170.109 220.456 170.117 220.464 170.124 220.472 170.131 220.479 170.138 220.487 170.145 220.495 170.152 220.502 170.16 220.51 170.167 220.517 170.174 220.525 170.181 220.532 170.181 220.532 170.181 220.532 170.189 220.54 170.195 220.547 170.203 220.554 170.21 220.562 170.217 220.569 170.224 220.576 170.232 220.583 170.239 220.59 170.246 220.597 170.253 220.604 170.253 220.604 170.253 220.604 170.26 220.611 170.266 220.616 170.271 220.621 170.276 220.626 170.28 220.63 170.283 220.633 170.286 220.636 170.288 220.638 170.289 220.638 170.289 220.639 170.289 220.639 170.289 220.639 170.29 220.639 170.291 220.64 170.293 220.642 170.295 220.644 170.298 220.647 170.302 220.65 170.307 220.655 170.312 220.659 170.318 220.665 170.325 220.671 170.325 220.671 170.325 220.671 170.332 220.677 170.34 220.684 170.347 220.69 170.354 220.697 170.361 220.703 170.369 220.709 170.375 220.715 170.383 220.722 170.39 220.727 170.397 220.734 170.397 220.734 170.397 220.734 170.404 220.739 170.412 220.745 170.419 220.751 170.426 220.757 170.433 220.763 170.44 220.769 170.447 220.774 170.455 220.78 170.462 220.785 170.469 220.791 170.469 220.791 170.469 220.791 170.476 220.797 170.484 220.802 170.49 220.808 170.498 220.813 170.505 220.818 170.512 220.823 170.519 220.828 170.527 220.834 170.534 220.839 170.541 220.844 170.541 220.844 170.541 220.844 170.548 220.849 170.555 220.854 170.562 220.859 170.569 220.864 170.577 220.869 170.584 220.874 170.591 220.879 170.598 220.883 170.605 220.888 170.612 220.892 170.612 220.892 170.612 220.892 170.62 220.897 170.627 220.902 170.634 220.906 170.641 220.911 170.648 220.915 170.655 220.919 170.662 220.923 170.67 220.928 170.677 220.932 170.684 220.936 170.684 220.936 170.684 220.936 170.691 220.94 170.698 220.944 170.706 220.948 170.712 220.952 170.719 220.956 170.727 220.96 170.734 220.964 170.741 220.968 170.748 220.971 170.755 220.975 170.755 220.975 170.755 220.975 170.762 220.979 170.769 220.983 170.777 220.986 170.784 220.99 170.791 220.993 170.798 220.996 170.805 221 170.812 221.003 170.819 221.006 170.826 221.01 170.826 221.01 170.826 221.01 170.834 221.012 170.841 221.015 170.848 221.019 170.855 221.022 170.862 221.025 170.869 221.027 170.876 221.03 170.883 221.033 170.891 221.036 170.898 221.039 170.898 221.039 170.898 221.039 170.904 221.042 170.912 221.044 170.919 221.047 170.926 221.049 170.933 221.052 170.94 221.054 170.947 221.057 170.955 221.059 170.961 221.061 170.968 221.064 170.968 221.064 170.968 221.064 170.975 221.066 170.982 221.068 170.987 221.069 170.991 221.071 170.995 221.072 170.998 221.073 171.001 221.074 171.003 221.075 171.003 221.075 171.004 221.075 171.004 221.075 171.004 221.075 171.005 221.075 171.005 221.076 171.007 221.076 171.01 221.076 171.013 221.077 171.017 221.079 171.021 221.08 171.026 221.081 171.033 221.082 171.04 221.084 171.04 221.084 171.04 221.084 171.047 221.086 171.053 221.087 171.061 221.089 171.068 221.091 171.075 221.092 171.082 221.094 171.089 221.095 171.096 221.096 171.103 221.098 171.11 221.099 171.11 221.099 171.11 221.099 171.117 221.1 171.124 221.102 171.132 221.103 171.139 221.104 171.145 221.105 171.153 221.106 171.16 221.107 171.167 221.108 171.174 221.109 171.181 221.109 171.181 221.109 171.181 221.109 171.188 221.11 171.195 221.111 171.202 221.111 171.209 221.112 171.217 221.113 171.224 221.113 171.231 221.113 171.238 221.114 171.245 221.114 171.252 221.114 171.252 221.114 171.252 221.114 171.259 221.115 171.266 221.115 171.273 221.115 171.28 221.115 171.287 221.115 171.294 221.115 171.301 221.115 171.309 221.115 171.316 221.115 171.323 221.114 171.323 221.114 171.323 221.114 171.33 221.114 171.337 221.114 171.344 221.113 171.351 221.113 171.358 221.113 171.365 221.112 171.373 221.111 171.38 221.111 171.386 221.11 171.394 221.109 171.394 221.109 171.394 221.109 171.401 221.109 171.408 221.108 171.415 221.107 171.422 221.106 171.429 221.105 171.436 221.104 171.443 221.103 171.45 221.102 171.457 221.1 171.465 221.099 171.465 221.099 171.465 221.099 171.472 221.098 171.478 221.096 171.486 221.095 171.493 221.094 171.5 221.092 171.507 221.091 171.514 221.089 171.521 221.087 171.528 221.086 171.535 221.084 171.535 221.084 171.535 221.084 171.542 221.082 171.55 221.08 171.557 221.079 171.564 221.076 171.571 221.075 171.578 221.072 171.585 221.071 171.592 221.068 171.599 221.066 171.606 221.064 171.606 221.064 171.606 221.064 171.614 221.061 171.62 221.059 171.627 221.057 171.634 221.054 171.642 221.052 171.649 221.049 171.656 221.046 171.663 221.044 171.67 221.041 171.677 221.038 171.677 221.038 171.677 221.038 171.684 221.036 171.691 221.033 171.698 221.03 171.706 221.027 171.712 221.024 171.719 221.021 171.727 221.018 171.734 221.015 171.741 221.011 171.748 221.008 171.748 221.008 171.748 221.008 171.755 221.005 171.762 221.002 171.769 220.998 171.776 220.995 171.783 220.991 171.791 220.988 171.798 220.984 171.804 220.98 171.812 220.977 171.819 220.973 171.819 220.973 171.819 220.973 171.826 220.969 171.833 220.965 171.84 220.962 171.848 220.958 171.855 220.954 171.861 220.95 171.869 220.946 171.876 220.942 171.883 220.938 171.89 220.934 171.89 220.934 171.89 220.934 171.897 220.929 171.904 220.925 171.911 220.92 171.918 220.916 171.926 220.912 171.933 220.907 171.94 220.903 171.947 220.898 171.954 220.893 171.961 220.889 171.961 220.889 171.961 220.889 171.968 220.884 171.975 220.88 171.983 220.875 171.99 220.87 171.997 220.865 172.004 220.86 172.011 220.855 172.018 220.85 172.025 220.845 172.033 220.84 172.033 220.84 172.033 220.84 172.04 220.835 172.047 220.83 172.054 220.824 172.061 220.819 172.068 220.814 172.075 220.808 172.083 220.803 172.09 220.797 172.097 220.792 172.104 220.786 172.104 220.786 172.104 220.786 172.111 220.781 172.118 220.775 172.125 220.769 172.133 220.763 172.14 220.758 172.147 220.751 172.154 220.746 172.162 220.74 172.169 220.734 172.175 220.728 172.175 220.728 172.175 220.728 172.183 220.722 172.19 220.716 172.197 220.709 172.204 220.703 172.212 220.697 172.219 220.69 172.226 220.684 172.233 220.678 172.24 220.671 172.247 220.665 172.247 220.665 172.247 220.665 172.255 220.658 172.262 220.651 172.269 220.645 172.276 220.638 172.284 220.631 172.29 220.624 172.298 220.617 172.305 220.611 172.312 220.604 172.319 220.597 172.319 220.597 172.319 220.597 172.327 220.59 172.334 220.583 172.341 220.575 172.348 220.569 172.355 220.561 172.362 220.554 172.37 220.547 172.377 220.539 172.384 220.532 172.391 220.524 172.391 220.524 172.391 220.524 172.399 220.517 172.405 220.509 172.413 220.502 172.42 220.494 172.427 220.486 172.435 220.479 172.442 220.471 172.449 220.463 172.456 220.455 172.464 220.447 172.464 220.447 172.464 220.447 172.47 220.439 172.478 220.431 172.485 220.423 172.492 220.415 172.499 220.407 172.507 220.399 172.514 220.39 172.521 220.382 172.528 220.374 172.535 220.366 172.535 220.366 172.535 220.366 172.542 220.357 172.55 220.349 172.557 220.34 172.564 220.332 172.571 220.323 172.579 220.314 172.585 220.306 172.593 220.297 172.6 220.288 172.607 220.279 172.607 220.279 172.607 220.279 172.614 220.271 172.622 220.262 172.629 220.253 172.636 220.244 172.643 220.235 172.65 220.226 172.657 220.217 172.665 220.207 172.672 220.198 172.679 220.189 172.679 220.189 172.679 220.189 172.686 220.18 172.693 220.171 172.7 220.161 172.707 220.152 172.715 220.142 172.722 220.133 172.729 220.123 172.736 220.114 172.744 220.104 172.751 220.094 172.751 220.094 172.751 220.094 172.757 220.084 172.765 220.075 172.772 220.065 172.779 220.055 172.786 220.045 172.794 220.035 172.801 220.025 172.807 220.015 172.815 220.005 172.822 219.995 172.822 219.995 172.822 219.995 172.829 219.985 172.836 219.974 172.844 219.964 172.851 219.954 172.857 219.943 172.865 219.933 172.872 219.923 172.879 219.912 172.886 219.901 172.893 219.891 172.893 219.891 172.893 219.891 172.901 219.881 172.907 219.87 172.915 219.859 172.922 219.849 172.929 219.838 172.936 219.827 172.943 219.816 172.951 219.805 172.958 219.794 172.964 219.783 172.964 219.783 172.964 219.783 172.972 219.772 172.979 219.761 172.986 219.75 172.993 219.739 173 219.727 173.008 219.716 173.014 219.705 173.021 219.693 173.029 219.682 173.036 219.67 173.036 219.67 173.036 219.67 173.043 219.659 173.05 219.647 173.057 219.636 173.064 219.624 173.071 219.612 173.078 219.601 173.085 219.589 173.093 219.577 173.1 219.565 173.106 219.554 173.106 219.554 173.106 219.554 173.114 219.541 173.121 219.529 173.128 219.517 173.135 219.505 173.142 219.493 173.149 219.481 173.157 219.468 173.163 219.456 173.171 219.444 173.178 219.432 173.178 219.432 173.178 219.432 173.185 219.419 173.192 219.406 173.199 219.394 173.207 219.381 173.213 219.368 173.221 219.356 173.228 219.342 173.235 219.33 173.242 219.317 173.25 219.303 173.25 219.303 173.25 219.303 173.257 219.29 173.264 219.277 173.272 219.264 173.278 219.25 173.286 219.237 173.293 219.223 173.301 219.21 173.308 219.196 173.315 219.183 173.323 219.169 173.323 219.169 173.323 219.169 173.33 219.156 173.337 219.141 173.345 219.127 173.352 219.114 173.36 219.099 173.367 219.085 173.374 219.071 173.381 219.057 173.389 219.043 173.396 219.028 173.396 219.028 173.396 219.028 173.404 219.014 173.411 218.999 173.419 218.985 173.426 218.97 173.434 218.955 173.441 218.94 173.449 218.926 173.456 218.911 173.464 218.896 173.471 218.881 173.471 218.881 173.471 218.881 173.479 218.866 173.487 218.851 173.494 218.836 173.502 218.82 173.509 218.805 173.517 218.79 173.525 218.774 173.532 218.759 173.54 218.743 173.547 218.727 173.547 218.727 173.547 218.727 173.555 218.712 173.563 218.696 173.57 218.68 173.578 218.664 173.586 218.648 173.593 218.632 173.601 218.616 173.609 218.599 173.617 218.583 173.624 218.567 173.624 218.567 173.624 218.567 173.632 218.551 173.64 218.534 173.648 218.518 173.655 218.501 173.663 218.484 173.671 218.468 173.679 218.451 173.686 218.434 173.694 218.418 173.702 218.4 173.702 218.4 173.702 218.4 173.71 218.383 173.718 218.367 173.726 218.349 173.733 218.332 173.741 218.315 173.749 218.298 173.757 218.28 173.765 218.262 173.773 218.245 173.781 218.227 173.781 218.227 173.781 218.227 173.789 218.21 173.797 218.192 173.805 218.174 173.813 218.157 173.821 218.138 173.829 218.12 173.837 218.103 173.845 218.084 173.853 218.066 173.861 218.048 173.861 218.048 173.861 218.048 173.869 218.03 173.877 218.011 173.885 217.993 173.893 217.974 173.901 217.955 173.909 217.937 173.918 217.918 173.926 217.899 173.934 217.88 173.942 217.861 173.942 217.861 173.942 217.861 173.951 217.842 173.959 217.823 173.967 217.804 173.975 217.784 173.983 217.764 173.992 217.745 174 217.725 174.009 217.705 174.017 217.686 174.025 217.666 174.025 217.666 174.025 217.666 174.034 217.645 174.042 217.625 174.051 217.605 174.059 217.584 174.068 217.564 174.076 217.543 174.085 217.522 174.093 217.502 174.102 217.481 174.111 217.46 174.111 217.46 174.111 217.46 174.119 217.439 174.128 217.418 174.136 217.396 174.146 217.375 174.154 217.353 174.163 217.332 174.172 217.31 174.18 217.288 174.189 217.266 174.198 217.245 174.198 217.245 174.198 217.245 174.207 217.223 174.216 217.2 174.225 217.178 174.234 217.156 174.243 217.134 174.251 217.111 174.261 217.088 174.269 217.066 174.278 217.043 174.288 217.02 174.288 217.02 174.288 217.02 174.297 216.997 174.306 216.974 174.315 216.95 174.324 216.927 174.333 216.904 174.342 216.88 174.352 216.856 174.361 216.833 174.37 216.809 174.379 216.785 174.379 216.785 174.379 216.785 174.389 216.761 174.398 216.737 174.407 216.713 174.417 216.688 174.426 216.664 174.435 216.64 174.445 216.615 174.454 216.59 174.464 216.565 174.473 216.541 174.473 216.541 174.473 216.541 174.483 216.515 174.492 216.491 174.502 216.465 174.511 216.44 174.521 216.415 174.53 216.389 174.54 216.364 174.55 216.338 174.56 216.312 174.569 216.286 174.569 216.286 174.569 216.286 174.579 216.261 174.589 216.235 174.598 216.208 174.609 216.182 174.618 216.156 174.628 216.129 174.638 216.102 174.648 216.076 174.657 216.05 174.667 216.023 174.667 216.023 174.667 216.023 174.678 215.995 174.687 215.968 174.697 215.941 174.708 215.914 174.717 215.887 174.728 215.86 174.737 215.832 174.748 215.805 174.758 215.777 174.768 215.749 174.768 215.749 174.768 215.749 174.778 215.721 174.788 215.693 174.798 215.665 174.808 215.637 174.818 215.609 174.829 215.581 174.839 215.552 174.849 215.524 174.859 215.496 174.87 215.467 174.87 215.467 174.87 215.467 174.88 215.439 174.89 215.41 174.9 215.381 174.911 215.353 174.921 215.324 174.931 215.296 174.942 215.267 174.951 215.238 174.962 215.209 174.972 215.181 174.972 215.181 174.972 215.181 174.982 215.152 174.993 215.123 175.003 215.094 175.013 215.065 175.023 215.036 175.034 215.007 175.043 214.978 175.054 214.949 175.064 214.92 175.074 214.891 175.074 214.891 175.074 214.891 175.085 214.862 175.095 214.833 175.105 214.804 175.115 214.775 175.126 214.745 175.135 214.716 175.146 214.687 175.156 214.657 175.166 214.628 175.176 214.599 175.176 214.599 175.176 214.599 175.187 214.569 175.197 214.54 175.207 214.511 175.217 214.481 175.227 214.451 175.238 214.421 175.247 214.392 175.258 214.362 175.268 214.333 175.279 214.303 175.279 214.303 175.279 214.303 175.288 214.274 175.299 214.244 175.309 214.214 175.319 214.184 175.329 214.154 175.34 214.124 175.35 214.094 175.36 214.064 175.37 214.034 175.38 214.005 175.38 214.005 175.38 214.005 175.39 213.975 175.4 213.945 175.411 213.914 175.421 213.884 175.431 213.854 175.441 213.824 175.452 213.794 175.461 213.764 175.472 213.733 175.482 213.703 175.482 213.703 175.482 213.703 175.492 213.673 175.502 213.642 175.513 213.612 175.522 213.581 175.533 213.551 175.543 213.52 175.553 213.49 175.563 213.459 175.574 213.429 175.583 213.398 175.583 213.398 175.583 213.398 175.594 213.368 175.604 213.337 175.614 213.306 175.624 213.275 175.635 213.245 175.644 213.214 175.655 213.183 175.664 213.152 175.675 213.122 175.685 213.091 175.685 213.091 175.685 213.091 175.695 213.06 175.705 213.029 175.716 212.998 175.725 212.967 175.736 212.935 175.746 212.904 175.756 212.873 175.766 212.842 175.776 212.811 175.786 212.78 175.786 212.78 175.786 212.78 175.796 212.75 175.805 212.724 175.812 212.7 175.819 212.68 175.824 212.663 175.829 212.649 175.832 212.638 175.835 212.63 175.836 212.626 175.837 212.624 175.837 212.624 175.837 212.624 175.839 212.616 175.847 212.592 175.86 212.553 175.877 212.498 175.9 212.428 175.928 212.341 175.961 212.24 175.999 212.122 176.042 211.988 176.09 211.839 176.09 211.839 176.343 211.055" stroke="#000000" stroke-width="0.575082" fill="none" transform="matrix(1.00198 0 0 1 -72.1544 119.459)"/><text font-family="Arial,Arial_MSFontService,sans-serif" font-weight="400" font-size="10" transform="matrix(0.576222 0 0 0.575082 72.5479 347)">freqHz</text><text font-family="Arial,Arial_MSFontService,sans-serif" font-weight="400" font-size="10" transform="matrix(0.576222 0 0 0.575082 89.8345 347)">=</text><text font-family="Arial,Arial_MSFontService,sans-serif" font-weight="400" font-size="10" transform="matrix(0.576222 0 0 0.575082 93.2918 347)">1</text><text font-family="Arial,Arial_MSFontService,sans-serif" font-weight="400" font-size="10" transform="matrix(0.576222 0 0 0.575082 96.7492 347)">/</text><text font-family="Arial,Arial_MSFontService,sans-serif" font-weight="400" font-size="10" transform="matrix(0.576222 0 0 0.575082 98.4778 347)">31536000</text><path d="M176.343 210.928 177.773 206.602 178.684 204.21 179.493 202.528 180.214 201.49 180.923 200.921 181.631 200.832" stroke="#000000" stroke-width="0.575082" fill="none" transform="matrix(1.00198 0 0 1 -72.1544 119.459)"/><path d="M83.0142-199.165 108.318-199.165 108.318-173.862 83.0142-173.862Z" fill="#9F9FDF" transform="matrix(1.00198 0 0 -1 64.2072 144)"/><path d="M218.853 211.055 239.855 211.055" stroke="#BF0000" stroke-width="1.15016" fill="none" transform="matrix(1.00198 0 0 1 -72.1544 119.459)"/><text font-family="Arial,Arial_MSFontService,sans-serif" font-weight="400" font-size="22" transform="matrix(0.576222 0 0 0.575082 149.403 337)">K</text><text fill="#0000FF" font-family="Arial,Arial_MSFontService,sans-serif" font-weight="400" font-size="10" transform="matrix(0.576222 0 0 0.575082 149.691 314)">preTem</text><path d="M243.145 211.055 238.084 213.585 238.084 208.525Z" stroke="#BF0000" stroke-width="0.575082" fill="#BF0000" transform="matrix(1.00198 0 0 1 -72.1544 119.459)"/><path d="M181.151 46.5816 206.454 46.5816" stroke="#FFFFFF" stroke-width="2.87541" fill="none" transform="matrix(1.00198 0 0 1 -72.1544 119.459)"/><path d="M181.151 46.5816 206.454 46.5816" stroke="#FFCC33" stroke-width="0.575082" stroke-dasharray="2.30033 1.15016" fill="none" transform="matrix(1.00198 0 0 1 -72.1544 119.459)"/><path d="M396.231 104.78 373.458 104.78 373.458 135.144" stroke="#FFFFFF" stroke-width="3.45049" fill="none" transform="matrix(1.00198 0 0 1 -72.1544 119.459)"/><path d="M396.231 104.78 373.458 104.78 373.458 135.144" stroke="#0000DE" stroke-width="1.15016" fill="none" transform="matrix(1.00198 0 0 1 -72.1544 119.459)"/><path d="M384.845 141.47 401.292 141.47" stroke="#FFFFFF" stroke-width="2.87541" fill="none" transform="matrix(1.00198 0 0 1 -72.1544 119.459)"/><path d="M384.845 141.47 401.292 141.47" stroke="#00007F" stroke-width="0.575082" stroke-dasharray="2.30033 1.15016" fill="none" transform="matrix(1.00198 0 0 1 -72.1544 119.459)"/><path d="M332.972 155.387 289.956 155.387 289.956 109.841" stroke="#FFFFFF" stroke-width="3.45049" fill="none" transform="matrix(1.00198 0 0 1 -72.1544 119.459)"/><path d="M332.972 155.387 289.956 155.387 289.956 109.841" stroke="#0000DE" stroke-width="1.15016" fill="none" transform="matrix(1.00198 0 0 1 -72.1544 119.459)"/><path d="M274.774 109.841 274.774 147.796 332.972 147.796" stroke="#FFFFFF" stroke-width="3.45049" fill="none" transform="matrix(1.00198 0 0 1 -72.1544 119.459)"/><path d="M274.774 109.841 274.774 147.796 332.972 147.796" stroke="#0000DE" stroke-width="1.15016" fill="none" transform="matrix(1.00198 0 0 1 -72.1544 119.459)"/><path d="M396.231 97.1888 343.094 97.1888 343.094 135.144" stroke="#FFFFFF" stroke-width="3.45049" fill="none" transform="matrix(1.00198 0 0 1 -72.1544 119.459)"/><path d="M396.231 97.1888 343.094 97.1888 343.094 135.144" stroke="#0000DE" stroke-width="1.15016" fill="none" transform="matrix(1.00198 0 0 1 -72.1544 119.459)"/><path d="M182.416 89.5977 203.924 89.5977" stroke="#FFFFFF" stroke-width="2.87541" fill="none" transform="matrix(1.00198 0 0 1 -72.1544 119.459)"/><path d="M182.416 89.5977 203.924 89.5977" stroke="#00007F" stroke-width="0.575082" stroke-dasharray="2.30033 1.15016" fill="none" transform="matrix(1.00198 0 0 1 -72.1544 119.459)"/><path d="M420.51 141.47 434.187 141.47 434.187 173.1 193.803 173.1 193.803 104.78 203.924 104.78" stroke="#FFFFFF" stroke-width="2.87541" fill="none" transform="matrix(1.00198 0 0 1 -72.1544 119.459)"/><path d="M420.51 141.47 434.187 141.47 434.187 173.1 193.803 173.1 193.803 104.78 203.924 104.78" stroke="#00007F" stroke-width="0.575082" stroke-dasharray="2.30033 1.15016" fill="none" transform="matrix(1.00198 0 0 1 -72.1544 119.459)"/><path d="M233.023 97.1888 267.183 97.1888" stroke="#FFFFFF" stroke-width="2.87541" fill="none" transform="matrix(1.00198 0 0 1 -72.1544 119.459)"/><path d="M233.023 97.1888 267.183 97.1888" stroke="#00007F" stroke-width="0.575082" stroke-dasharray="2.30033 1.15016" fill="none" transform="matrix(1.00198 0 0 1 -72.1544 119.459)"/><path d="M206.454 46.5816 236.819 46.5816 236.819 87.0674 267.183 87.0674" stroke="#FFFFFF" stroke-width="2.87541" fill="none" transform="matrix(1.00198 0 0 1 -72.1544 119.459)"/><path d="M206.454 46.5816 236.819 46.5816 236.819 87.0674 267.183 87.0674" stroke="#FFCC33" stroke-width="0.575082" stroke-dasharray="2.30033 1.15016" fill="none" transform="matrix(1.00198 0 0 1 -72.1544 119.459)"/><text font-family="Arial,Arial_MSFontService,sans-serif" font-weight="400" font-size="10" transform="matrix(0.576222 0 0 0.575082 164.327 203)">TWetBul</text><path d="M184.946 211.055 216.576 211.055" stroke="#FFFFFF" stroke-width="2.87541" fill="none" transform="matrix(1.00198 0 0 1 -72.1544 119.459)"/><path d="M184.946 211.055 216.576 211.055" stroke="#00007F" stroke-width="0.575082" fill="none" transform="matrix(1.00198 0 0 1 -72.1544 119.459)"/><path d="M244.41 211.055 343.094 211.055 343.094 160.448" stroke="#FFFFFF" stroke-width="2.87541" fill="none" transform="matrix(1.00198 0 0 1 -72.1544 119.459)"/><path d="M244.41 211.055 343.094 211.055 343.094 160.448" stroke="#BF0000" stroke-width="0.575082" fill="none" transform="matrix(1.00198 0 0 1 -72.1544 119.459)"/><path d="M108.015 227.302 113.19 227.302 113.19 247.43 108.015 247.43Z" stroke="#007FFF" stroke-width="0.575082" fill="#FFFFFF" transform="matrix(0 1 1.00198 0 64.2072 144)"/><path d="M-108.072 230.787C-108.072 232.185-109.205 233.318-110.603 233.318-112 233.318-113.133 232.185-113.133 230.787-113.133 229.39-112 228.257-110.603 228.257-109.205 228.257-108.072 229.39-108.072 230.787Z" stroke="#000000" stroke-width="0.575082" fill="#007FFF" transform="matrix(6.13537e-17 -1 1.00198 6.12323e-17 64.2072 144)"/><path d="M-108.072 237.366C-108.072 238.764-109.205 239.896-110.603 239.896-112 239.896-113.133 238.764-113.133 237.366-113.133 235.969-112 234.836-110.603 234.836-109.205 234.836-108.072 235.969-108.072 237.366Z" stroke="#000000" stroke-width="0.575082" fill="#007FFF" transform="matrix(6.13537e-17 -1 1.00198 6.12323e-17 64.2072 144)"/><path d="M-108.072 243.945C-108.072 245.342-109.205 246.475-110.603 246.475-112 246.475-113.133 245.342-113.133 243.945-113.133 242.548-112 241.415-110.603 241.415-109.205 241.415-108.072 242.548-108.072 243.945Z" stroke="#000000" stroke-width="0.575082" fill="#007FFF" transform="matrix(6.13537e-17 -1 1.00198 6.12323e-17 64.2072 144)"/><path d="M108.015 227.302 113.19 227.302 113.19 247.43 108.015 247.43Z" stroke="#007FFF" stroke-width="0.575082" fill="#FFFFFF" transform="matrix(0 1 1.00198 0 64.2072 144)"/><path d="M-108.072 230.787C-108.072 232.185-109.205 233.318-110.603 233.318-112 233.318-113.133 232.185-113.133 230.787-113.133 229.39-112 228.257-110.603 228.257-109.205 228.257-108.072 229.39-108.072 230.787Z" stroke="#000000" stroke-width="0.575082" fill="#007FFF" transform="matrix(6.13537e-17 -1 1.00198 6.12323e-17 64.2072 144)"/><path d="M-108.072 237.366C-108.072 238.764-109.205 239.896-110.603 239.896-112 239.896-113.133 238.764-113.133 237.366-113.133 235.969-112 234.836-110.603 234.836-109.205 234.836-108.072 235.969-108.072 237.366Z" stroke="#000000" stroke-width="0.575082" fill="#007FFF" transform="matrix(6.13537e-17 -1 1.00198 6.12323e-17 64.2072 144)"/><path d="M-108.072 243.945C-108.072 245.342-109.205 246.475-110.603 246.475-112 246.475-113.133 245.342-113.133 243.945-113.133 242.548-112 241.415-110.603 241.415-109.205 241.415-108.072 242.548-108.072 243.945Z" stroke="#000000" stroke-width="0.575082" fill="#007FFF" transform="matrix(6.13537e-17 -1 1.00198 6.12323e-17 64.2072 144)"/><path d="M-113.19-217.066-108.015-217.066-108.015-196.938-113.19-196.938Z" stroke="#007FFF" stroke-width="0.575082" fill="#FFFFFF" transform="matrix(0 -1 -1.00198 0 64.2072 144)"/><path d="M-108.072 200.423C-108.072 201.82-109.205 202.953-110.603 202.953-112 202.953-113.133 201.82-113.133 200.423-113.133 199.025-112 197.893-110.603 197.893-109.205 197.893-108.072 199.025-108.072 200.423Z" stroke="#000000" stroke-width="0.575082" fill="#007FFF" transform="matrix(6.13537e-17 -1 1.00198 6.12323e-17 64.2072 144)"/><path d="M-108.072 207.002C-108.072 208.399-109.205 209.532-110.603 209.532-112 209.532-113.133 208.399-113.133 207.002-113.133 205.604-112 204.471-110.603 204.471-109.205 204.471-108.072 205.604-108.072 207.002Z" stroke="#000000" stroke-width="0.575082" fill="#007FFF" transform="matrix(6.13537e-17 -1 1.00198 6.12323e-17 64.2072 144)"/><path d="M-108.072 213.581C-108.072 214.978-109.205 216.111-110.603 216.111-112 216.111-113.133 214.978-113.133 213.581-113.133 212.183-112 211.05-110.603 211.05-109.205 211.05-108.072 212.183-108.072 213.581Z" stroke="#000000" stroke-width="0.575082" fill="#007FFF" transform="matrix(6.13537e-17 -1 1.00198 6.12323e-17 64.2072 144)"/><path d="M-109.084 207.002C-109.084 207.84-109.764 208.52-110.603 208.52-111.441 208.52-112.121 207.84-112.121 207.002-112.121 206.163-111.441 205.484-110.603 205.484-109.764 205.484-109.084 206.163-109.084 207.002Z" stroke="#007FFF" stroke-width="0.575082" fill="#FFFFFF" transform="matrix(6.13537e-17 -1 1.00198 6.12323e-17 64.2072 144)"/><path d="M-109.084 200.423C-109.084 201.261-109.764 201.941-110.603 201.941-111.441 201.941-112.121 201.261-112.121 200.423-112.121 199.584-111.441 198.905-110.603 198.905-109.764 198.905-109.084 199.584-109.084 200.423Z" stroke="#007FFF" stroke-width="0.575082" fill="#FFFFFF" transform="matrix(6.13537e-17 -1 1.00198 6.12323e-17 64.2072 144)"/><path d="M-109.084 213.581C-109.084 214.419-109.764 215.099-110.603 215.099-111.441 215.099-112.121 214.419-112.121 213.581-112.121 212.742-111.441 212.062-110.603 212.062-109.764 212.062-109.084 212.742-109.084 213.581Z" stroke="#007FFF" stroke-width="0.575082" fill="#FFFFFF" transform="matrix(6.13537e-17 -1 1.00198 6.12323e-17 64.2072 144)"/><path d="M-113.19-217.066-108.015-217.066-108.015-196.938-113.19-196.938Z" stroke="#007FFF" stroke-width="0.575082" fill="#FFFFFF" transform="matrix(0 -1 -1.00198 0 64.2072 144)"/><path d="M-108.072 200.423C-108.072 201.82-109.205 202.953-110.603 202.953-112 202.953-113.133 201.82-113.133 200.423-113.133 199.025-112 197.893-110.603 197.893-109.205 197.893-108.072 199.025-108.072 200.423Z" stroke="#000000" stroke-width="0.575082" fill="#007FFF" transform="matrix(6.13537e-17 -1 1.00198 6.12323e-17 64.2072 144)"/><path d="M-108.072 207.002C-108.072 208.399-109.205 209.532-110.603 209.532-112 209.532-113.133 208.399-113.133 207.002-113.133 205.604-112 204.471-110.603 204.471-109.205 204.471-108.072 205.604-108.072 207.002Z" stroke="#000000" stroke-width="0.575082" fill="#007FFF" transform="matrix(6.13537e-17 -1 1.00198 6.12323e-17 64.2072 144)"/><path d="M-108.072 213.581C-108.072 214.978-109.205 216.111-110.603 216.111-112 216.111-113.133 214.978-113.133 213.581-113.133 212.183-112 211.05-110.603 211.05-109.205 211.05-108.072 212.183-108.072 213.581Z" stroke="#000000" stroke-width="0.575082" fill="#007FFF" transform="matrix(6.13537e-17 -1 1.00198 6.12323e-17 64.2072 144)"/><path d="M-109.084 207.002C-109.084 207.84-109.764 208.52-110.603 208.52-111.441 208.52-112.121 207.84-112.121 207.002-112.121 206.163-111.441 205.484-110.603 205.484-109.764 205.484-109.084 206.163-109.084 207.002Z" stroke="#007FFF" stroke-width="0.575082" fill="#FFFFFF" transform="matrix(6.13537e-17 -1 1.00198 6.12323e-17 64.2072 144)"/><path d="M-109.084 200.423C-109.084 201.261-109.764 201.941-110.603 201.941-111.441 201.941-112.121 201.261-112.121 200.423-112.121 199.584-111.441 198.905-110.603 198.905-109.764 198.905-109.084 199.584-109.084 200.423Z" stroke="#007FFF" stroke-width="0.575082" fill="#FFFFFF" transform="matrix(6.13537e-17 -1 1.00198 6.12323e-17 64.2072 144)"/><path d="M-109.084 213.581C-109.084 214.419-109.764 215.099-110.603 215.099-111.441 215.099-112.121 214.419-112.121 213.581-112.121 212.742-111.441 212.062-110.603 212.062-109.764 212.062-109.084 212.742-109.084 213.581Z" stroke="#007FFF" stroke-width="0.575082" fill="#FFFFFF" transform="matrix(6.13537e-17 -1 1.00198 6.12323e-17 64.2072 144)"/><path d="M199.411 123.254C199.411 124.652 198.278 125.785 196.88 125.785 195.483 125.785 194.35 124.652 194.35 123.254 194.35 121.857 195.483 120.724 196.88 120.724 198.278 120.724 199.411 121.857 199.411 123.254Z" stroke="#007FFF" stroke-width="0.575082" fill="#007FFF" transform="matrix(1.00198 0 0 1 64.2072 144)"/><path d="M199.411 123.254C199.411 124.652 198.278 125.785 196.88 125.785 195.483 125.785 194.35 124.652 194.35 123.254 194.35 121.857 195.483 120.724 196.88 120.724 198.278 120.724 199.411 121.857 199.411 123.254Z" stroke="#000000" stroke-width="0.575082" fill="#007FFF" transform="matrix(1.00198 0 0 1 64.2072 144)"/><path d="M250.018 123.254C250.018 124.652 248.885 125.785 247.488 125.785 246.09 125.785 244.957 124.652 244.957 123.254 244.957 121.857 246.09 120.724 247.488 120.724 248.885 120.724 250.018 121.857 250.018 123.254Z" stroke="#007FFF" stroke-width="0.575082" fill="#007FFF" transform="matrix(1.00198 0 0 1 64.2072 144)"/><path d="M250.018 123.254C250.018 124.652 248.885 125.785 247.488 125.785 246.09 125.785 244.957 124.652 244.957 123.254 244.957 121.857 246.09 120.724 247.488 120.724 248.885 120.724 250.018 121.857 250.018 123.254Z" stroke="#000000" stroke-width="0.575082" fill="#007FFF" transform="matrix(1.00198 0 0 1 64.2072 144)"/><path d="M249.512 123.254C249.512 124.372 248.606 125.279 247.488 125.279 246.37 125.279 245.463 124.372 245.463 123.254 245.463 122.136 246.37 121.23 247.488 121.23 248.606 121.23 249.512 122.136 249.512 123.254Z" stroke="#007FFF" stroke-width="0.575082" fill="#FFFFFF" transform="matrix(1.00198 0 0 1 64.2072 144)"/><path d="M199.411 130.845C199.411 132.243 198.278 133.376 196.88 133.376 195.483 133.376 194.35 132.243 194.35 130.845 194.35 129.448 195.483 128.315 196.88 128.315 198.278 128.315 199.411 129.448 199.411 130.845Z" stroke="#007FFF" stroke-width="0.575082" fill="#007FFF" transform="matrix(1.00198 0 0 1 64.2072 144)"/><path d="M199.411 130.845C199.411 132.243 198.278 133.376 196.88 133.376 195.483 133.376 194.35 132.243 194.35 130.845 194.35 129.448 195.483 128.315 196.88 128.315 198.278 128.315 199.411 129.448 199.411 130.845Z" stroke="#000000" stroke-width="0.575082" fill="#007FFF" transform="matrix(1.00198 0 0 1 64.2072 144)"/><path d="M198.905 130.845C198.905 131.963 197.998 132.87 196.88 132.87 195.762 132.87 194.856 131.963 194.856 130.845 194.856 129.727 195.762 128.821 196.88 128.821 197.998 128.821 198.905 129.727 198.905 130.845Z" stroke="#007FFF" stroke-width="0.575082" fill="#FFFFFF" transform="matrix(1.00198 0 0 1 64.2072 144)"/><path d="M250.018 130.845C250.018 132.243 248.885 133.376 247.488 133.376 246.09 133.376 244.957 132.243 244.957 130.845 244.957 129.448 246.09 128.315 247.488 128.315 248.885 128.315 250.018 129.448 250.018 130.845Z" stroke="#007FFF" stroke-width="0.575082" fill="#007FFF" transform="matrix(1.00198 0 0 1 64.2072 144)"/><path d="M250.018 130.845C250.018 132.243 248.885 133.376 247.488 133.376 246.09 133.376 244.957 132.243 244.957 130.845 244.957 129.448 246.09 128.315 247.488 128.315 248.885 128.315 250.018 129.448 250.018 130.845Z" stroke="#000000" stroke-width="0.575082" fill="#007FFF" transform="matrix(1.00198 0 0 1 64.2072 144)"/><path d="M383.579 145.266 383.579 142.735 386.11 144Z" stroke="#00007F" stroke-width="0.575082" fill="#FFFFFF" transform="matrix(1.00198 0 0 1 -72.1544 119.459)"/><path d="M383.579 142.735 383.579 140.205 386.11 141.47Z" stroke="#00007F" stroke-width="0.575082" fill="#FFFFFF" transform="matrix(1.00198 0 0 1 -72.1544 119.459)"/><path d="M383.579 142.735 383.579 140.205 386.11 141.47Z" stroke="#00007F" stroke-width="0.575082" fill="#FFFFFF" transform="matrix(1.00198 0 0 1 -72.1544 119.459)"/><path d="M205.852 134.756 208.152 134.756 208.152 137.056 205.852 137.056Z" stroke="#BF0000" stroke-width="0.575082" fill="#BF0000" transform="matrix(1.00198 0 0 1 64.2072 144)"/><path d="M264.653 89.5977 264.653 84.537 269.713 87.0674Z" stroke="#00007F" stroke-width="0.575082" fill="#00007F" transform="matrix(1.00198 0 0 1 -72.1544 119.459)"/><path d="M155.129 85.299C155.129 85.9977 154.563 86.5642 153.864 86.5642 153.166 86.5642 152.599 85.9977 152.599 85.299 152.599 84.6002 153.166 84.0338 153.864 84.0338 154.563 84.0338 155.129 84.6002 155.129 85.299Z" stroke="#007FFF" stroke-width="0.575082" fill="#007FFF" transform="matrix(1.00198 0 0 1 64.2072 144)"/><path d="M155.129 85.299C155.129 85.9977 154.563 86.5642 153.864 86.5642 153.166 86.5642 152.599 85.9977 152.599 85.299 152.599 84.6002 153.166 84.0338 153.864 84.0338 154.563 84.0338 155.129 84.6002 155.129 85.299Z" stroke="#000000" stroke-width="0.575082" fill="#007FFF" transform="matrix(1.00198 0 0 1 64.2072 144)"/><path d="M139.947 85.299C139.947 85.9977 139.381 86.5642 138.682 86.5642 137.983 86.5642 137.417 85.9977 137.417 85.299 137.417 84.6002 137.983 84.0338 138.682 84.0338 139.381 84.0338 139.947 84.6002 139.947 85.299Z" stroke="#007FFF" stroke-width="0.575082" fill="#007FFF" transform="matrix(1.00198 0 0 1 64.2072 144)"/><path d="M139.947 85.299C139.947 85.9977 139.381 86.5642 138.682 86.5642 137.983 86.5642 137.417 85.9977 137.417 85.299 137.417 84.6002 137.983 84.0338 138.682 84.0338 139.381 84.0338 139.947 84.6002 139.947 85.299Z" stroke="#000000" stroke-width="0.575082" fill="#007FFF" transform="matrix(1.00198 0 0 1 64.2072 144)"/><path d="M139.694 85.299C139.694 85.858 139.241 86.3111 138.682 86.3111 138.123 86.3111 137.67 85.858 137.67 85.299 137.67 84.74 138.123 84.2868 138.682 84.2868 139.241 84.2868 139.694 84.74 139.694 85.299Z" stroke="#007FFF" stroke-width="0.575082" fill="#FFFFFF" transform="matrix(1.00198 0 0 1 64.2072 144)"/><path d="M264.653 99.7192 264.653 94.6584 269.713 97.1888Z" stroke="#00007F" stroke-width="0.575082" fill="#00007F" transform="matrix(1.00198 0 0 1 -72.1544 119.459)"/><path d="M181.335 46.2678 181.415 46.271 181.485 46.2754 181.546 46.2811 181.599 46.2881 181.642 46.2963 181.677 46.3058 181.703 46.3166 181.72 46.3286 181.72 46.3286 181.72 46.3286 181.732 46.3428 181.74 46.3602 181.747 46.3807 181.751 46.4045 181.752 46.4313 181.751 46.4614 181.747 46.4946 181.74 46.531 181.732 46.5706 181.72 46.6132 181.72 46.6132 181.72 46.6132 181.707 46.6556 181.695 46.6942 181.682 46.729 181.669 46.76 181.657 46.7872 181.644 46.8106 181.631 46.8302 181.619 46.846 181.606 46.8581 181.594 46.8663 181.594 46.8663 181.594 46.8663 181.577 46.8723 181.556 46.8777 181.527 46.8824 181.492 46.8865 181.451 46.89 181.404 46.8928 181.35 46.8951 181.29 46.8966 181.223 46.8976 181.151 46.8979 181.151 46.8979 181.151 46.8979 181.078 46.8976 181.012 46.8966 180.952 46.8951 180.898 46.8928 180.851 46.89 180.809 46.8865 180.774 46.8824 180.746 46.8777 180.724 46.8723 180.708 46.8663 180.708 46.8663 180.708 46.8663 180.695 46.8581 180.683 46.846 180.67 46.8302 180.657 46.8106 180.645 46.7872 180.632 46.76 180.619 46.729 180.607 46.6942 180.594 46.6556 180.581 46.6132 180.581 46.6132 180.581 46.6132 180.57 46.5706 180.561 46.531 180.555 46.4946 180.551 46.4614 180.55 46.4313 180.551 46.4045 180.555 46.3807 180.561 46.3602 180.57 46.3428 180.581 46.3286 180.581 46.3286 180.581 46.3286 180.599 46.3166 180.625 46.3058 180.659 46.2963 180.703 46.2881 180.755 46.2811 180.817 46.2754 180.887 46.271 180.966 46.2678 181.054 46.266 181.151 46.2653 181.247 46.266Z" stroke="#000000" stroke-width="0.575082" fill="#FFD788" transform="matrix(1.00198 0 0 1 -72.1544 119.459)"/><path d="M44.7108 21.9137C44.7108 21.9311 44.6966 21.9453 44.6791 21.9453 44.6617 21.9453 44.6475 21.9311 44.6475 21.9137 44.6475 21.8962 44.6617 21.882 44.6791 21.882 44.6966 21.882 44.7108 21.8962 44.7108 21.9137Z" stroke="#000000" stroke-width="0.575082" transform="matrix(1.00198 0 0 1 64.2072 144)"/><path d="M45.0903 21.9137C45.0903 21.9311 45.0761 21.9453 45.0587 21.9453 45.0412 21.9453 45.0271 21.9311 45.0271 21.9137 45.0271 21.8962 45.0412 21.882 45.0587 21.882 45.0761 21.882 45.0903 21.8962 45.0903 21.9137Z" stroke="#000000" stroke-width="0.575082" transform="matrix(1.00198 0 0 1 64.2072 144)"/><path d="M45.4699 21.9137C45.4699 21.9311 45.4557 21.9453 45.4382 21.9453 45.4208 21.9453 45.4066 21.9311 45.4066 21.9137 45.4066 21.8962 45.4208 21.882 45.4382 21.882 45.4557 21.882 45.4699 21.8962 45.4699 21.9137Z" stroke="#000000" stroke-width="0.575082" transform="matrix(1.00198 0 0 1 64.2072 144)"/><path d="M44.9005 22.1667C44.9005 22.1842 44.8864 22.1983 44.8689 22.1983 44.8514 22.1983 44.8373 22.1842 44.8373 22.1667 44.8373 22.1492 44.8514 22.1351 44.8689 22.1351 44.8864 22.1351 44.9005 22.1492 44.9005 22.1667Z" stroke="#000000" stroke-width="0.575082" transform="matrix(1.00198 0 0 1 64.2072 144)"/><path d="M45.2801 22.1667C45.2801 22.1842 45.2659 22.1983 45.2485 22.1983 45.231 22.1983 45.2168 22.1842 45.2168 22.1667 45.2168 22.1492 45.231 22.1351 45.2485 22.1351 45.2659 22.1351 45.2801 22.1492 45.2801 22.1667Z" stroke="#000000" stroke-width="0.575082" transform="matrix(1.00198 0 0 1 64.2072 144)"/><path d="M208.301 43.444 209.092 43.4756 209.794 43.5199 210.408 43.5768 210.933 43.6464 211.37 43.7286 211.717 43.8235 211.977 43.9311 212.148 44.0513 212.148 44.0513 212.148 44.0513 212.261 44.1936 212.35 44.3675 212.413 44.5731 212.451 44.8104 212.464 45.0792 212.451 45.3797 212.413 45.7118 212.35 46.0755 212.261 46.4709 212.148 46.8979 212.148 46.8979 212.148 46.8979 212.021 47.3217 211.895 47.7076 211.768 48.0555 211.642 48.3655 211.515 48.6375 211.389 48.8716 211.262 49.0677 211.135 49.2258 211.009 49.346 210.882 49.4283 210.882 49.4283 210.882 49.4283 210.724 49.4884 210.503 49.5421 210.218 49.5896 209.87 49.6307 209.459 49.6655 208.985 49.694 208.447 49.7161 207.846 49.7319 207.182 49.7414 206.454 49.7446 206.454 49.7446 206.454 49.7446 205.727 49.7414 205.063 49.7319 204.462 49.7161 203.924 49.694 203.45 49.6655 203.038 49.6307 202.69 49.5896 202.406 49.5421 202.184 49.4884 202.026 49.4283 202.026 49.4283 202.026 49.4283 201.9 49.346 201.773 49.2258 201.647 49.0677 201.52 48.8716 201.394 48.6375 201.267 48.3655 201.141 48.0555 201.014 47.7076 200.888 47.3217 200.761 46.8979 200.761 46.8979 200.761 46.8979 200.647 46.4709 200.559 46.0755 200.495 45.7118 200.457 45.3797 200.445 45.0792 200.457 44.8104 200.495 44.5731 200.559 44.3675 200.647 44.1936 200.761 44.0513 200.761 44.0513 200.761 44.0513 200.932 43.9311 201.191 43.8235 201.539 43.7286 201.976 43.6464 202.501 43.5768 203.114 43.5199 203.816 43.4756 204.607 43.444 205.486 43.425 206.454 43.4187 207.422 43.425Z" stroke="#000000" stroke-width="0.575082" fill="#FFCC33" transform="matrix(1.00198 0 0 1 -72.1544 119.459)"/><path d="M66.8831 20.775C66.8831 20.9497 66.7415 21.0913 66.5668 21.0913 66.3922 21.0913 66.2506 20.9497 66.2506 20.775 66.2506 20.6003 66.3922 20.4587 66.5668 20.4587 66.7415 20.4587 66.8831 20.6003 66.8831 20.775Z" stroke="#000000" stroke-width="0.575082" transform="matrix(1.00198 0 0 1 64.2072 144)"/><path d="M70.6787 20.775C70.6787 20.9497 70.5371 21.0913 70.3624 21.0913 70.1877 21.0913 70.0461 20.9497 70.0461 20.775 70.0461 20.6003 70.1877 20.4587 70.3624 20.4587 70.5371 20.4587 70.6787 20.6003 70.6787 20.775Z" stroke="#000000" stroke-width="0.575082" transform="matrix(1.00198 0 0 1 64.2072 144)"/><path d="M74.4742 20.775C74.4742 20.9497 74.3326 21.0913 74.1579 21.0913 73.9832 21.0913 73.8416 20.9497 73.8416 20.775 73.8416 20.6003 73.9832 20.4587 74.1579 20.4587 74.3326 20.4587 74.4742 20.6003 74.4742 20.775Z" stroke="#000000" stroke-width="0.575082" transform="matrix(1.00198 0 0 1 64.2072 144)"/><path d="M68.7809 23.3054C68.7809 23.48 68.6393 23.6217 68.4646 23.6217 68.2899 23.6217 68.1483 23.48 68.1483 23.3054 68.1483 23.1307 68.2899 22.9891 68.4646 22.9891 68.6393 22.9891 68.7809 23.1307 68.7809 23.3054Z" stroke="#000000" stroke-width="0.575082" transform="matrix(1.00198 0 0 1 64.2072 144)"/><path d="M72.5765 23.3054C72.5765 23.48 72.4348 23.6217 72.2602 23.6217 72.0855 23.6217 71.9439 23.48 71.9439 23.3054 71.9439 23.1307 72.0855 22.9891 72.2602 22.9891 72.4348 22.9891 72.5765 23.1307 72.5765 23.3054Z" stroke="#000000" stroke-width="0.575082" transform="matrix(1.00198 0 0 1 64.2072 144)"/><text font-family="Arial,Arial_MSFontService,sans-serif" font-weight="400" font-size="10" transform="matrix(0.576222 0 0 0.575082 124.337 159)">weaBus</text><path d="M-258.874-72.6472C-258.874-71.9484-259.441-71.382-260.139-71.382-260.838-71.382-261.405-71.9484-261.405-72.6472-261.405-73.3459-260.838-73.9124-260.139-73.9124-259.441-73.9124-258.874-73.3459-258.874-72.6472Z" stroke="#007FFF" stroke-width="0.575082" fill="#007FFF" transform="matrix(-1.00198 0 0 -1 64.2072 144)"/><path d="M-258.874-72.6472C-258.874-71.9484-259.441-71.382-260.139-71.382-260.838-71.382-261.405-71.9484-261.405-72.6472-261.405-73.3459-260.838-73.9124-260.139-73.9124-259.441-73.9124-258.874-73.3459-258.874-72.6472Z" stroke="#000000" stroke-width="0.575082" fill="#007FFF" transform="matrix(-1.00198 0 0 -1 64.2072 144)"/><path d="M-258.874-80.2383C-258.874-79.5395-259.441-78.9731-260.139-78.9731-260.838-78.9731-261.405-79.5395-261.405-80.2383-261.405-80.937-260.838-81.5034-260.139-81.5034-259.441-81.5034-258.874-80.937-258.874-80.2383Z" stroke="#007FFF" stroke-width="0.575082" fill="#007FFF" transform="matrix(-1.00198 0 0 -1 64.2072 144)"/><path d="M-258.874-80.2383C-258.874-79.5395-259.441-78.9731-260.139-78.9731-260.838-78.9731-261.405-79.5395-261.405-80.2383-261.405-80.937-260.838-81.5034-260.139-81.5034-259.441-81.5034-258.874-80.937-258.874-80.2383Z" stroke="#000000" stroke-width="0.575082" fill="#007FFF" transform="matrix(-1.00198 0 0 -1 64.2072 144)"/><path d="M-259.127-80.2383C-259.127-79.6793-259.58-79.2261-260.139-79.2261-260.698-79.2261-261.151-79.6793-261.151-80.2383-261.151-80.7972-260.698-81.2504-260.139-81.2504-259.58-81.2504-259.127-80.7972-259.127-80.2383Z" stroke="#007FFF" stroke-width="0.575082" fill="#FFFFFF" transform="matrix(-1.00198 0 0 -1 64.2072 144)"/><path d="M-258.874-72.6472C-258.874-71.9484-259.441-71.382-260.139-71.382-260.838-71.382-261.405-71.9484-261.405-72.6472-261.405-73.3459-260.838-73.9124-260.139-73.9124-259.441-73.9124-258.874-73.3459-258.874-72.6472Z" stroke="#007FFF" stroke-width="0.575082" fill="#007FFF" transform="matrix(-1.00198 0 0 -1 64.2072 144)"/><path d="M-258.874-72.6472C-258.874-71.9484-259.441-71.382-260.139-71.382-260.838-71.382-261.405-71.9484-261.405-72.6472-261.405-73.3459-260.838-73.9124-260.139-73.9124-259.441-73.9124-258.874-73.3459-258.874-72.6472Z" stroke="#000000" stroke-width="0.575082" fill="#007FFF" transform="matrix(-1.00198 0 0 -1 64.2072 144)"/><path d="M-258.874-80.2383C-258.874-79.5395-259.441-78.9731-260.139-78.9731-260.838-78.9731-261.405-79.5395-261.405-80.2383-261.405-80.937-260.838-81.5034-260.139-81.5034-259.441-81.5034-258.874-80.937-258.874-80.2383Z" stroke="#007FFF" stroke-width="0.575082" fill="#007FFF" transform="matrix(-1.00198 0 0 -1 64.2072 144)"/><path d="M-258.874-80.2383C-258.874-79.5395-259.441-78.9731-260.139-78.9731-260.838-78.9731-261.405-79.5395-261.405-80.2383-261.405-80.937-260.838-81.5034-260.139-81.5034-259.441-81.5034-258.874-80.937-258.874-80.2383Z" stroke="#000000" stroke-width="0.575082" fill="#007FFF" transform="matrix(-1.00198 0 0 -1 64.2072 144)"/><path d="M-259.127-80.2383C-259.127-79.6793-259.58-79.2261-260.139-79.2261-260.698-79.2261-261.151-79.6793-261.151-80.2383-261.151-80.7972-260.698-81.2504-260.139-81.2504-259.58-81.2504-259.127-80.7972-259.127-80.2383Z" stroke="#007FFF" stroke-width="0.575082" fill="#FFFFFF" transform="matrix(-1.00198 0 0 -1 64.2072 144)"/><path d="M266.971 116.928C266.971 120.352 266.178 123.128 265.2 123.128 264.222 123.128 263.429 120.352 263.429 116.928 263.429 113.505 264.222 110.729 265.2 110.729 266.178 110.729 266.971 113.505 266.971 116.928Z" stroke="#00007F" stroke-width="0.575082" fill="#00007F" transform="matrix(1.00198 0 0 1 64.2072 144)"/><path d="M266.971 116.928C266.971 120.352 266.178 123.128 265.2 123.128 264.222 123.128 263.429 120.352 263.429 116.928 263.429 113.505 264.222 110.729 265.2 110.729 266.178 110.729 266.971 113.505 266.971 116.928Z" stroke="#00007F" stroke-width="0.575082" fill="#00007F" transform="matrix(1.00198 0 0 1 64.2072 144)"/><path d="M419.004 142.976 419.004 139.965 422.016 141.47Z" stroke="#00007F" stroke-width="0.575082" fill="#FFFFFF" transform="matrix(1.00198 0 0 1 -72.1544 119.459)"/><path d="M181.151 90.8629 181.151 88.3325 183.681 89.5977Z" stroke="#00007F" stroke-width="0.575082" fill="#FFFFFF" transform="matrix(1.00198 0 0 1 -72.1544 119.459)"/><path d="M201.394 92.1281 201.394 87.0674 206.454 89.5977Z" stroke="#00007F" stroke-width="0.575082" fill="#00007F" transform="matrix(1.00198 0 0 1 -72.1544 119.459)"/><path d="M201.394 107.31 201.394 102.25 206.454 104.78Z" stroke="#00007F" stroke-width="0.575082" fill="#00007F" transform="matrix(1.00198 0 0 1 -72.1544 119.459)"/><path d="M231.758 98.454 231.758 95.9236 234.288 97.1888Z" stroke="#00007F" stroke-width="0.575082" fill="#FFFFFF" transform="matrix(1.00198 0 0 1 -72.1544 119.459)"/><path d="M183.681 212.32 183.681 209.79 186.211 211.055Z" stroke="#00007F" stroke-width="0.575082" fill="#FFFFFF" transform="matrix(1.00198 0 0 1 -72.1544 119.459)"/><path d="M107.168-187.664 109.468-187.664 109.468-185.363 107.168-185.363Z" stroke="#BF0000" stroke-width="0.575082" fill="#FFFFFF" transform="matrix(1.00198 0 0 -1 64.2072 144)"/><path d="M214.045 213.585 214.045 208.525 219.106 211.055Z" stroke="#00007F" stroke-width="0.575082" fill="#00007F" transform="matrix(1.00198 0 0 1 -72.1544 119.459)"/><text font-family="Times New Roman,Times New Roman_MSFontService,sans-serif" font-weight="400" font-size="15" transform="matrix(0.576222 0 0 0.575082 189.738 200)">Central Plant</text><text font-family="Times New Roman,Times New Roman_MSFontService,sans-serif" font-weight="400" font-size="15" transform="matrix(0.576222 0 0 0.575082 301.095 199)">Buildings with ETS</text><text font-family="Times New Roman,Times New Roman_MSFontService,sans-serif" font-weight="400" font-size="15" transform="matrix(0.576222 0 0 0.575082 273.871 288)">Distribution Network</text><text font-family="Times New Roman,Times New Roman_MSFontService,sans-serif" font-weight="400" font-size="15" transform="matrix(0.576222 0 0 0.575082 73.8218 151)">Weather Data</text><text font-family="Times New Roman,Times New Roman_MSFontService,sans-serif" font-weight="400" font-size="15" transform="matrix(0.576222 0 0 0.575082 63.9677 312)">Ground Temperature</text></g></svg>