<svg width="1807" height="1241" xmlns="http://www.w3.org/2000/svg" xmlns:xlink="http://www.w3.org/1999/xlink" xml:space="preserve" overflow="hidden"><g transform="translate(-2214 -818)"><path d="M0 1239.7 1806.57 1239.7 1806.57 0 0 0Z" fill="#FFFFFF" transform="matrix(1.00024 0 0 1 2214 818.648)"/><path d="M212.164 1054.98 1724.44 1054.98 1724.44 171.036 212.164 171.036Z" fill="#FFFFFF" transform="matrix(1.00024 0 0 1 2214 818.648)"/><path d="M0 0 0-18.9712" stroke="#000000" stroke-width="4.33628" stroke-linejoin="round" fill="none" transform="matrix(1.00024 0 0 1 2527.06 1873.63)"/><path d="M6.72462 4.4972 15.4565 4.4972 15.4565 34.6479 5.95392 32.7423 5.95392 37.6122 15.4057 39.5177 20.7498 39.5177 20.7498 4.4972 29.4816 4.4972 29.4816 0 6.72462 0 6.72462 4.4972Z" transform="matrix(1.00024 0 0 -1 2483.95 1933.79)"/><path d="M5.793 6.72462 11.3827 6.72462 11.3827 0 5.793 0 5.793 6.72462Z" transform="matrix(1.00024 0 0 -1 2518.44 1933.79)"/><path d="M17.2266 35.9945C14.4768 35.9945 12.4075 34.6394 11.0186 31.9293 9.63527 29.2248 8.94358 25.1538 8.94358 19.7165 8.94358 14.3019 9.63527 10.2394 11.0186 7.52921 12.4075 4.81903 14.4768 3.46394 17.2266 3.46394 19.9988 3.46394 22.0767 4.81903 23.46 7.52921 24.8489 10.2394 25.5434 14.3019 25.5434 19.7165 25.5434 25.1538 24.8489 29.2248 23.46 31.9293 22.0767 34.6394 19.9988 35.9945 17.2266 35.9945ZM17.2266 40.2292C21.6588 40.2292 25.0437 38.476 27.3812 34.9697 29.7188 31.4691 30.8875 26.3847 30.8875 19.7165 30.8875 13.0653 29.7188 7.98655 27.3812 4.48026 25.0437 0.979618 21.6588-0.770706 17.2266-0.770706 12.7999-0.770706 9.41786 0.979618 7.08033 4.48026 4.74281 7.98655 3.57404 13.0653 3.57404 19.7165 3.57404 26.3847 4.74281 31.4691 7.08033 34.9697 9.41786 38.476 12.7999 40.2292 17.2266 40.2292Z" transform="matrix(1.00024 0 0 -1 2535.67 1933.79)"/><path d="M0 0 0-18.9712" stroke="#000000" stroke-width="4.33628" stroke-linejoin="round" fill="none" transform="matrix(1.00024 0 0 1 2728.74 1873.63)"/><path d="M6.72462 4.4972 15.4565 4.4972 15.4565 34.6479 5.95392 32.7423 5.95392 37.6122 15.4057 39.5177 20.7498 39.5177 20.7498 4.4972 29.4816 4.4972 29.4816 0 6.72462 0 6.72462 4.4972Z" transform="matrix(1.00024 0 0 -1 2685.63 1933.79)"/><path d="M5.793 6.72462 11.3827 6.72462 11.3827 0 5.793 0 5.793 6.72462Z" transform="matrix(1.00024 0 0 -1 2720.13 1933.79)"/><path d="M10.4003 4.4972 29.0582 4.4972 29.0582 0 3.9721 0 3.9721 4.4972C5.99908 6.59758 8.76293 9.41507 12.2635 12.9496 15.7698 16.4897 17.9719 18.7736 18.8696 19.8012 20.5804 21.721 21.7746 23.3471 22.4521 24.6795 23.1353 26.012 23.4769 27.322 23.4769 28.6093 23.4769 30.7097 22.7401 32.4205 21.2664 33.7417 19.7928 35.0686 17.873 35.732 15.5073 35.732 13.8304 35.732 12.0603 35.4412 10.197 34.8596 8.33944 34.278 6.35197 33.3944 4.23465 32.2087L4.23465 37.6122C6.38585 38.476 8.3959 39.1282 10.2648 39.5686 12.1393 40.009 13.853 40.2292 15.4057 40.2292 19.4991 40.2292 22.7627 39.2044 25.1962 37.1548 27.6296 35.1109 28.8464 32.3781 28.8464 28.9565 28.8464 27.3304 28.5415 25.789 27.9317 24.3323 27.3276 22.8812 26.2209 21.1676 24.6118 19.1914 24.1714 18.6776 22.7683 17.1984 20.4025 14.7535 18.0424 12.3087 14.7084 8.88997 10.4003 4.4972Z" transform="matrix(1.00024 0 0 -1 2737.36 1933.79)"/><path d="M0 0 0-18.9712" stroke="#000000" stroke-width="4.33628" stroke-linejoin="round" fill="none" transform="matrix(1.00024 0 0 1 2930.43 1873.63)"/><path d="M6.72462 4.4972 15.4565 4.4972 15.4565 34.6479 5.95392 32.7423 5.95392 37.6122 15.4057 39.5177 20.7498 39.5177 20.7498 4.4972 29.4816 4.4972 29.4816 0 6.72462 0 6.72462 4.4972Z" transform="matrix(1.00024 0 0 -1 2887.32 1933.79)"/><path d="M5.793 6.72462 11.3827 6.72462 11.3827 0 5.793 0 5.793 6.72462Z" transform="matrix(1.00024 0 0 -1 2921.81 1933.79)"/><path d="M20.4872 34.8596 6.98717 13.7626 20.4872 13.7626 20.4872 34.8596ZM19.0813 39.5177 25.806 39.5177 25.806 13.7626 31.4465 13.7626 31.4465 9.31623 25.806 9.31623 25.806 0 20.4872 0 20.4872 9.31623 2.65089 9.31623 2.65089 14.474 19.0813 39.5177Z" transform="matrix(1.00024 0 0 -1 2939.05 1933.79)"/><path d="M0 0 0-18.9712" stroke="#000000" stroke-width="4.33628" stroke-linejoin="round" fill="none" transform="matrix(1.00024 0 0 1 3132.11 1873.63)"/><path d="M6.72462 4.4972 15.4565 4.4972 15.4565 34.6479 5.95392 32.7423 5.95392 37.6122 15.4057 39.5177 20.7498 39.5177 20.7498 4.4972 29.4816 4.4972 29.4816 0 6.72462 0 6.72462 4.4972Z" transform="matrix(1.00024 0 0 -1 3089 1933.79)"/><path d="M5.793 6.72462 11.3827 6.72462 11.3827 0 5.793 0 5.793 6.72462Z" transform="matrix(1.00024 0 0 -1 3123.5 1933.79)"/><path d="M17.8956 21.8847C15.496 21.8847 13.5932 21.0631 12.1873 19.4201 10.7871 17.7827 10.0869 15.5355 10.0869 12.6785 10.0869 9.83853 10.7871 7.59131 12.1873 5.93698 13.5932 4.28829 15.496 3.46394 17.8956 3.46394 20.2952 3.46394 22.1952 4.28829 23.5955 5.93698 24.9957 7.59131 25.6959 9.83853 25.6959 12.6785 25.6959 15.5355 24.9957 17.7827 23.5955 19.4201 22.1952 21.0631 20.2952 21.8847 17.8956 21.8847ZM28.5077 38.6454 28.5077 33.7756C27.1638 34.408 25.8087 34.8907 24.4424 35.2238 23.076 35.5626 21.721 35.732 20.3771 35.732 16.8482 35.732 14.1522 34.5406 12.289 32.1579 10.4314 29.7753 9.36984 26.1758 9.1045 21.3596 10.1434 22.8953 11.4477 24.0725 13.0173 24.8913 14.5926 25.71 16.3231 26.1193 18.209 26.1193 22.1783 26.1193 25.3147 24.9139 27.6184 22.5029 29.922 20.0976 31.0739 16.8228 31.0739 12.6785 31.0739 8.61895 29.874 5.36107 27.4744 2.90497 25.0748 0.454519 21.8819-0.770706 17.8956-0.770706 13.3222-0.770706 9.82718 0.979618 7.41064 4.48026 4.99407 7.98655 3.78578 13.0653 3.78578 19.7165 3.78578 25.9612 5.2679 30.9411 8.23216 34.6564 11.1964 38.3716 15.1742 40.2292 20.1654 40.2292 21.5092 40.2292 22.8643 40.0965 24.2307 39.8311 25.597 39.5658 27.0227 39.1705 28.5077 38.6454Z" transform="matrix(1.00024 0 0 -1 3140.73 1933.79)"/><path d="M0 0 0-18.9712" stroke="#000000" stroke-width="4.33628" stroke-linejoin="round" fill="none" transform="matrix(1.00024 0 0 1 3333.8 1873.63)"/><path d="M6.72462 4.4972 15.4565 4.4972 15.4565 34.6479 5.95392 32.7423 5.95392 37.6122 15.4057 39.5177 20.7498 39.5177 20.7498 4.4972 29.4816 4.4972 29.4816 0 6.72462 0 6.72462 4.4972Z" transform="matrix(1.00024 0 0 -1 3290.69 1933.79)"/><path d="M5.793 6.72462 11.3827 6.72462 11.3827 0 5.793 0 5.793 6.72462Z" transform="matrix(1.00024 0 0 -1 3325.18 1933.79)"/><path d="M17.2266 18.768C14.6858 18.768 12.687 18.0876 11.2303 16.7269 9.77925 15.3661 9.05368 13.4973 9.05368 11.1202 9.05368 8.73752 9.77925 6.86578 11.2303 5.50504 12.687 4.14431 14.6858 3.46394 17.2266 3.46394 19.7673 3.46394 21.7689 4.14714 23.2313 5.51351 24.6993 6.88554 25.4333 8.75446 25.4333 11.1202 25.4333 13.4973 24.7049 15.3661 23.2482 16.7269 21.7972 18.0876 19.79 18.768 17.2266 18.768ZM11.8824 21.0377C9.59004 21.6024 7.80304 22.6695 6.52136 24.2391 5.24532 25.8144 4.6073 27.7313 4.6073 29.9898 4.6073 33.146 5.73089 35.6416 7.97808 37.4766 10.2309 39.3117 13.3137 40.2292 17.2266 40.2292 21.162 40.2292 24.2504 39.3117 26.492 37.4766 28.7335 35.6416 29.8543 33.146 29.8543 29.9898 29.8543 27.7313 29.2134 25.8144 27.9317 24.2391 26.6557 22.6695 24.88 21.6024 22.6046 21.0377 25.1792 20.4392 27.1837 19.2649 28.6178 17.5145 30.0575 15.7698 30.7774 13.6384 30.7774 11.1202 30.7774 7.28642 29.6087 4.34475 27.2711 2.29518 24.9336 0.251256 21.5854-0.770706 17.2266-0.770706 12.8733-0.770706 9.52517 0.251256 7.18196 2.29518 4.84444 4.34475 3.67568 7.28642 3.67568 11.1202 3.67568 13.6384 4.39839 15.7698 5.84382 17.5145 7.29489 19.2649 9.30776 20.4392 11.8824 21.0377ZM9.92602 29.4816C9.92602 27.4377 10.564 25.8426 11.8401 24.6965 13.1217 23.5503 14.9172 22.9772 17.2266 22.9772 19.5245 22.9772 21.32 23.5503 22.613 24.6965 23.9116 25.8426 24.561 27.4377 24.561 29.4816 24.561 31.5312 23.9116 33.1291 22.613 34.2752 21.32 35.4214 19.5245 35.9945 17.2266 35.9945 14.9172 35.9945 13.1217 35.4214 11.8401 34.2752 10.564 33.1291 9.92602 31.5312 9.92602 29.4816Z" transform="matrix(1.00024 0 0 -1 3342.42 1933.79)"/><path d="M0 0 0-18.9712" stroke="#000000" stroke-width="4.33628" stroke-linejoin="round" fill="none" transform="matrix(1.00024 0 0 1 3535.48 1873.63)"/><path d="M10.4003 4.4972 29.0582 4.4972 29.0582 0 3.9721 0 3.9721 4.4972C5.99908 6.59758 8.76293 9.41507 12.2635 12.9496 15.7698 16.4897 17.9719 18.7736 18.8696 19.8012 20.5804 21.721 21.7746 23.3471 22.4521 24.6795 23.1353 26.012 23.4769 27.322 23.4769 28.6093 23.4769 30.7097 22.7401 32.4205 21.2664 33.7417 19.7928 35.0686 17.873 35.732 15.5073 35.732 13.8304 35.732 12.0603 35.4412 10.197 34.8596 8.33944 34.278 6.35197 33.3944 4.23465 32.2087L4.23465 37.6122C6.38585 38.476 8.3959 39.1282 10.2648 39.5686 12.1393 40.009 13.853 40.2292 15.4057 40.2292 19.4991 40.2292 22.7627 39.2044 25.1962 37.1548 27.6296 35.1109 28.8464 32.3781 28.8464 28.9565 28.8464 27.3304 28.5415 25.789 27.9317 24.3323 27.3276 22.8812 26.2209 21.1676 24.6118 19.1914 24.1714 18.6776 22.7683 17.1984 20.4025 14.7535 18.0424 12.3087 14.7084 8.88997 10.4003 4.4972Z" transform="matrix(1.00024 0 0 -1 3492.37 1933.79)"/><path d="M5.793 6.72462 11.3827 6.72462 11.3827 0 5.793 0 5.793 6.72462Z" transform="matrix(1.00024 0 0 -1 3526.87 1933.79)"/><path d="M17.2266 35.9945C14.4768 35.9945 12.4075 34.6394 11.0186 31.9293 9.63527 29.2248 8.94358 25.1538 8.94358 19.7165 8.94358 14.3019 9.63527 10.2394 11.0186 7.52921 12.4075 4.81903 14.4768 3.46394 17.2266 3.46394 19.9988 3.46394 22.0767 4.81903 23.46 7.52921 24.8489 10.2394 25.5434 14.3019 25.5434 19.7165 25.5434 25.1538 24.8489 29.2248 23.46 31.9293 22.0767 34.6394 19.9988 35.9945 17.2266 35.9945ZM17.2266 40.2292C21.6588 40.2292 25.0437 38.476 27.3812 34.9697 29.7188 31.4691 30.8875 26.3847 30.8875 19.7165 30.8875 13.0653 29.7188 7.98655 27.3812 4.48026 25.0437 0.979618 21.6588-0.770706 17.2266-0.770706 12.7999-0.770706 9.41786 0.979618 7.08033 4.48026 4.74281 7.98655 3.57404 13.0653 3.57404 19.7165 3.57404 26.3847 4.74281 31.4691 7.08033 34.9697 9.41786 38.476 12.7999 40.2292 17.2266 40.2292Z" transform="matrix(1.00024 0 0 -1 3544.1 1933.79)"/><path d="M0 0 0-18.9712" stroke="#000000" stroke-width="4.33628" stroke-linejoin="round" fill="none" transform="matrix(1.00024 0 0 1 3737.17 1873.63)"/><path d="M10.4003 4.4972 29.0582 4.4972 29.0582 0 3.9721 0 3.9721 4.4972C5.99908 6.59758 8.76293 9.41507 12.2635 12.9496 15.7698 16.4897 17.9719 18.7736 18.8696 19.8012 20.5804 21.721 21.7746 23.3471 22.4521 24.6795 23.1353 26.012 23.4769 27.322 23.4769 28.6093 23.4769 30.7097 22.7401 32.4205 21.2664 33.7417 19.7928 35.0686 17.873 35.732 15.5073 35.732 13.8304 35.732 12.0603 35.4412 10.197 34.8596 8.33944 34.278 6.35197 33.3944 4.23465 32.2087L4.23465 37.6122C6.38585 38.476 8.3959 39.1282 10.2648 39.5686 12.1393 40.009 13.853 40.2292 15.4057 40.2292 19.4991 40.2292 22.7627 39.2044 25.1962 37.1548 27.6296 35.1109 28.8464 32.3781 28.8464 28.9565 28.8464 27.3304 28.5415 25.789 27.9317 24.3323 27.3276 22.8812 26.2209 21.1676 24.6118 19.1914 24.1714 18.6776 22.7683 17.1984 20.4025 14.7535 18.0424 12.3087 14.7084 8.88997 10.4003 4.4972Z" transform="matrix(1.00024 0 0 -1 3694.06 1933.79)"/><path d="M5.793 6.72462 11.3827 6.72462 11.3827 0 5.793 0 5.793 6.72462Z" transform="matrix(1.00024 0 0 -1 3728.55 1933.79)"/><path d="M10.4003 4.4972 29.0582 4.4972 29.0582 0 3.9721 0 3.9721 4.4972C5.99908 6.59758 8.76293 9.41507 12.2635 12.9496 15.7698 16.4897 17.9719 18.7736 18.8696 19.8012 20.5804 21.721 21.7746 23.3471 22.4521 24.6795 23.1353 26.012 23.4769 27.322 23.4769 28.6093 23.4769 30.7097 22.7401 32.4205 21.2664 33.7417 19.7928 35.0686 17.873 35.732 15.5073 35.732 13.8304 35.732 12.0603 35.4412 10.197 34.8596 8.33944 34.278 6.35197 33.3944 4.23465 32.2087L4.23465 37.6122C6.38585 38.476 8.3959 39.1282 10.2648 39.5686 12.1393 40.009 13.853 40.2292 15.4057 40.2292 19.4991 40.2292 22.7627 39.2044 25.1962 37.1548 27.6296 35.1109 28.8464 32.3781 28.8464 28.9565 28.8464 27.3304 28.5415 25.789 27.9317 24.3323 27.3276 22.8812 26.2209 21.1676 24.6118 19.1914 24.1714 18.6776 22.7683 17.1984 20.4025 14.7535 18.0424 12.3087 14.7084 8.88997 10.4003 4.4972Z" transform="matrix(1.00024 0 0 -1 3745.79 1933.79)"/><path d="M0 0 0-18.9712" stroke="#000000" stroke-width="4.33628" stroke-linejoin="round" fill="none" transform="matrix(1.00024 0 0 1 3938.85 1873.63)"/><path d="M10.4003 4.4972 29.0582 4.4972 29.0582 0 3.9721 0 3.9721 4.4972C5.99908 6.59758 8.76293 9.41507 12.2635 12.9496 15.7698 16.4897 17.9719 18.7736 18.8696 19.8012 20.5804 21.721 21.7746 23.3471 22.4521 24.6795 23.1353 26.012 23.4769 27.322 23.4769 28.6093 23.4769 30.7097 22.7401 32.4205 21.2664 33.7417 19.7928 35.0686 17.873 35.732 15.5073 35.732 13.8304 35.732 12.0603 35.4412 10.197 34.8596 8.33944 34.278 6.35197 33.3944 4.23465 32.2087L4.23465 37.6122C6.38585 38.476 8.3959 39.1282 10.2648 39.5686 12.1393 40.009 13.853 40.2292 15.4057 40.2292 19.4991 40.2292 22.7627 39.2044 25.1962 37.1548 27.6296 35.1109 28.8464 32.3781 28.8464 28.9565 28.8464 27.3304 28.5415 25.789 27.9317 24.3323 27.3276 22.8812 26.2209 21.1676 24.6118 19.1914 24.1714 18.6776 22.7683 17.1984 20.4025 14.7535 18.0424 12.3087 14.7084 8.88997 10.4003 4.4972Z" transform="matrix(1.00024 0 0 -1 3895.74 1933.79)"/><path d="M5.793 6.72462 11.3827 6.72462 11.3827 0 5.793 0 5.793 6.72462Z" transform="matrix(1.00024 0 0 -1 3930.24 1933.79)"/><path d="M20.4872 34.8596 6.98717 13.7626 20.4872 13.7626 20.4872 34.8596ZM19.0813 39.5177 25.806 39.5177 25.806 13.7626 31.4465 13.7626 31.4465 9.31623 25.806 9.31623 25.806 0 20.4872 0 20.4872 9.31623 2.65089 9.31623 2.65089 14.474 19.0813 39.5177Z" transform="matrix(1.00024 0 0 -1 3947.47 1933.79)"/><path d="M5.10699 41.1862 9.97683 41.1862 9.97683 0 5.10699 0 5.10699 41.1862Z" transform="matrix(1.00024 0 0 -1 2818.47 2007.93)"/><path d="M16.5914 26.2294C13.9828 26.2294 11.9191 25.2103 10.4003 23.172 8.8815 21.1337 8.12206 18.3417 8.12206 14.7959 8.12206 11.25 8.87582 8.45801 10.3834 6.41973 11.8966 4.38145 13.9659 3.36231 16.5914 3.36231 19.1886 3.36231 21.2438 4.38428 22.757 6.4282 24.2758 8.47777 25.0352 11.267 25.0352 14.7959 25.0352 18.3078 24.2758 21.0913 22.757 23.1466 21.2438 25.2018 19.1886 26.2294 16.5914 26.2294ZM16.5914 30.354C20.826 30.354 24.1516 28.9763 26.5682 26.2209 28.9904 23.4712 30.2015 19.6629 30.2015 14.7959 30.2015 9.94575 28.9904 6.13742 26.5682 3.37078 24.1516 0.609789 20.826-0.770706 16.5914-0.770706 12.3398-0.770706 9.00854 0.609789 6.59758 3.37078 4.1923 6.13742 2.98966 9.94575 2.98966 14.7959 2.98966 19.6629 4.1923 23.4712 6.59758 26.2209 9.00854 28.9763 12.3398 30.354 16.5914 30.354Z" transform="matrix(1.00024 0 0 -1 2833.53 2007.93)"/><path d="M24.6118 15.1685C24.6118 18.6974 23.8834 21.4301 22.4267 23.3668 20.9757 25.3091 18.9346 26.2802 16.3034 26.2802 13.6949 26.2802 11.6622 25.3091 10.2055 23.3668 8.74879 21.4301 8.02043 18.6974 8.02043 15.1685 8.02043 11.6565 8.74879 8.92943 10.2055 6.98717 11.6622 5.04488 13.6949 4.07373 16.3034 4.07373 18.9346 4.07373 20.9757 5.04488 22.4267 6.98717 23.8834 8.92943 24.6118 11.6565 24.6118 15.1685ZM29.4816 3.67568C29.4816-1.36638 28.3609-5.11828 26.1193-7.58002 23.8834-10.0418 20.4534-11.2726 15.8291-11.2726 14.1183-11.2726 12.5035-11.1456 10.9847-10.8915 9.46588-10.6374 7.9922-10.2451 6.56371-9.71428L6.56371-4.97995C7.9922-5.75347 9.40372-6.32375 10.7984-6.69075 12.193-7.0634 13.613-7.24972 15.0584-7.24972 18.2541-7.24972 20.6454-6.41691 22.2319-4.75128 23.8185-3.08564 24.6118-0.567443 24.6118 2.80334L24.6118 5.21709C23.6067 3.46676 22.3194 2.15967 20.7498 1.2958 19.1802 0.431934 17.3 0 15.1092 0 11.4787 0 8.5512 1.38332 6.32657 4.14996 4.10196 6.92224 2.98966 10.5951 2.98966 15.1685 2.98966 19.7532 4.10196 23.4289 6.32657 26.1955 8.5512 28.9678 11.4787 30.354 15.1092 30.354 17.3 30.354 19.1802 29.922 20.7498 29.0582 22.3194 28.1943 23.6067 26.89 24.6118 25.1453L24.6118 29.6425 29.4816 29.6425 29.4816 3.67568Z" transform="matrix(1.00024 0 0 -1 2866.7 2007.93)"/><path d="M4.70724 3.14804 10.8195 3.14804 10.8195 24.2535 4.16774 22.9196 4.16774 26.3285 10.784 27.6624 14.5248 27.6624 14.5248 3.14804 20.6371 3.14804 20.6371 0 4.70724 0 4.70724 3.14804Z" transform="matrix(1.00024 0 0 -1 2901.64 2016.83)"/><path d="M12.0586 25.1962C10.1338 25.1962 8.68526 24.2476 7.71299 22.3505 6.74469 20.4573 6.2605 17.6077 6.2605 13.8016 6.2605 10.0113 6.74469 7.16757 7.71299 5.27044 8.68526 3.37332 10.1338 2.42476 12.0586 2.42476 13.9992 2.42476 15.4537 3.37332 16.422 5.27044 17.3942 7.16757 17.8804 10.0113 17.8804 13.8016 17.8804 17.6077 17.3942 20.4573 16.422 22.3505 15.4537 24.2476 13.9992 25.1962 12.0586 25.1962ZM12.0586 28.1604C15.1612 28.1604 17.5306 26.9332 19.1669 24.4788 20.8031 22.0284 21.6213 18.4693 21.6213 13.8016 21.6213 9.14573 20.8031 5.59058 19.1669 3.13618 17.5306 0.685733 15.1612-0.539494 12.0586-0.539494 8.95993-0.539494 6.5925 0.685733 4.95623 3.13618 3.31996 5.59058 2.50183 9.14573 2.50183 13.8016 2.50183 18.4693 3.31996 22.0284 4.95623 24.4788 6.5925 26.9332 8.95993 28.1604 12.0586 28.1604Z" transform="matrix(1.00024 0 0 -1 2925.78 2016.83)"/><path d="M16.8031 41.1269C14.4429 37.0729 12.687 33.0585 11.5352 29.0836 10.389 25.1143 9.81592 21.0913 9.81592 17.0148 9.81592 12.9439 10.3946 8.9097 11.5521 4.91219 12.7096 0.914684 14.4599-3.10541 16.8031-7.14809L12.5684-7.14809C9.92602-2.99813 7.94702 1.07842 6.63146 5.08158 5.3159 9.08476 4.65811 13.0625 4.65811 17.0148 4.65811 20.9502 5.31025 24.911 6.61452 28.8972 7.92444 32.8891 9.90908 36.9657 12.5684 41.1269L16.8031 41.1269Z" transform="matrix(1.00024 0 0 -1 2951.41 2007.93)"/><path d="M5.31872 39.5177 12.5176 39.5177 30.0406 6.46207 30.0406 39.5177 35.2238 39.5177 35.2238 0 28.0249 0 10.5104 33.0557 10.5104 0 5.31872 0 5.31872 39.5177Z" transform="matrix(1.00024 0 0 -1 2972.56 2007.93)"/><path d="M4.6073 11.6961 4.6073 29.6425 9.47715 29.6425 9.47715 11.8824C9.47715 9.07629 10.022 6.97023 11.1117 5.56433 12.2071 4.16407 13.8501 3.46394 16.0409 3.46394 18.6663 3.46394 20.7413 4.3024 22.2658 5.97932 23.7959 7.65625 24.561 9.94296 24.561 12.8395L24.561 29.6425 29.4308 29.6425 29.4308 0 24.561 0 24.561 4.55648C23.3809 2.75534 22.0089 1.41719 20.4449 0.542035 18.8865-0.333125 17.0741-0.770706 15.0076-0.770706 11.6029-0.770706 9.01701 0.287956 7.24972 2.40528 5.48811 4.52261 4.6073 7.61955 4.6073 11.6961ZM16.8624 30.354 16.8624 30.354Z" transform="matrix(1.00024 0 0 -1 3013.12 2007.93)"/><path d="M28.1858 23.9512C29.4054 26.1419 30.8621 27.7567 32.556 28.7956 34.2498 29.8345 36.2429 30.354 38.5353 30.354 41.6238 30.354 44.0065 29.2727 45.6834 27.1102 47.3603 24.9533 48.1988 21.8819 48.1988 17.8956L48.1988 0 43.3035 0 43.3035 17.7347C43.3035 20.5747 42.7982 22.6808 41.7875 24.0528 40.7825 25.4305 39.2495 26.1193 37.1887 26.1193 34.6648 26.1193 32.6689 25.2809 31.2009 23.6039 29.7385 21.9327 29.0073 19.6488 29.0073 16.7523L29.0073 0 24.1121 0 24.1121 17.7347C24.1121 20.5917 23.6096 22.7034 22.6046 24.0697 21.5995 25.4361 20.0468 26.1193 17.9464 26.1193 15.4565 26.1193 13.4774 25.2781 12.0095 23.5955 10.5471 21.9129 9.81592 19.6318 9.81592 16.7523L9.81592 0 4.92066 0 4.92066 29.6425 9.81592 29.6425 9.81592 25.0352C10.9282 26.8533 12.2607 28.1943 13.8134 29.0582 15.3661 29.922 17.2096 30.354 19.3439 30.354 21.5008 30.354 23.3329 29.8063 24.8405 28.7109 26.348 27.6212 27.4631 26.0346 28.1858 23.9512Z" transform="matrix(1.00024 0 0 -1 3047.48 2007.93)"/><path d="M26.3903 14.7959C26.3903 18.3756 25.6535 21.1845 24.1798 23.2228 22.7062 25.2611 20.682 26.2802 18.1074 26.2802 15.527 26.2802 13.5001 25.2611 12.0264 23.2228 10.5527 21.1845 9.81592 18.3756 9.81592 14.7959 9.81592 11.2161 10.5527 8.40719 12.0264 6.36891 13.5001 4.33063 15.527 3.3115 18.1074 3.3115 20.682 3.3115 22.7062 4.33063 24.1798 6.36891 25.6535 8.40719 26.3903 11.2161 26.3903 14.7959ZM9.81592 25.1453C10.8435 26.907 12.1365 28.214 13.6949 29.0666 15.2589 29.9248 17.1249 30.354 19.2931 30.354 22.8953 30.354 25.8201 28.9254 28.0673 26.0685 30.3201 23.2116 31.4465 19.454 31.4465 14.7959 31.4465 10.1378 30.3201 6.37738 28.0673 3.51476 25.8201 0.657782 22.8953-0.770706 19.2931-0.770706 17.1249-0.770706 15.2589-0.341595 13.6949 0.516627 12.1365 1.37485 10.8435 2.68477 9.81592 4.44638L9.81592 0 4.92066 0 4.92066 41.1862 9.81592 41.1862 9.81592 25.1453Z" transform="matrix(1.00024 0 0 -1 3100.29 2007.93)"/><path d="M30.4641 16.0409 30.4641 13.661 8.07124 13.661C8.28579 10.3071 9.2965 7.75223 11.1033 5.99626 12.91 4.2403 15.4283 3.36231 18.6579 3.36231 20.5268 3.36231 22.3392 3.59098 24.0952 4.04832 25.8511 4.50567 27.5958 5.1945 29.3292 6.11483L29.3292 1.50754C27.5788 0.767883 25.7862 0.203263 23.9512-0.186325 22.1161-0.575912 20.2558-0.770706 18.3699-0.770706 13.6384-0.770706 9.89214 0.604143 7.13115 3.35384 4.37016 6.10918 2.98966 9.83565 2.98966 14.5333 2.98966 19.3834 4.29958 23.2313 6.91942 26.077 9.53922 28.9283 13.0738 30.354 17.523 30.354 21.5092 30.354 24.6626 29.0694 26.9832 26.5004 29.3038 23.937 30.4641 20.4506 30.4641 16.0409ZM25.5942 17.4722C25.5603 20.1315 24.815 22.2545 23.3583 23.8411 21.9016 25.4333 19.9734 26.2294 17.5738 26.2294 14.8579 26.2294 12.6842 25.4615 11.0524 23.9258 9.42065 22.39 8.48056 20.2275 8.23216 17.4383L25.5942 17.4722Z" transform="matrix(1.00024 0 0 -1 3134.71 2007.93)"/><path d="M22.2827 25.0945C21.735 25.4107 21.1394 25.6422 20.4957 25.789 19.852 25.9415 19.1434 26.0177 18.3699 26.0177 15.6146 26.0177 13.5001 25.1227 12.0264 23.3329 10.5527 21.5431 9.81592 18.9712 9.81592 15.6174L9.81592 0 4.92066 0 4.92066 29.6425 9.81592 29.6425 9.81592 25.0352C10.8435 26.8364 12.1761 28.1717 13.8134 29.0412 15.4565 29.9164 17.4524 30.354 19.8012 30.354 20.1343 30.354 20.5042 30.3314 20.9107 30.2862 21.3172 30.2467 21.7661 30.1818 22.2573 30.0914L22.2827 25.0945Z" transform="matrix(1.00024 0 0 -1 3168.06 2007.93)"/><path d="M16.5914 26.2294C13.9828 26.2294 11.9191 25.2103 10.4003 23.172 8.8815 21.1337 8.12206 18.3417 8.12206 14.7959 8.12206 11.25 8.87582 8.45801 10.3834 6.41973 11.8966 4.38145 13.9659 3.36231 16.5914 3.36231 19.1886 3.36231 21.2438 4.38428 22.757 6.4282 24.2758 8.47777 25.0352 11.267 25.0352 14.7959 25.0352 18.3078 24.2758 21.0913 22.757 23.1466 21.2438 25.2018 19.1886 26.2294 16.5914 26.2294ZM16.5914 30.354C20.826 30.354 24.1516 28.9763 26.5682 26.2209 28.9904 23.4712 30.2015 19.6629 30.2015 14.7959 30.2015 9.94575 28.9904 6.13742 26.5682 3.37078 24.1516 0.609789 20.826-0.770706 16.5914-0.770706 12.3398-0.770706 9.00854 0.609789 6.59758 3.37078 4.1923 6.13742 2.98966 9.94575 2.98966 14.7959 2.98966 19.6629 4.1923 23.4712 6.59758 26.2209 9.00854 28.9763 12.3398 30.354 16.5914 30.354Z" transform="matrix(1.00024 0 0 -1 3207.59 2007.93)"/><path d="M20.1146 41.1862 20.1146 37.1294 15.4565 37.1294C13.7118 37.1294 12.4979 36.7765 11.8147 36.0707 11.1371 35.365 10.7984 34.0946 10.7984 32.2596L10.7984 29.6425 18.8188 29.6425 18.8188 25.8568 10.7984 25.8568 10.7984 0 5.9031 0 5.9031 25.8568 1.24499 25.8568 1.24499 29.6425 5.9031 29.6425 5.9031 31.7091C5.9031 35.0064 6.67099 37.4089 8.20675 38.9164 9.74249 40.4296 12.1761 41.1862 15.5073 41.1862L20.1146 41.1862Z" transform="matrix(1.00024 0 0 -1 3240.76 2007.93)"/><path d="M10.6628 18.8696 10.6628 4.39557 19.2422 4.39557C22.1161 4.39557 24.2448 4.99124 25.6281 6.18259 27.0171 7.37394 27.7115 9.19486 27.7115 11.6453 27.7115 14.1183 27.0171 15.9392 25.6281 17.108 24.2448 18.2824 22.1161 18.8696 19.2422 18.8696L10.6628 18.8696ZM10.6628 35.1222 10.6628 23.2143 18.5816 23.2143C21.1902 23.2143 23.1325 23.7028 24.4085 24.6795 25.6902 25.662 26.331 27.1582 26.331 29.1683 26.331 31.1613 25.6902 32.6519 24.4085 33.6401 23.1325 34.6282 21.1902 35.1222 18.5816 35.1222L10.6628 35.1222ZM5.31872 39.5177 18.9797 39.5177C23.0562 39.5177 26.1955 38.6708 28.3976 36.977 30.6052 35.2831 31.7091 32.875 31.7091 29.7526 31.7091 27.3304 31.1444 25.4051 30.0152 23.9766 28.886 22.5481 27.226 21.6588 25.0352 21.3088 27.6664 20.7441 29.7103 19.5641 31.167 17.7686 32.6237 15.9788 33.3521 13.7429 33.3521 11.0609 33.3521 7.53203 32.1523 4.80491 29.7526 2.87956 27.353 0.959851 23.937 0 19.5048 0L5.31872 0 5.31872 39.5177Z" transform="matrix(1.00024 0 0 -1 3277.08 2007.93)"/><path d="M4.6073 11.6961 4.6073 29.6425 9.47715 29.6425 9.47715 11.8824C9.47715 9.07629 10.022 6.97023 11.1117 5.56433 12.2071 4.16407 13.8501 3.46394 16.0409 3.46394 18.6663 3.46394 20.7413 4.3024 22.2658 5.97932 23.7959 7.65625 24.561 9.94296 24.561 12.8395L24.561 29.6425 29.4308 29.6425 29.4308 0 24.561 0 24.561 4.55648C23.3809 2.75534 22.0089 1.41719 20.4449 0.542035 18.8865-0.333125 17.0741-0.770706 15.0076-0.770706 11.6029-0.770706 9.01701 0.287956 7.24972 2.40528 5.48811 4.52261 4.6073 7.61955 4.6073 11.6961ZM16.8624 30.354 16.8624 30.354Z" transform="matrix(1.00024 0 0 -1 3314.27 2007.93)"/><path d="M5.10699 29.6425 9.97683 29.6425 9.97683 0 5.10699 0 5.10699 29.6425ZM5.10699 41.1862 9.97683 41.1862 9.97683 35.0121 5.10699 35.0121 5.10699 41.1862Z" transform="matrix(1.00024 0 0 -1 3348.64 2007.93)"/><path d="M5.10699 41.1862 9.97683 41.1862 9.97683 0 5.10699 0 5.10699 41.1862Z" transform="matrix(1.00024 0 0 -1 3363.7 2007.93)"/><path d="M24.6118 25.1453 24.6118 41.1862 29.4816 41.1862 29.4816 0 24.6118 0 24.6118 4.44638C23.5898 2.68477 22.2969 1.37485 20.7328 0.516627 19.1745-0.341595 17.3-0.770706 15.1092-0.770706 11.5295-0.770706 8.61328 0.657782 6.36044 3.51476 4.11326 6.37738 2.98966 10.1378 2.98966 14.7959 2.98966 19.454 4.11326 23.2116 6.36044 26.0685 8.61328 28.9254 11.5295 30.354 15.1092 30.354 17.3 30.354 19.1745 29.9248 20.7328 29.0666 22.2969 28.214 23.5898 26.907 24.6118 25.1453ZM8.02043 14.7959C8.02043 11.2161 8.75725 8.40719 10.2309 6.36891 11.7046 4.33063 13.7287 3.3115 16.3034 3.3115 18.8781 3.3115 20.905 4.33063 22.3844 6.36891 23.8693 8.40719 24.6118 11.2161 24.6118 14.7959 24.6118 18.3756 23.8693 21.1845 22.3844 23.2228 20.905 25.2611 18.8781 26.2802 16.3034 26.2802 13.7287 26.2802 11.7046 25.2611 10.2309 23.2228 8.75725 21.1845 8.02043 18.3756 8.02043 14.7959Z" transform="matrix(1.00024 0 0 -1 3378.76 2007.93)"/><path d="M5.10699 29.6425 9.97683 29.6425 9.97683 0 5.10699 0 5.10699 29.6425ZM5.10699 41.1862 9.97683 41.1862 9.97683 35.0121 5.10699 35.0121 5.10699 41.1862Z" transform="matrix(1.00024 0 0 -1 3413.17 2007.93)"/><path d="M29.7526 17.8956 29.7526 0 24.8828 0 24.8828 17.7347C24.8828 20.5408 24.3351 22.6384 23.2398 24.0274 22.1444 25.422 20.5042 26.1193 18.3191 26.1193 15.6879 26.1193 13.613 25.2809 12.0942 23.6039 10.5754 21.9327 9.81592 19.6488 9.81592 16.7523L9.81592 0 4.92066 0 4.92066 29.6425 9.81592 29.6425 9.81592 25.0352C10.9847 26.8195 12.3567 28.1519 13.932 29.0328 15.513 29.9136 17.3367 30.354 19.4032 30.354 22.8078 30.354 25.3825 29.301 27.1272 27.1949 28.8775 25.0889 29.7526 21.9891 29.7526 17.8956Z" transform="matrix(1.00024 0 0 -1 3428.24 2007.93)"/><path d="M24.6118 15.1685C24.6118 18.6974 23.8834 21.4301 22.4267 23.3668 20.9757 25.3091 18.9346 26.2802 16.3034 26.2802 13.6949 26.2802 11.6622 25.3091 10.2055 23.3668 8.74879 21.4301 8.02043 18.6974 8.02043 15.1685 8.02043 11.6565 8.74879 8.92943 10.2055 6.98717 11.6622 5.04488 13.6949 4.07373 16.3034 4.07373 18.9346 4.07373 20.9757 5.04488 22.4267 6.98717 23.8834 8.92943 24.6118 11.6565 24.6118 15.1685ZM29.4816 3.67568C29.4816-1.36638 28.3609-5.11828 26.1193-7.58002 23.8834-10.0418 20.4534-11.2726 15.8291-11.2726 14.1183-11.2726 12.5035-11.1456 10.9847-10.8915 9.46588-10.6374 7.9922-10.2451 6.56371-9.71428L6.56371-4.97995C7.9922-5.75347 9.40372-6.32375 10.7984-6.69075 12.193-7.0634 13.613-7.24972 15.0584-7.24972 18.2541-7.24972 20.6454-6.41691 22.2319-4.75128 23.8185-3.08564 24.6118-0.567443 24.6118 2.80334L24.6118 5.21709C23.6067 3.46676 22.3194 2.15967 20.7498 1.2958 19.1802 0.431934 17.3 0 15.1092 0 11.4787 0 8.5512 1.38332 6.32657 4.14996 4.10196 6.92224 2.98966 10.5951 2.98966 15.1685 2.98966 19.7532 4.10196 23.4289 6.32657 26.1955 8.5512 28.9678 11.4787 30.354 15.1092 30.354 17.3 30.354 19.1802 29.922 20.7498 29.0582 22.3194 28.1943 23.6067 26.89 24.6118 25.1453L24.6118 29.6425 29.4816 29.6425 29.4816 3.67568Z" transform="matrix(1.00024 0 0 -1 3462.6 2007.93)"/><path d="M24.002 28.7702 24.002 24.1629C22.63 24.8687 21.2015 25.3966 19.7165 25.7467 18.2372 26.1024 16.7015 26.2802 15.1092 26.2802 12.6927 26.2802 10.8803 25.9104 9.67194 25.1708 8.46365 24.4311 7.85951 23.3188 7.85951 21.8339 7.85951 20.7046 8.29144 19.8182 9.15531 19.1745 10.0192 18.5308 11.7582 17.9182 14.3724 17.3367L16.0409 16.964C19.4963 16.2244 21.9524 15.1798 23.4091 13.8304 24.8659 12.481 25.5942 10.5979 25.5942 8.18134 25.5942 5.426 24.5045 3.24374 22.3251 1.63457 20.1457 0.0310541 17.1503-0.770706 13.3391-0.770706 11.7526-0.770706 10.0982-0.615436 8.37614-0.304895 6.65405 0.0056462 4.84162 0.468634 2.93885 1.08407L2.93885 6.11483C4.73999 5.17756 6.51289 4.47461 8.25757 4.00598 10.0022 3.54299 11.7328 3.3115 13.4492 3.3115 15.7416 3.3115 17.5032 3.7039 18.7341 4.48873 19.9706 5.27355 20.5889 6.3802 20.5889 7.80869 20.5889 9.1299 20.1428 10.1434 19.2507 10.8492 18.3642 11.5549 16.4107 12.2353 13.39 12.8903L11.6961 13.2883C8.68103 13.9207 6.5016 14.8947 5.1578 16.2102 3.81965 17.5258 3.15058 19.3297 3.15058 21.6221 3.15058 24.4113 4.13867 26.5625 6.11483 28.0757 8.091 29.5945 10.8972 30.354 14.5333 30.354 16.3288 30.354 18.0199 30.2213 19.6064 29.9559 21.1987 29.6962 22.6638 29.301 24.002 28.7702Z" transform="matrix(1.00024 0 0 -1 3497.01 2007.93)"/><path d="M4.34475 41.1269 8.5794 41.1269C11.2218 36.9657 13.2008 32.8891 14.5164 28.8972 15.8319 24.911 16.4897 20.9502 16.4897 17.0148 16.4897 13.0625 15.8319 9.08476 14.5164 5.08158 13.2008 1.07842 11.2218-2.99813 8.5794-7.14809L4.34475-7.14809C6.68793-3.10541 8.43824 0.914684 9.59572 4.91219 10.7532 8.9097 11.3319 12.9439 11.3319 17.0148 11.3319 21.0913 10.7532 25.1143 9.59572 29.0836 8.43824 33.0585 6.68793 37.0729 4.34475 41.1269Z" transform="matrix(1.00024 0 0 -1 3525.26 2007.93)"/><path d="M0 0 18.9712 0" stroke="#000000" stroke-width="4.33628" stroke-linejoin="round" fill="none" transform="matrix(1.00024 0 0 1 2426.22 1724.5)"/><path d="M5.74218 19.2422 39.6702 19.2422 39.6702 14.745 5.74218 14.745 5.74218 19.2422Z" transform="matrix(1.00024 0 0 -1 2327.31 1745.1)"/><path d="M6.72462 4.4972 15.4565 4.4972 15.4565 34.6479 5.95392 32.7423 5.95392 37.6122 15.4057 39.5177 20.7498 39.5177 20.7498 4.4972 29.4816 4.4972 29.4816 0 6.72462 0 6.72462 4.4972Z" transform="matrix(1.00024 0 0 -1 2372.74 1745.1)"/><path d="M0 0 18.9712 0" stroke="#000000" stroke-width="4.33628" stroke-linejoin="round" fill="none" transform="matrix(1.00024 0 0 1 2426.22 1560.67)"/><path d="M17.2266 35.9945C14.4768 35.9945 12.4075 34.6394 11.0186 31.9293 9.63527 29.2248 8.94358 25.1538 8.94358 19.7165 8.94358 14.3019 9.63527 10.2394 11.0186 7.52921 12.4075 4.81903 14.4768 3.46394 17.2266 3.46394 19.9988 3.46394 22.0767 4.81903 23.46 7.52921 24.8489 10.2394 25.5434 14.3019 25.5434 19.7165 25.5434 25.1538 24.8489 29.2248 23.46 31.9293 22.0767 34.6394 19.9988 35.9945 17.2266 35.9945ZM17.2266 40.2292C21.6588 40.2292 25.0437 38.476 27.3812 34.9697 29.7188 31.4691 30.8875 26.3847 30.8875 19.7165 30.8875 13.0653 29.7188 7.98655 27.3812 4.48026 25.0437 0.979618 21.6588-0.770706 17.2266-0.770706 12.7999-0.770706 9.41786 0.979618 7.08033 4.48026 4.74281 7.98655 3.57404 13.0653 3.57404 19.7165 3.57404 26.3847 4.74281 31.4691 7.08033 34.9697 9.41786 38.476 12.7999 40.2292 17.2266 40.2292Z" transform="matrix(1.00024 0 0 -1 2372.74 1581.26)"/><path d="M0 0 18.9712 0" stroke="#000000" stroke-width="4.33628" stroke-linejoin="round" fill="none" transform="matrix(1.00024 0 0 1 2426.22 1396.84)"/><path d="M6.72462 4.4972 15.4565 4.4972 15.4565 34.6479 5.95392 32.7423 5.95392 37.6122 15.4057 39.5177 20.7498 39.5177 20.7498 4.4972 29.4816 4.4972 29.4816 0 6.72462 0 6.72462 4.4972Z" transform="matrix(1.00024 0 0 -1 2372.74 1417.43)"/><path d="M0 0 18.9712 0" stroke="#000000" stroke-width="4.33628" stroke-linejoin="round" fill="none" transform="matrix(1.00024 0 0 1 2426.22 1233.01)"/><path d="M10.4003 4.4972 29.0582 4.4972 29.0582 0 3.9721 0 3.9721 4.4972C5.99908 6.59758 8.76293 9.41507 12.2635 12.9496 15.7698 16.4897 17.9719 18.7736 18.8696 19.8012 20.5804 21.721 21.7746 23.3471 22.4521 24.6795 23.1353 26.012 23.4769 27.322 23.4769 28.6093 23.4769 30.7097 22.7401 32.4205 21.2664 33.7417 19.7928 35.0686 17.873 35.732 15.5073 35.732 13.8304 35.732 12.0603 35.4412 10.197 34.8596 8.33944 34.278 6.35197 33.3944 4.23465 32.2087L4.23465 37.6122C6.38585 38.476 8.3959 39.1282 10.2648 39.5686 12.1393 40.009 13.853 40.2292 15.4057 40.2292 19.4991 40.2292 22.7627 39.2044 25.1962 37.1548 27.6296 35.1109 28.8464 32.3781 28.8464 28.9565 28.8464 27.3304 28.5415 25.789 27.9317 24.3323 27.3276 22.8812 26.2209 21.1676 24.6118 19.1914 24.1714 18.6776 22.7683 17.1984 20.4025 14.7535 18.0424 12.3087 14.7084 8.88997 10.4003 4.4972Z" transform="matrix(1.00024 0 0 -1 2372.74 1253.6)"/><path d="M0 0 18.9712 0" stroke="#000000" stroke-width="4.33628" stroke-linejoin="round" fill="none" transform="matrix(1.00024 0 0 1 2426.22 1069.17)"/><path d="M21.9948 21.3088C24.5525 20.761 26.5485 19.6206 27.9826 17.8872 29.4223 16.1594 30.1422 14.0252 30.1422 11.4844 30.1422 7.58849 28.8013 4.5706 26.1193 2.43069 23.4373 0.296425 19.6262-0.770706 14.6858-0.770706 13.0315-0.770706 11.3262-0.606967 9.57031-0.279487 7.81434 0.0479927 6.00191 0.539212 4.13302 1.19417L4.13302 6.35197C5.61232 5.48811 7.23278 4.83597 8.9944 4.39557 10.7617 3.95516 12.608 3.73496 14.5333 3.73496 17.8815 3.73496 20.4336 4.39557 22.1896 5.71678 23.9455 7.03799 24.8235 8.96052 24.8235 11.4844 24.8235 13.8162 24.0077 15.6371 22.3759 16.9471 20.7441 18.2626 18.4743 18.9204 15.5666 18.9204L10.9593 18.9204 10.9593 23.316 15.7783 23.316C18.4038 23.316 20.4138 23.8411 21.8084 24.8913 23.2031 25.9415 23.9004 27.4547 23.9004 29.4308 23.9004 31.4578 23.1805 33.0133 21.7407 34.0974 20.3066 35.1871 18.2485 35.732 15.5666 35.732 14.0986 35.732 12.5261 35.5711 10.8492 35.2492 9.17225 34.9331 7.32876 34.4418 5.31872 33.7756L5.31872 38.5353C7.35135 39.1 9.25415 39.5234 11.027 39.8057 12.7999 40.088 14.4712 40.2292 16.0409 40.2292 20.1004 40.2292 23.3103 39.306 25.6704 37.4597 28.0362 35.6191 29.2191 33.1291 29.2191 29.9898 29.2191 27.799 28.5924 25.9499 27.3389 24.4424 26.0854 22.9349 24.3041 21.8903 21.9948 21.3088Z" transform="matrix(1.00024 0 0 -1 2372.74 1089.77)"/><path d="M5.10699 41.1862 9.97683 41.1862 9.97683 0 5.10699 0 5.10699 41.1862Z" transform="matrix(6.12468e-17 -1 -1.00024 -6.12323e-17 2294.23 1743.87)"/><path d="M16.5914 26.2294C13.9828 26.2294 11.9191 25.2103 10.4003 23.172 8.8815 21.1337 8.12206 18.3417 8.12206 14.7959 8.12206 11.25 8.87582 8.45801 10.3834 6.41973 11.8966 4.38145 13.9659 3.36231 16.5914 3.36231 19.1886 3.36231 21.2438 4.38428 22.757 6.4282 24.2758 8.47777 25.0352 11.267 25.0352 14.7959 25.0352 18.3078 24.2758 21.0913 22.757 23.1466 21.2438 25.2018 19.1886 26.2294 16.5914 26.2294ZM16.5914 30.354C20.826 30.354 24.1516 28.9763 26.5682 26.2209 28.9904 23.4712 30.2015 19.6629 30.2015 14.7959 30.2015 9.94575 28.9904 6.13742 26.5682 3.37078 24.1516 0.609789 20.826-0.770706 16.5914-0.770706 12.3398-0.770706 9.00854 0.609789 6.59758 3.37078 4.1923 6.13742 2.98966 9.94575 2.98966 14.7959 2.98966 19.6629 4.1923 23.4712 6.59758 26.2209 9.00854 28.9763 12.3398 30.354 16.5914 30.354Z" transform="matrix(6.12468e-17 -1 -1.00024 -6.12323e-17 2294.23 1728.81)"/><path d="M24.6118 15.1685C24.6118 18.6974 23.8834 21.4301 22.4267 23.3668 20.9757 25.3091 18.9346 26.2802 16.3034 26.2802 13.6949 26.2802 11.6622 25.3091 10.2055 23.3668 8.74879 21.4301 8.02043 18.6974 8.02043 15.1685 8.02043 11.6565 8.74879 8.92943 10.2055 6.98717 11.6622 5.04488 13.6949 4.07373 16.3034 4.07373 18.9346 4.07373 20.9757 5.04488 22.4267 6.98717 23.8834 8.92943 24.6118 11.6565 24.6118 15.1685ZM29.4816 3.67568C29.4816-1.36638 28.3609-5.11828 26.1193-7.58002 23.8834-10.0418 20.4534-11.2726 15.8291-11.2726 14.1183-11.2726 12.5035-11.1456 10.9847-10.8915 9.46588-10.6374 7.9922-10.2451 6.56371-9.71428L6.56371-4.97995C7.9922-5.75347 9.40372-6.32375 10.7984-6.69075 12.193-7.0634 13.613-7.24972 15.0584-7.24972 18.2541-7.24972 20.6454-6.41691 22.2319-4.75128 23.8185-3.08564 24.6118-0.567443 24.6118 2.80334L24.6118 5.21709C23.6067 3.46676 22.3194 2.15967 20.7498 1.2958 19.1802 0.431934 17.3 0 15.1092 0 11.4787 0 8.5512 1.38332 6.32657 4.14996 4.10196 6.92224 2.98966 10.5951 2.98966 15.1685 2.98966 19.7532 4.10196 23.4289 6.32657 26.1955 8.5512 28.9678 11.4787 30.354 15.1092 30.354 17.3 30.354 19.1802 29.922 20.7498 29.0582 22.3194 28.1943 23.6067 26.89 24.6118 25.1453L24.6118 29.6425 29.4816 29.6425 29.4816 3.67568Z" transform="matrix(6.12468e-17 -1 -1.00024 -6.12323e-17 2294.23 1695.65)"/><path d="M4.70724 3.14804 10.8195 3.14804 10.8195 24.2535 4.16774 22.9196 4.16774 26.3285 10.784 27.6624 14.5248 27.6624 14.5248 3.14804 20.6371 3.14804 20.6371 0 4.70724 0 4.70724 3.14804Z" transform="matrix(6.12469e-17 -1 -1.00024 -6.12323e-17 2303.13 1660.72)"/><path d="M12.0586 25.1962C10.1338 25.1962 8.68526 24.2476 7.71299 22.3505 6.74469 20.4573 6.2605 17.6077 6.2605 13.8016 6.2605 10.0113 6.74469 7.16757 7.71299 5.27044 8.68526 3.37332 10.1338 2.42476 12.0586 2.42476 13.9992 2.42476 15.4537 3.37332 16.422 5.27044 17.3942 7.16757 17.8804 10.0113 17.8804 13.8016 17.8804 17.6077 17.3942 20.4573 16.422 22.3505 15.4537 24.2476 13.9992 25.1962 12.0586 25.1962ZM12.0586 28.1604C15.1612 28.1604 17.5306 26.9332 19.1669 24.4788 20.8031 22.0284 21.6213 18.4693 21.6213 13.8016 21.6213 9.14573 20.8031 5.59058 19.1669 3.13618 17.5306 0.685733 15.1612-0.539494 12.0586-0.539494 8.95993-0.539494 6.5925 0.685733 4.95623 3.13618 3.31996 5.59058 2.50183 9.14573 2.50183 13.8016 2.50183 18.4693 3.31996 22.0284 4.95623 24.4788 6.5925 26.9332 8.95993 28.1604 12.0586 28.1604Z" transform="matrix(6.12469e-17 -1 -1.00024 -6.12323e-17 2303.13 1636.58)"/><path d="M16.8031 41.1269C14.4429 37.0729 12.687 33.0585 11.5352 29.0836 10.389 25.1143 9.81592 21.0913 9.81592 17.0148 9.81592 12.9439 10.3946 8.9097 11.5521 4.91219 12.7096 0.914684 14.4599-3.10541 16.8031-7.14809L12.5684-7.14809C9.92602-2.99813 7.94702 1.07842 6.63146 5.08158 5.3159 9.08476 4.65811 13.0625 4.65811 17.0148 4.65811 20.9502 5.31025 24.911 6.61452 28.8972 7.92444 32.8891 9.90908 36.9657 12.5684 41.1269L16.8031 41.1269Z" transform="matrix(6.12468e-17 -1 -1.00024 -6.12323e-17 2294.23 1610.96)"/><path d="M34.9104 36.4688 34.9104 30.8367C33.1093 32.5136 31.1896 33.7643 29.1513 34.5886 27.113 35.4186 24.9478 35.8336 22.6554 35.8336 18.1384 35.8336 14.6801 34.4531 12.2805 31.6921 9.88088 28.9311 8.68103 24.9393 8.68103 19.7165 8.68103 14.5107 9.88088 10.5273 12.2805 7.76635 14.6801 5.00536 18.1384 3.62486 22.6554 3.62486 24.9478 3.62486 27.113 4.03986 29.1513 4.86985 31.1896 5.69984 33.1093 6.95329 34.9104 8.63021L34.9104 3.04048C33.0415 1.77008 31.0597 0.815875 28.965 0.177855 26.8759-0.454519 24.6683-0.770706 22.342-0.770706 16.357-0.770706 11.6425 1.05866 8.19828 4.7174 4.75975 8.38179 3.04048 13.3815 3.04048 19.7165 3.04048 26.0685 4.75975 31.0739 8.19828 34.7326 11.6425 38.397 16.357 40.2292 22.342 40.2292 24.7021 40.2292 26.9267 39.9158 29.0158 39.2891 31.1105 38.6623 33.0754 37.7223 34.9104 36.4688Z" transform="matrix(6.12468e-17 -1 -1.00024 -6.12323e-17 2294.23 1589.81)"/><path d="M16.5914 26.2294C13.9828 26.2294 11.9191 25.2103 10.4003 23.172 8.8815 21.1337 8.12206 18.3417 8.12206 14.7959 8.12206 11.25 8.87582 8.45801 10.3834 6.41973 11.8966 4.38145 13.9659 3.36231 16.5914 3.36231 19.1886 3.36231 21.2438 4.38428 22.757 6.4282 24.2758 8.47777 25.0352 11.267 25.0352 14.7959 25.0352 18.3078 24.2758 21.0913 22.757 23.1466 21.2438 25.2018 19.1886 26.2294 16.5914 26.2294ZM16.5914 30.354C20.826 30.354 24.1516 28.9763 26.5682 26.2209 28.9904 23.4712 30.2015 19.6629 30.2015 14.7959 30.2015 9.94575 28.9904 6.13742 26.5682 3.37078 24.1516 0.609789 20.826-0.770706 16.5914-0.770706 12.3398-0.770706 9.00854 0.609789 6.59758 3.37078 4.1923 6.13742 2.98966 9.94575 2.98966 14.7959 2.98966 19.6629 4.1923 23.4712 6.59758 26.2209 9.00854 28.9763 12.3398 30.354 16.5914 30.354Z" transform="matrix(6.12468e-17 -1 -1.00024 -6.12323e-17 2294.23 1551.97)"/><path d="M28.1858 23.9512C29.4054 26.1419 30.8621 27.7567 32.556 28.7956 34.2498 29.8345 36.2429 30.354 38.5353 30.354 41.6238 30.354 44.0065 29.2727 45.6834 27.1102 47.3603 24.9533 48.1988 21.8819 48.1988 17.8956L48.1988 0 43.3035 0 43.3035 17.7347C43.3035 20.5747 42.7982 22.6808 41.7875 24.0528 40.7825 25.4305 39.2495 26.1193 37.1887 26.1193 34.6648 26.1193 32.6689 25.2809 31.2009 23.6039 29.7385 21.9327 29.0073 19.6488 29.0073 16.7523L29.0073 0 24.1121 0 24.1121 17.7347C24.1121 20.5917 23.6096 22.7034 22.6046 24.0697 21.5995 25.4361 20.0468 26.1193 17.9464 26.1193 15.4565 26.1193 13.4774 25.2781 12.0095 23.5955 10.5471 21.9129 9.81592 19.6318 9.81592 16.7523L9.81592 0 4.92066 0 4.92066 29.6425 9.81592 29.6425 9.81592 25.0352C10.9282 26.8533 12.2607 28.1943 13.8134 29.0582 15.3661 29.922 17.2096 30.354 19.3439 30.354 21.5008 30.354 23.3329 29.8063 24.8405 28.7109 26.348 27.6212 27.4631 26.0346 28.1858 23.9512Z" transform="matrix(6.12468e-17 -1 -1.00024 -6.12323e-17 2294.23 1518.8)"/><path d="M9.81592 4.44638 9.81592-11.2726 4.92066-11.2726 4.92066 29.6425 9.81592 29.6425 9.81592 25.1453C10.8435 26.907 12.1365 28.214 13.6949 29.0666 15.2589 29.9248 17.1249 30.354 19.2931 30.354 22.8953 30.354 25.8201 28.9254 28.0673 26.0685 30.3201 23.2116 31.4465 19.454 31.4465 14.7959 31.4465 10.1378 30.3201 6.37738 28.0673 3.51476 25.8201 0.657782 22.8953-0.770706 19.2931-0.770706 17.1249-0.770706 15.2589-0.341595 13.6949 0.516627 12.1365 1.37485 10.8435 2.68477 9.81592 4.44638ZM26.3903 14.7959C26.3903 18.3756 25.6535 21.1845 24.1798 23.2228 22.7062 25.2611 20.682 26.2802 18.1074 26.2802 15.527 26.2802 13.5001 25.2611 12.0264 23.2228 10.5527 21.1845 9.81592 18.3756 9.81592 14.7959 9.81592 11.2161 10.5527 8.40719 12.0264 6.36891 13.5001 4.33063 15.527 3.3115 18.1074 3.3115 20.682 3.3115 22.7062 4.33063 24.1798 6.36891 25.6535 8.40719 26.3903 11.2161 26.3903 14.7959Z" transform="matrix(6.12468e-17 -1 -1.00024 -6.12323e-17 2294.23 1466)"/><path d="M4.6073 11.6961 4.6073 29.6425 9.47715 29.6425 9.47715 11.8824C9.47715 9.07629 10.022 6.97023 11.1117 5.56433 12.2071 4.16407 13.8501 3.46394 16.0409 3.46394 18.6663 3.46394 20.7413 4.3024 22.2658 5.97932 23.7959 7.65625 24.561 9.94296 24.561 12.8395L24.561 29.6425 29.4308 29.6425 29.4308 0 24.561 0 24.561 4.55648C23.3809 2.75534 22.0089 1.41719 20.4449 0.542035 18.8865-0.333125 17.0741-0.770706 15.0076-0.770706 11.6029-0.770706 9.01701 0.287956 7.24972 2.40528 5.48811 4.52261 4.6073 7.61955 4.6073 11.6961ZM16.8624 30.354 16.8624 30.354Z" transform="matrix(6.12468e-17 -1 -1.00024 -6.12323e-17 2294.23 1431.6)"/><path d="M9.92602 38.061 9.92602 29.6425 19.9537 29.6425 19.9537 25.8568 9.92602 25.8568 9.92602 9.7651C9.92602 7.34853 10.2563 5.79582 10.9169 5.10699 11.5775 4.41815 12.9241 4.07373 14.9568 4.07373L19.9537 4.07373 19.9537 0 14.9568 0C11.1964 0 8.60201 0.700129 7.1735 2.10039 5.745 3.50629 5.03076 6.0612 5.03076 9.7651L5.03076 25.8568 1.45672 25.8568 1.45672 29.6425 5.03076 29.6425 5.03076 38.061 9.92602 38.061Z" transform="matrix(6.12468e-17 -1 -1.00024 -6.12323e-17 2294.23 1397.24)"/><path d="M5.10699 29.6425 9.97683 29.6425 9.97683 0 5.10699 0 5.10699 29.6425ZM5.10699 41.1862 9.97683 41.1862 9.97683 35.0121 5.10699 35.0121 5.10699 41.1862Z" transform="matrix(6.12468e-17 -1 -1.00024 -6.12323e-17 2294.23 1375.99)"/><path d="M29.7526 17.8956 29.7526 0 24.8828 0 24.8828 17.7347C24.8828 20.5408 24.3351 22.6384 23.2398 24.0274 22.1444 25.422 20.5042 26.1193 18.3191 26.1193 15.6879 26.1193 13.613 25.2809 12.0942 23.6039 10.5754 21.9327 9.81592 19.6488 9.81592 16.7523L9.81592 0 4.92066 0 4.92066 29.6425 9.81592 29.6425 9.81592 25.0352C10.9847 26.8195 12.3567 28.1519 13.932 29.0328 15.513 29.9136 17.3367 30.354 19.4032 30.354 22.8078 30.354 25.3825 29.301 27.1272 27.1949 28.8775 25.0889 29.7526 21.9891 29.7526 17.8956Z" transform="matrix(6.12468e-17 -1 -1.00024 -6.12323e-17 2294.23 1360.93)"/><path d="M24.6118 15.1685C24.6118 18.6974 23.8834 21.4301 22.4267 23.3668 20.9757 25.3091 18.9346 26.2802 16.3034 26.2802 13.6949 26.2802 11.6622 25.3091 10.2055 23.3668 8.74879 21.4301 8.02043 18.6974 8.02043 15.1685 8.02043 11.6565 8.74879 8.92943 10.2055 6.98717 11.6622 5.04488 13.6949 4.07373 16.3034 4.07373 18.9346 4.07373 20.9757 5.04488 22.4267 6.98717 23.8834 8.92943 24.6118 11.6565 24.6118 15.1685ZM29.4816 3.67568C29.4816-1.36638 28.3609-5.11828 26.1193-7.58002 23.8834-10.0418 20.4534-11.2726 15.8291-11.2726 14.1183-11.2726 12.5035-11.1456 10.9847-10.8915 9.46588-10.6374 7.9922-10.2451 6.56371-9.71428L6.56371-4.97995C7.9922-5.75347 9.40372-6.32375 10.7984-6.69075 12.193-7.0634 13.613-7.24972 15.0584-7.24972 18.2541-7.24972 20.6454-6.41691 22.2319-4.75128 23.8185-3.08564 24.6118-0.567443 24.6118 2.80334L24.6118 5.21709C23.6067 3.46676 22.3194 2.15967 20.7498 1.2958 19.1802 0.431934 17.3 0 15.1092 0 11.4787 0 8.5512 1.38332 6.32657 4.14996 4.10196 6.92224 2.98966 10.5951 2.98966 15.1685 2.98966 19.7532 4.10196 23.4289 6.32657 26.1955 8.5512 28.9678 11.4787 30.354 15.1092 30.354 17.3 30.354 19.1802 29.922 20.7498 29.0582 22.3194 28.1943 23.6067 26.89 24.6118 25.1453L24.6118 29.6425 29.4816 29.6425 29.4816 3.67568Z" transform="matrix(6.12468e-17 -1 -1.00024 -6.12323e-17 2294.23 1326.58)"/><path d="M-0.160917 39.5177 33.2674 39.5177 33.2674 35.0121 19.2422 35.0121 19.2422 0 13.8727 0 13.8727 35.0121-0.160917 35.0121-0.160917 39.5177Z" transform="matrix(6.12468e-17 -1 -1.00024 -6.12323e-17 2294.23 1274.94)"/><path d="M5.10699 29.6425 9.97683 29.6425 9.97683 0 5.10699 0 5.10699 29.6425ZM5.10699 41.1862 9.97683 41.1862 9.97683 35.0121 5.10699 35.0121 5.10699 41.1862Z" transform="matrix(6.12468e-17 -1 -1.00024 -6.12323e-17 2294.23 1241.83)"/><path d="M28.1858 23.9512C29.4054 26.1419 30.8621 27.7567 32.556 28.7956 34.2498 29.8345 36.2429 30.354 38.5353 30.354 41.6238 30.354 44.0065 29.2727 45.6834 27.1102 47.3603 24.9533 48.1988 21.8819 48.1988 17.8956L48.1988 0 43.3035 0 43.3035 17.7347C43.3035 20.5747 42.7982 22.6808 41.7875 24.0528 40.7825 25.4305 39.2495 26.1193 37.1887 26.1193 34.6648 26.1193 32.6689 25.2809 31.2009 23.6039 29.7385 21.9327 29.0073 19.6488 29.0073 16.7523L29.0073 0 24.1121 0 24.1121 17.7347C24.1121 20.5917 23.6096 22.7034 22.6046 24.0697 21.5995 25.4361 20.0468 26.1193 17.9464 26.1193 15.4565 26.1193 13.4774 25.2781 12.0095 23.5955 10.5471 21.9129 9.81592 19.6318 9.81592 16.7523L9.81592 0 4.92066 0 4.92066 29.6425 9.81592 29.6425 9.81592 25.0352C10.9282 26.8533 12.2607 28.1943 13.8134 29.0582 15.3661 29.922 17.2096 30.354 19.3439 30.354 21.5008 30.354 23.3329 29.8063 24.8405 28.7109 26.348 27.6212 27.4631 26.0346 28.1858 23.9512Z" transform="matrix(6.12468e-17 -1 -1.00024 -6.12323e-17 2294.23 1226.77)"/><path d="M30.4641 16.0409 30.4641 13.661 8.07124 13.661C8.28579 10.3071 9.2965 7.75223 11.1033 5.99626 12.91 4.2403 15.4283 3.36231 18.6579 3.36231 20.5268 3.36231 22.3392 3.59098 24.0952 4.04832 25.8511 4.50567 27.5958 5.1945 29.3292 6.11483L29.3292 1.50754C27.5788 0.767883 25.7862 0.203263 23.9512-0.186325 22.1161-0.575912 20.2558-0.770706 18.3699-0.770706 13.6384-0.770706 9.89214 0.604143 7.13115 3.35384 4.37016 6.10918 2.98966 9.83565 2.98966 14.5333 2.98966 19.3834 4.29958 23.2313 6.91942 26.077 9.53922 28.9283 13.0738 30.354 17.523 30.354 21.5092 30.354 24.6626 29.0694 26.9832 26.5004 29.3038 23.937 30.4641 20.4506 30.4641 16.0409ZM25.5942 17.4722C25.5603 20.1315 24.815 22.2545 23.3583 23.8411 21.9016 25.4333 19.9734 26.2294 17.5738 26.2294 14.8579 26.2294 12.6842 25.4615 11.0524 23.9258 9.42065 22.39 8.48056 20.2275 8.23216 17.4383L25.5942 17.4722Z" transform="matrix(6.12468e-17 -1 -1.00024 -6.12323e-17 2294.23 1173.97)"/><path d="M4.34475 41.1269 8.5794 41.1269C11.2218 36.9657 13.2008 32.8891 14.5164 28.8972 15.8319 24.911 16.4897 20.9502 16.4897 17.0148 16.4897 13.0625 15.8319 9.08476 14.5164 5.08158 13.2008 1.07842 11.2218-2.99813 8.5794-7.14809L4.34475-7.14809C6.68793-3.10541 8.43824 0.914684 9.59572 4.91219 10.7532 8.9097 11.3319 12.9439 11.3319 17.0148 11.3319 21.0913 10.7532 25.1143 9.59572 29.0836 8.43824 33.0585 6.68793 37.0729 4.34475 41.1269Z" transform="matrix(6.12468e-17 -1 -1.00024 -6.12323e-17 2294.23 1140.62)"/><g><path d="M0 21.6814 21.6814-21.6814-21.6814-21.6814Z" stroke="#25394F" stroke-width="5.42035" fill="none" transform="matrix(1.00024 0 0 1 2527.06 1492.96)"/><path d="M0 21.6814 21.6814-21.6814-21.6814-21.6814Z" stroke="#25394F" stroke-width="5.42035" fill="none" transform="matrix(1.00024 0 0 1 2830.62 1445.73)"/><path d="M0 21.6814 21.6814-21.6814-21.6814-21.6814Z" stroke="#25394F" stroke-width="5.42035" fill="none" transform="matrix(1.00024 0 0 1 3008.2 1409.16)"/><path d="M0 21.6814 21.6814-21.6814-21.6814-21.6814Z" stroke="#25394F" stroke-width="5.42035" fill="none" transform="matrix(1.00024 0 0 1 3134.19 1378.17)"/><path d="M0 21.6814 21.6814-21.6814-21.6814-21.6814Z" stroke="#25394F" stroke-width="5.42035" fill="none" transform="matrix(1.00024 0 0 1 3231.92 1353.45)"/><path d="M0 21.6814 21.6814-21.6814-21.6814-21.6814Z" stroke="#25394F" stroke-width="5.42035" fill="none" transform="matrix(1.00024 0 0 1 3311.76 1327.23)"/><path d="M0 21.6814 21.6814-21.6814-21.6814-21.6814Z" stroke="#25394F" stroke-width="5.42035" fill="none" transform="matrix(1.00024 0 0 1 3379.27 1304.33)"/><path d="M0 21.6814 21.6814-21.6814-21.6814-21.6814Z" stroke="#25394F" stroke-width="5.42035" fill="none" transform="matrix(1.00024 0 0 1 3437.76 1283.33)"/><path d="M0 21.6814 21.6814-21.6814-21.6814-21.6814Z" stroke="#25394F" stroke-width="5.42035" fill="none" transform="matrix(1.00024 0 0 1 3489.34 1256.18)"/><path d="M0 21.6814 21.6814-21.6814-21.6814-21.6814Z" stroke="#25394F" stroke-width="5.42035" fill="none" transform="matrix(1.00024 0 0 1 3535.48 1239.64)"/><path d="M0 21.6814 21.6814-21.6814-21.6814-21.6814Z" stroke="#25394F" stroke-width="5.42035" fill="none" transform="matrix(1.00024 0 0 1 3577.22 1218.86)"/><path d="M0 21.6814 21.6814-21.6814-21.6814-21.6814Z" stroke="#25394F" stroke-width="5.42035" fill="none" transform="matrix(1.00024 0 0 1 3615.33 1202.75)"/><path d="M0 21.6814 21.6814-21.6814-21.6814-21.6814Z" stroke="#25394F" stroke-width="5.42035" fill="none" transform="matrix(1.00024 0 0 1 3650.39 1186.59)"/><path d="M0 21.6814 21.6814-21.6814-21.6814-21.6814Z" stroke="#25394F" stroke-width="5.42035" fill="none" transform="matrix(1.00024 0 0 1 3682.84 1171.61)"/><path d="M0 21.6814 21.6814-21.6814-21.6814-21.6814Z" stroke="#25394F" stroke-width="5.42035" fill="none" transform="matrix(1.00024 0 0 1 3713.06 1150.92)"/><path d="M0 21.6814 21.6814-21.6814-21.6814-21.6814Z" stroke="#25394F" stroke-width="5.42035" fill="none" transform="matrix(1.00024 0 0 1 3741.32 1140.11)"/><path d="M0 21.6814 21.6814-21.6814-21.6814-21.6814Z" stroke="#25394F" stroke-width="5.42035" fill="none" transform="matrix(1.00024 0 0 1 3767.87 1122.29)"/><path d="M0 21.6814 21.6814-21.6814-21.6814-21.6814Z" stroke="#25394F" stroke-width="5.42035" fill="none" transform="matrix(1.00024 0 0 1 3792.91 1099.6)"/><path d="M0 21.6814 21.6814-21.6814-21.6814-21.6814Z" stroke="#25394F" stroke-width="5.42035" fill="none" transform="matrix(1.00024 0 0 1 3816.58 1094.75)"/><path d="M0 21.6814 21.6814-21.6814-21.6814-21.6814Z" stroke="#25394F" stroke-width="5.42035" fill="none" transform="matrix(1.00024 0 0 1 3839.05 1080.15)"/></g><g><path d="M0 0 0 27.1018M0 0 21.6814-13.5509M0 0-21.6814-13.5509" stroke="#B07AA1" stroke-width="5.42035" stroke-linejoin="round" fill="#B07AA1" transform="matrix(1.00024 0 0 1 2527.06 1643.54)"/><path d="M0 0 0 27.1018M0 0 21.6814-13.5509M0 0-21.6814-13.5509" stroke="#B07AA1" stroke-width="5.42035" stroke-linejoin="round" fill="#B07AA1" transform="matrix(1.00024 0 0 1 2830.62 1589.06)"/><path d="M0 0 0 27.1018M0 0 21.6814-13.5509M0 0-21.6814-13.5509" stroke="#B07AA1" stroke-width="5.42035" stroke-linejoin="round" fill="#B07AA1" transform="matrix(1.00024 0 0 1 3008.2 1557.2)"/><path d="M0 0 0 27.1018M0 0 21.6814-13.5509M0 0-21.6814-13.5509" stroke="#B07AA1" stroke-width="5.42035" stroke-linejoin="round" fill="#B07AA1" transform="matrix(1.00024 0 0 1 3134.19 1528.58)"/><path d="M0 0 0 27.1018M0 0 21.6814-13.5509M0 0-21.6814-13.5509" stroke="#B07AA1" stroke-width="5.42035" stroke-linejoin="round" fill="#B07AA1" transform="matrix(1.00024 0 0 1 3231.92 1500.48)"/><path d="M0 0 0 27.1018M0 0 21.6814-13.5509M0 0-21.6814-13.5509" stroke="#B07AA1" stroke-width="5.42035" stroke-linejoin="round" fill="#B07AA1" transform="matrix(1.00024 0 0 1 3311.76 1473.39)"/><path d="M0 0 0 27.1018M0 0 21.6814-13.5509M0 0-21.6814-13.5509" stroke="#B07AA1" stroke-width="5.42035" stroke-linejoin="round" fill="#B07AA1" transform="matrix(1.00024 0 0 1 3379.27 1457.89)"/><path d="M0 0 0 27.1018M0 0 21.6814-13.5509M0 0-21.6814-13.5509" stroke="#B07AA1" stroke-width="5.42035" stroke-linejoin="round" fill="#B07AA1" transform="matrix(1.00024 0 0 1 3437.76 1450.26)"/><path d="M0 0 0 27.1018M0 0 21.6814-13.5509M0 0-21.6814-13.5509" stroke="#B07AA1" stroke-width="5.42035" stroke-linejoin="round" fill="#B07AA1" transform="matrix(1.00024 0 0 1 3489.34 1430.39)"/><path d="M0 0 0 27.1018M0 0 21.6814-13.5509M0 0-21.6814-13.5509" stroke="#B07AA1" stroke-width="5.42035" stroke-linejoin="round" fill="#B07AA1" transform="matrix(1.00024 0 0 1 3535.48 1419.82)"/><path d="M0 0 0 27.1018M0 0 21.6814-13.5509M0 0-21.6814-13.5509" stroke="#B07AA1" stroke-width="5.42035" stroke-linejoin="round" fill="#B07AA1" transform="matrix(1.00024 0 0 1 3577.22 1404.1)"/><path d="M0 0 0 27.1018M0 0 21.6814-13.5509M0 0-21.6814-13.5509" stroke="#B07AA1" stroke-width="5.42035" stroke-linejoin="round" fill="#B07AA1" transform="matrix(1.00024 0 0 1 3615.33 1390.06)"/><path d="M0 0 0 27.1018M0 0 21.6814-13.5509M0 0-21.6814-13.5509" stroke="#B07AA1" stroke-width="5.42035" stroke-linejoin="round" fill="#B07AA1" transform="matrix(1.00024 0 0 1 3650.39 1375.49)"/><path d="M0 0 0 27.1018M0 0 21.6814-13.5509M0 0-21.6814-13.5509" stroke="#B07AA1" stroke-width="5.42035" stroke-linejoin="round" fill="#B07AA1" transform="matrix(1.00024 0 0 1 3682.84 1367.05)"/><path d="M0 0 0 27.1018M0 0 21.6814-13.5509M0 0-21.6814-13.5509" stroke="#B07AA1" stroke-width="5.42035" stroke-linejoin="round" fill="#B07AA1" transform="matrix(1.00024 0 0 1 3713.06 1359.5)"/><path d="M0 0 0 27.1018M0 0 21.6814-13.5509M0 0-21.6814-13.5509" stroke="#B07AA1" stroke-width="5.42035" stroke-linejoin="round" fill="#B07AA1" transform="matrix(1.00024 0 0 1 3741.32 1349.32)"/><path d="M0 0 0 27.1018M0 0 21.6814-13.5509M0 0-21.6814-13.5509" stroke="#B07AA1" stroke-width="5.42035" stroke-linejoin="round" fill="#B07AA1" transform="matrix(1.00024 0 0 1 3767.87 1344.39)"/><path d="M0 0 0 27.1018M0 0 21.6814-13.5509M0 0-21.6814-13.5509" stroke="#B07AA1" stroke-width="5.42035" stroke-linejoin="round" fill="#B07AA1" transform="matrix(1.00024 0 0 1 3792.91 1327.5)"/><path d="M0 0 0 27.1018M0 0 21.6814-13.5509M0 0-21.6814-13.5509" stroke="#B07AA1" stroke-width="5.42035" stroke-linejoin="round" fill="#B07AA1" transform="matrix(1.00024 0 0 1 3816.58 1318.2)"/><path d="M0 0 0 27.1018M0 0 21.6814-13.5509M0 0-21.6814-13.5509" stroke="#B07AA1" stroke-width="5.42035" stroke-linejoin="round" fill="#B07AA1" transform="matrix(1.00024 0 0 1 3839.05 1313.86)"/></g><g><path d="M212.164 1014.81 312.983 961.234 413.802 907.659 514.62 854.09 615.438 800.515 716.256 746.941 817.075 693.371 917.893 639.797 1018.71 586.227 1119.53 532.652 1220.35 479.079 1321.17 425.507 1421.99 371.934 1522.8 318.361 1623.62 264.788 1724.44 211.215" stroke="#25394F" stroke-width="4.06526" stroke-linecap="square" stroke-linejoin="round" fill="none" transform="matrix(1.00024 0 0 1 2214 818.648)"/></g><g><path d="M212.164 983.019 312.983 948.198 413.802 913.378 514.62 878.563 615.438 843.743 716.256 808.922 817.075 774.102 917.893 739.282 1018.71 704.467 1119.53 669.646 1220.35 634.826 1321.17 600.006 1421.99 565.185 1522.8 530.368 1623.62 495.548 1724.44 460.729" stroke="#B07AA1" stroke-width="4.06526" stroke-linecap="square" stroke-linejoin="round" fill="none" transform="matrix(1.00024 0 0 1 2214 818.648)"/></g><path d="M212.164 1054.98 212.164 171.036" stroke="#000000" stroke-width="4.33628" stroke-linecap="square" fill="none" transform="matrix(1.00024 0 0 1 2214 818.648)"/><path d="M1724.44 1054.98 1724.44 171.036" stroke="#000000" stroke-width="4.33628" stroke-linecap="square" fill="none" transform="matrix(1.00024 0 0 1 2214 818.648)"/><path d="M212.164 1054.98 1724.44 1054.98" stroke="#000000" stroke-width="4.33628" stroke-linecap="square" fill="none" transform="matrix(1.00024 0 0 1 2214 818.648)"/><path d="M212.164 171.036 1724.44 171.036" stroke="#000000" stroke-width="4.33628" stroke-linecap="square" fill="none" transform="matrix(1.00024 0 0 1 2214 818.648)"/><path d="M0 21.6814 21.6814-21.6814-21.6814-21.6814Z" stroke="#25394F" stroke-width="5.42035" fill="none" transform="matrix(1.00024 0 0 1 2449 901.57)"/><path d="M29.0073 38.2219 29.0073 33.0049C26.9804 33.976 25.0663 34.6987 23.2652 35.173 21.464 35.653 19.725 35.8929 18.0481 35.8929 15.1403 35.8929 12.8959 35.3282 11.315 34.199 9.73402 33.0698 8.94358 31.4634 8.94358 29.38 8.94358 27.6296 9.46868 26.3084 10.5189 25.4164 11.5691 24.5299 13.5593 23.8129 16.4897 23.2652L19.7165 22.6046C23.7028 21.8423 26.6444 20.5042 28.5415 18.5901 30.4387 16.676 31.3872 14.1155 31.3872 10.9085 31.3872 7.07468 30.1027 4.16972 27.5337 2.19355 24.9703 0.217379 21.2099-0.770706 16.2526-0.770706 14.3837-0.770706 12.3934-0.558974 10.2817-0.135509 8.17569 0.287956 5.99344 0.914684 3.73496 1.74468L3.73496 7.24972C5.9031 6.03579 8.0289 5.11828 10.1123 4.4972 12.1958 3.88176 14.2426 3.57404 16.2526 3.57404 19.3015 3.57404 21.656 4.17254 23.316 5.36954 24.976 6.57218 25.806 8.28579 25.806 10.5104 25.806 12.4471 25.2103 13.9631 24.0189 15.0584 22.8276 16.1537 20.874 16.9753 18.1582 17.523L14.8975 18.1582C10.9113 18.9486 8.02607 20.1908 6.24187 21.8847 4.46332 23.5785 3.57404 25.9358 3.57404 28.9565 3.57404 32.4516 4.80491 35.2041 7.26666 37.2141 9.72843 39.2241 13.1189 40.2292 17.4383 40.2292 19.2959 40.2292 21.1845 40.0598 23.1042 39.721 25.0296 39.3879 26.9973 38.8882 29.0073 38.2219Z" transform="matrix(1.00024 0 0 -1 2546.59 920.542)"/><path d="M5.10699 29.6425 9.97683 29.6425 9.97683 0 5.10699 0 5.10699 29.6425ZM5.10699 41.1862 9.97683 41.1862 9.97683 35.0121 5.10699 35.0121 5.10699 41.1862Z" transform="matrix(1.00024 0 0 -1 2581.01 920.542)"/><path d="M29.7526 17.8956 29.7526 0 24.8828 0 24.8828 17.7347C24.8828 20.5408 24.3351 22.6384 23.2398 24.0274 22.1444 25.422 20.5042 26.1193 18.3191 26.1193 15.6879 26.1193 13.613 25.2809 12.0942 23.6039 10.5754 21.9327 9.81592 19.6488 9.81592 16.7523L9.81592 0 4.92066 0 4.92066 29.6425 9.81592 29.6425 9.81592 25.0352C10.9847 26.8195 12.3567 28.1519 13.932 29.0328 15.513 29.9136 17.3367 30.354 19.4032 30.354 22.8078 30.354 25.3825 29.301 27.1272 27.1949 28.8775 25.0889 29.7526 21.9891 29.7526 17.8956Z" transform="matrix(1.00024 0 0 -1 2596.07 920.542)"/><path d="M24.6118 15.1685C24.6118 18.6974 23.8834 21.4301 22.4267 23.3668 20.9757 25.3091 18.9346 26.2802 16.3034 26.2802 13.6949 26.2802 11.6622 25.3091 10.2055 23.3668 8.74879 21.4301 8.02043 18.6974 8.02043 15.1685 8.02043 11.6565 8.74879 8.92943 10.2055 6.98717 11.6622 5.04488 13.6949 4.07373 16.3034 4.07373 18.9346 4.07373 20.9757 5.04488 22.4267 6.98717 23.8834 8.92943 24.6118 11.6565 24.6118 15.1685ZM29.4816 3.67568C29.4816-1.36638 28.3609-5.11828 26.1193-7.58002 23.8834-10.0418 20.4534-11.2726 15.8291-11.2726 14.1183-11.2726 12.5035-11.1456 10.9847-10.8915 9.46588-10.6374 7.9922-10.2451 6.56371-9.71428L6.56371-4.97995C7.9922-5.75347 9.40372-6.32375 10.7984-6.69075 12.193-7.0634 13.613-7.24972 15.0584-7.24972 18.2541-7.24972 20.6454-6.41691 22.2319-4.75128 23.8185-3.08564 24.6118-0.567443 24.6118 2.80334L24.6118 5.21709C23.6067 3.46676 22.3194 2.15967 20.7498 1.2958 19.1802 0.431934 17.3 0 15.1092 0 11.4787 0 8.5512 1.38332 6.32657 4.14996 4.10196 6.92224 2.98966 10.5951 2.98966 15.1685 2.98966 19.7532 4.10196 23.4289 6.32657 26.1955 8.5512 28.9678 11.4787 30.354 15.1092 30.354 17.3 30.354 19.1802 29.922 20.7498 29.0582 22.3194 28.1943 23.6067 26.89 24.6118 25.1453L24.6118 29.6425 29.4816 29.6425 29.4816 3.67568Z" transform="matrix(1.00024 0 0 -1 2630.43 920.542)"/><path d="M5.10699 41.1862 9.97683 41.1862 9.97683 0 5.10699 0 5.10699 41.1862Z" transform="matrix(1.00024 0 0 -1 2664.85 920.542)"/><path d="M30.4641 16.0409 30.4641 13.661 8.07124 13.661C8.28579 10.3071 9.2965 7.75223 11.1033 5.99626 12.91 4.2403 15.4283 3.36231 18.6579 3.36231 20.5268 3.36231 22.3392 3.59098 24.0952 4.04832 25.8511 4.50567 27.5958 5.1945 29.3292 6.11483L29.3292 1.50754C27.5788 0.767883 25.7862 0.203263 23.9512-0.186325 22.1161-0.575912 20.2558-0.770706 18.3699-0.770706 13.6384-0.770706 9.89214 0.604143 7.13115 3.35384 4.37016 6.10918 2.98966 9.83565 2.98966 14.5333 2.98966 19.3834 4.29958 23.2313 6.91942 26.077 9.53922 28.9283 13.0738 30.354 17.523 30.354 21.5092 30.354 24.6626 29.0694 26.9832 26.5004 29.3038 23.937 30.4641 20.4506 30.4641 16.0409ZM25.5942 17.4722C25.5603 20.1315 24.815 22.2545 23.3583 23.8411 21.9016 25.4333 19.9734 26.2294 17.5738 26.2294 14.8579 26.2294 12.6842 25.4615 11.0524 23.9258 9.42065 22.39 8.48056 20.2275 8.23216 17.4383L25.5942 17.4722Z" transform="matrix(1.00024 0 0 -1 2679.91 920.542)"/><path d="M18.5308 34.2498 11.2726 14.5841 25.806 14.5841 18.5308 34.2498ZM15.5073 39.5177 21.5713 39.5177 36.6297 0 31.0739 0 27.4744 10.1378 9.66347 10.1378 6.06402 0 0.423465 0 15.5073 39.5177Z" transform="matrix(1.00024 0 0 -1 2730.5 920.542)"/><path d="M9.81592 4.44638 9.81592-11.2726 4.92066-11.2726 4.92066 29.6425 9.81592 29.6425 9.81592 25.1453C10.8435 26.907 12.1365 28.214 13.6949 29.0666 15.2589 29.9248 17.1249 30.354 19.2931 30.354 22.8953 30.354 25.8201 28.9254 28.0673 26.0685 30.3201 23.2116 31.4465 19.454 31.4465 14.7959 31.4465 10.1378 30.3201 6.37738 28.0673 3.51476 25.8201 0.657782 22.8953-0.770706 19.2931-0.770706 17.1249-0.770706 15.2589-0.341595 13.6949 0.516627 12.1365 1.37485 10.8435 2.68477 9.81592 4.44638ZM26.3903 14.7959C26.3903 18.3756 25.6535 21.1845 24.1798 23.2228 22.7062 25.2611 20.682 26.2802 18.1074 26.2802 15.527 26.2802 13.5001 25.2611 12.0264 23.2228 10.5527 21.1845 9.81592 18.3756 9.81592 14.7959 9.81592 11.2161 10.5527 8.40719 12.0264 6.36891 13.5001 4.33063 15.527 3.3115 18.1074 3.3115 20.682 3.3115 22.7062 4.33063 24.1798 6.36891 25.6535 8.40719 26.3903 11.2161 26.3903 14.7959Z" transform="matrix(1.00024 0 0 -1 2767.59 920.542)"/><path d="M9.81592 4.44638 9.81592-11.2726 4.92066-11.2726 4.92066 29.6425 9.81592 29.6425 9.81592 25.1453C10.8435 26.907 12.1365 28.214 13.6949 29.0666 15.2589 29.9248 17.1249 30.354 19.2931 30.354 22.8953 30.354 25.8201 28.9254 28.0673 26.0685 30.3201 23.2116 31.4465 19.454 31.4465 14.7959 31.4465 10.1378 30.3201 6.37738 28.0673 3.51476 25.8201 0.657782 22.8953-0.770706 19.2931-0.770706 17.1249-0.770706 15.2589-0.341595 13.6949 0.516627 12.1365 1.37485 10.8435 2.68477 9.81592 4.44638ZM26.3903 14.7959C26.3903 18.3756 25.6535 21.1845 24.1798 23.2228 22.7062 25.2611 20.682 26.2802 18.1074 26.2802 15.527 26.2802 13.5001 25.2611 12.0264 23.2228 10.5527 21.1845 9.81592 18.3756 9.81592 14.7959 9.81592 11.2161 10.5527 8.40719 12.0264 6.36891 13.5001 4.33063 15.527 3.3115 18.1074 3.3115 20.682 3.3115 22.7062 4.33063 24.1798 6.36891 25.6535 8.40719 26.3903 11.2161 26.3903 14.7959Z" transform="matrix(1.00024 0 0 -1 2802 920.542)"/><path d="M22.2827 25.0945C21.735 25.4107 21.1394 25.6422 20.4957 25.789 19.852 25.9415 19.1434 26.0177 18.3699 26.0177 15.6146 26.0177 13.5001 25.1227 12.0264 23.3329 10.5527 21.5431 9.81592 18.9712 9.81592 15.6174L9.81592 0 4.92066 0 4.92066 29.6425 9.81592 29.6425 9.81592 25.0352C10.8435 26.8364 12.1761 28.1717 13.8134 29.0412 15.4565 29.9164 17.4524 30.354 19.8012 30.354 20.1343 30.354 20.5042 30.3314 20.9107 30.2862 21.3172 30.2467 21.7661 30.1818 22.2573 30.0914L22.2827 25.0945Z" transform="matrix(1.00024 0 0 -1 2836.42 920.542)"/><path d="M16.5914 26.2294C13.9828 26.2294 11.9191 25.2103 10.4003 23.172 8.8815 21.1337 8.12206 18.3417 8.12206 14.7959 8.12206 11.25 8.87582 8.45801 10.3834 6.41973 11.8966 4.38145 13.9659 3.36231 16.5914 3.36231 19.1886 3.36231 21.2438 4.38428 22.757 6.4282 24.2758 8.47777 25.0352 11.267 25.0352 14.7959 25.0352 18.3078 24.2758 21.0913 22.757 23.1466 21.2438 25.2018 19.1886 26.2294 16.5914 26.2294ZM16.5914 30.354C20.826 30.354 24.1516 28.9763 26.5682 26.2209 28.9904 23.4712 30.2015 19.6629 30.2015 14.7959 30.2015 9.94575 28.9904 6.13742 26.5682 3.37078 24.1516 0.609789 20.826-0.770706 16.5914-0.770706 12.3398-0.770706 9.00854 0.609789 6.59758 3.37078 4.1923 6.13742 2.98966 9.94575 2.98966 14.7959 2.98966 19.6629 4.1923 23.4712 6.59758 26.2209 9.00854 28.9763 12.3398 30.354 16.5914 30.354Z" transform="matrix(1.00024 0 0 -1 2857.49 920.542)"/><path d="M18.5816 14.8975C14.6462 14.8975 11.9191 14.4486 10.4003 13.5509 8.8815 12.6531 8.12206 11.1174 8.12206 8.94358 8.12206 7.21584 8.6923 5.84382 9.83286 4.8275 10.9734 3.81683 12.5204 3.3115 14.474 3.3115 17.1785 3.3115 19.3467 4.26853 20.9785 6.18259 22.6102 8.09665 23.4261 10.6402 23.4261 13.8134L23.4261 14.8975 18.5816 14.8975ZM28.2959 16.9132 28.2959 0 23.4261 0 23.4261 4.4972C22.3138 2.70171 20.9276 1.37485 19.2677 0.516627 17.6077-0.341595 15.5778-0.770706 13.1782-0.770706 10.1462-0.770706 7.73247 0.0818699 5.93698 1.78702 4.14714 3.49217 3.25221 5.77324 3.25221 8.63021 3.25221 11.9614 4.36734 14.474 6.59758 16.1679 8.83348 17.8617 12.1647 18.7087 16.5914 18.7087L23.4261 18.7087 23.4261 19.1914C23.4261 21.433 22.6893 23.1663 21.2156 24.3916 19.7419 25.6168 17.6726 26.2294 15.0076 26.2294 13.3137 26.2294 11.6622 26.0262 10.0531 25.6196 8.44954 25.2131 6.90813 24.6033 5.42882 23.7903L5.42882 28.2959C7.20737 28.9847 8.93511 29.4986 10.612 29.8373 12.289 30.1818 13.9207 30.354 15.5073 30.354 19.7984 30.354 23.0026 29.2417 25.1199 27.0171 27.2373 24.7981 28.2959 21.4301 28.2959 16.9132Z" transform="matrix(1.00024 0 0 -1 2890.66 920.542)"/><path d="M26.4412 28.5077 26.4412 23.9512C25.0634 24.7134 23.683 25.2837 22.2997 25.662 20.9164 26.0403 19.5189 26.2294 18.1074 26.2294 14.9455 26.2294 12.4894 25.2272 10.7391 23.2228 8.9944 21.2241 8.12206 18.4151 8.12206 14.7959 8.12206 11.1767 8.9944 8.36485 10.7391 6.36044 12.4894 4.36169 14.9455 3.36231 18.1074 3.36231 19.5189 3.36231 20.9164 3.55146 22.2997 3.92975 23.683 4.30805 25.0634 4.87832 26.4412 5.64055L26.4412 1.13489C25.0804 0.502511 23.6717 0.028231 22.215-0.287956 20.7639-0.609789 19.2168-0.770706 17.5738-0.770706 13.1077-0.770706 9.55904 0.632375 6.92789 3.43854 4.3024 6.24469 2.98966 10.0304 2.98966 14.7959 2.98966 19.629 4.31652 23.4289 6.97023 26.1955 9.62959 28.9678 13.2714 30.354 17.8956 30.354 19.3919 30.354 20.8542 30.1987 22.2827 29.8882 23.7112 29.5833 25.0973 29.1231 26.4412 28.5077Z" transform="matrix(1.00024 0 0 -1 2923.88 920.542)"/><path d="M29.7526 17.8956 29.7526 0 24.8828 0 24.8828 17.7347C24.8828 20.5408 24.3351 22.6384 23.2398 24.0274 22.1444 25.422 20.5042 26.1193 18.3191 26.1193 15.6879 26.1193 13.613 25.2809 12.0942 23.6039 10.5754 21.9327 9.81592 19.6488 9.81592 16.7523L9.81592 0 4.92066 0 4.92066 41.1862 9.81592 41.1862 9.81592 25.0352C10.9847 26.8195 12.3567 28.1519 13.932 29.0328 15.513 29.9136 17.3367 30.354 19.4032 30.354 22.8078 30.354 25.3825 29.301 27.1272 27.1949 28.8775 25.0889 29.7526 21.9891 29.7526 17.8956Z" transform="matrix(1.00024 0 0 -1 2953.69 920.542)"/><path d="M16.8031 41.1269C14.4429 37.0729 12.687 33.0585 11.5352 29.0836 10.389 25.1143 9.81592 21.0913 9.81592 17.0148 9.81592 12.9439 10.3946 8.9097 11.5521 4.91219 12.7096 0.914684 14.4599-3.10541 16.8031-7.14809L12.5684-7.14809C9.92602-2.99813 7.94702 1.07842 6.63146 5.08158 5.3159 9.08476 4.65811 13.0625 4.65811 17.0148 4.65811 20.9502 5.31025 24.911 6.61452 28.8972 7.92444 32.8891 9.90908 36.9657 12.5684 41.1269L16.8031 41.1269Z" transform="matrix(1.00024 0 0 -1 3005.29 920.542)"/><path d="M5.31872 39.5177 10.6628 39.5177 10.6628 0 5.31872 0 5.31872 39.5177Z" transform="matrix(1.00024 0 0 -1 3026.44 920.542)"/><path d="M5.31872 39.5177 28.0249 39.5177 28.0249 35.0121 10.6628 35.0121 10.6628 23.3668 26.331 23.3668 26.331 18.8696 10.6628 18.8696 10.6628 0 5.31872 0 5.31872 39.5177Z" transform="matrix(1.00024 0 0 -1 3042.43 920.542)"/><path d="M5.95392 0.821522 5.95392 5.69137C7.29772 5.05335 8.65562 4.56777 10.0276 4.23465 11.4054 3.90153 12.7576 3.73496 14.0844 3.73496 17.6133 3.73496 20.3066 4.92066 22.1642 7.29207 24.0274 9.66347 25.0917 13.2686 25.3571 18.1074 24.3351 16.5886 23.0365 15.4226 21.4612 14.6095 19.8916 13.7965 18.1554 13.39 16.2526 13.39 12.3002 13.39 9.17225 14.5841 6.8686 16.9725 4.56495 19.3665 3.41313 22.6384 3.41313 26.7884 3.41313 30.8424 4.61295 34.0946 7.01258 36.545 9.41218 39.0011 12.6051 40.2292 16.5914 40.2292 21.1648 40.2292 24.6541 38.476 27.0594 34.9697 29.4704 31.4691 30.6758 26.3847 30.6758 19.7165 30.6758 13.4888 29.1965 8.51732 26.2379 4.80209 23.2849 1.08689 19.3128-0.770706 14.3216-0.770706 12.9778-0.770706 11.6171-0.63802 10.2394-0.372649 8.86736-0.107278 7.43886 0.290779 5.95392 0.821522ZM16.5914 17.5738C18.991 17.5738 20.891 18.3925 22.2912 20.0299 23.6971 21.6729 24.4 23.9258 24.4 26.7884 24.4 29.6284 23.6971 31.8728 22.2912 33.5215 20.891 35.1702 18.991 35.9945 16.5914 35.9945 14.1917 35.9945 12.2917 35.1702 10.8915 33.5215 9.49129 31.8728 8.79113 29.6284 8.79113 26.7884 8.79113 23.9258 9.49129 21.6729 10.8915 20.0299 12.2917 18.3925 14.1917 17.5738 16.5914 17.5738Z" transform="matrix(1.00024 0 0 -1 3073.61 920.542)"/><path d="M4.44638 39.5177 29.8543 39.5177 29.8543 37.2395 15.5073 0 9.92602 0 23.4261 35.0121 4.44638 35.0121 4.44638 39.5177Z" transform="matrix(1.00024 0 0 -1 3108.11 920.542)"/><path d="M4.34475 41.1269 8.5794 41.1269C11.2218 36.9657 13.2008 32.8891 14.5164 28.8972 15.8319 24.911 16.4897 20.9502 16.4897 17.0148 16.4897 13.0625 15.8319 9.08476 14.5164 5.08158 13.2008 1.07842 11.2218-2.99813 8.5794-7.14809L4.34475-7.14809C6.68793-3.10541 8.43824 0.914684 9.59572 4.91219 10.7532 8.9097 11.3319 12.9439 11.3319 17.0148 11.3319 21.0913 10.7532 25.1143 9.59572 29.0836 8.43824 33.0585 6.68793 37.0729 4.34475 41.1269Z" transform="matrix(1.00024 0 0 -1 3142.6 920.542)"/><path d="M0 0 0 27.1018M0 0 21.6814-13.5509M0 0-21.6814-13.5509" stroke="#B07AA1" stroke-width="5.42035" stroke-linejoin="round" fill="#B07AA1" transform="matrix(1.00024 0 0 1 3326.42 901.57)"/><path d="M29.0073 38.2219 29.0073 33.0049C26.9804 33.976 25.0663 34.6987 23.2652 35.173 21.464 35.653 19.725 35.8929 18.0481 35.8929 15.1403 35.8929 12.8959 35.3282 11.315 34.199 9.73402 33.0698 8.94358 31.4634 8.94358 29.38 8.94358 27.6296 9.46868 26.3084 10.5189 25.4164 11.5691 24.5299 13.5593 23.8129 16.4897 23.2652L19.7165 22.6046C23.7028 21.8423 26.6444 20.5042 28.5415 18.5901 30.4387 16.676 31.3872 14.1155 31.3872 10.9085 31.3872 7.07468 30.1027 4.16972 27.5337 2.19355 24.9703 0.217379 21.2099-0.770706 16.2526-0.770706 14.3837-0.770706 12.3934-0.558974 10.2817-0.135509 8.17569 0.287956 5.99344 0.914684 3.73496 1.74468L3.73496 7.24972C5.9031 6.03579 8.0289 5.11828 10.1123 4.4972 12.1958 3.88176 14.2426 3.57404 16.2526 3.57404 19.3015 3.57404 21.656 4.17254 23.316 5.36954 24.976 6.57218 25.806 8.28579 25.806 10.5104 25.806 12.4471 25.2103 13.9631 24.0189 15.0584 22.8276 16.1537 20.874 16.9753 18.1582 17.523L14.8975 18.1582C10.9113 18.9486 8.02607 20.1908 6.24187 21.8847 4.46332 23.5785 3.57404 25.9358 3.57404 28.9565 3.57404 32.4516 4.80491 35.2041 7.26666 37.2141 9.72843 39.2241 13.1189 40.2292 17.4383 40.2292 19.2959 40.2292 21.1845 40.0598 23.1042 39.721 25.0296 39.3879 26.9973 38.8882 29.0073 38.2219Z" transform="matrix(1.00024 0 0 -1 3424.01 920.542)"/><path d="M9.81592 4.44638 9.81592-11.2726 4.92066-11.2726 4.92066 29.6425 9.81592 29.6425 9.81592 25.1453C10.8435 26.907 12.1365 28.214 13.6949 29.0666 15.2589 29.9248 17.1249 30.354 19.2931 30.354 22.8953 30.354 25.8201 28.9254 28.0673 26.0685 30.3201 23.2116 31.4465 19.454 31.4465 14.7959 31.4465 10.1378 30.3201 6.37738 28.0673 3.51476 25.8201 0.657782 22.8953-0.770706 19.2931-0.770706 17.1249-0.770706 15.2589-0.341595 13.6949 0.516627 12.1365 1.37485 10.8435 2.68477 9.81592 4.44638ZM26.3903 14.7959C26.3903 18.3756 25.6535 21.1845 24.1798 23.2228 22.7062 25.2611 20.682 26.2802 18.1074 26.2802 15.527 26.2802 13.5001 25.2611 12.0264 23.2228 10.5527 21.1845 9.81592 18.3756 9.81592 14.7959 9.81592 11.2161 10.5527 8.40719 12.0264 6.36891 13.5001 4.33063 15.527 3.3115 18.1074 3.3115 20.682 3.3115 22.7062 4.33063 24.1798 6.36891 25.6535 8.40719 26.3903 11.2161 26.3903 14.7959Z" transform="matrix(1.00024 0 0 -1 3458.42 920.542)"/><path d="M5.10699 41.1862 9.97683 41.1862 9.97683 0 5.10699 0 5.10699 41.1862Z" transform="matrix(1.00024 0 0 -1 3492.84 920.542)"/><path d="M5.10699 29.6425 9.97683 29.6425 9.97683 0 5.10699 0 5.10699 29.6425ZM5.10699 41.1862 9.97683 41.1862 9.97683 35.0121 5.10699 35.0121 5.10699 41.1862Z" transform="matrix(1.00024 0 0 -1 3507.9 920.542)"/><path d="M9.92602 38.061 9.92602 29.6425 19.9537 29.6425 19.9537 25.8568 9.92602 25.8568 9.92602 9.7651C9.92602 7.34853 10.2563 5.79582 10.9169 5.10699 11.5775 4.41815 12.9241 4.07373 14.9568 4.07373L19.9537 4.07373 19.9537 0 14.9568 0C11.1964 0 8.60201 0.700129 7.1735 2.10039 5.745 3.50629 5.03076 6.0612 5.03076 9.7651L5.03076 25.8568 1.45672 25.8568 1.45672 29.6425 5.03076 29.6425 5.03076 38.061 9.92602 38.061Z" transform="matrix(1.00024 0 0 -1 3522.96 920.542)"/><path d="M18.5308 34.2498 11.2726 14.5841 25.806 14.5841 18.5308 34.2498ZM15.5073 39.5177 21.5713 39.5177 36.6297 0 31.0739 0 27.4744 10.1378 9.66347 10.1378 6.06402 0 0.423465 0 15.5073 39.5177Z" transform="matrix(1.00024 0 0 -1 3561.45 920.542)"/><path d="M9.81592 4.44638 9.81592-11.2726 4.92066-11.2726 4.92066 29.6425 9.81592 29.6425 9.81592 25.1453C10.8435 26.907 12.1365 28.214 13.6949 29.0666 15.2589 29.9248 17.1249 30.354 19.2931 30.354 22.8953 30.354 25.8201 28.9254 28.0673 26.0685 30.3201 23.2116 31.4465 19.454 31.4465 14.7959 31.4465 10.1378 30.3201 6.37738 28.0673 3.51476 25.8201 0.657782 22.8953-0.770706 19.2931-0.770706 17.1249-0.770706 15.2589-0.341595 13.6949 0.516627 12.1365 1.37485 10.8435 2.68477 9.81592 4.44638ZM26.3903 14.7959C26.3903 18.3756 25.6535 21.1845 24.1798 23.2228 22.7062 25.2611 20.682 26.2802 18.1074 26.2802 15.527 26.2802 13.5001 25.2611 12.0264 23.2228 10.5527 21.1845 9.81592 18.3756 9.81592 14.7959 9.81592 11.2161 10.5527 8.40719 12.0264 6.36891 13.5001 4.33063 15.527 3.3115 18.1074 3.3115 20.682 3.3115 22.7062 4.33063 24.1798 6.36891 25.6535 8.40719 26.3903 11.2161 26.3903 14.7959Z" transform="matrix(1.00024 0 0 -1 3598.54 920.542)"/><path d="M9.81592 4.44638 9.81592-11.2726 4.92066-11.2726 4.92066 29.6425 9.81592 29.6425 9.81592 25.1453C10.8435 26.907 12.1365 28.214 13.6949 29.0666 15.2589 29.9248 17.1249 30.354 19.2931 30.354 22.8953 30.354 25.8201 28.9254 28.0673 26.0685 30.3201 23.2116 31.4465 19.454 31.4465 14.7959 31.4465 10.1378 30.3201 6.37738 28.0673 3.51476 25.8201 0.657782 22.8953-0.770706 19.2931-0.770706 17.1249-0.770706 15.2589-0.341595 13.6949 0.516627 12.1365 1.37485 10.8435 2.68477 9.81592 4.44638ZM26.3903 14.7959C26.3903 18.3756 25.6535 21.1845 24.1798 23.2228 22.7062 25.2611 20.682 26.2802 18.1074 26.2802 15.527 26.2802 13.5001 25.2611 12.0264 23.2228 10.5527 21.1845 9.81592 18.3756 9.81592 14.7959 9.81592 11.2161 10.5527 8.40719 12.0264 6.36891 13.5001 4.33063 15.527 3.3115 18.1074 3.3115 20.682 3.3115 22.7062 4.33063 24.1798 6.36891 25.6535 8.40719 26.3903 11.2161 26.3903 14.7959Z" transform="matrix(1.00024 0 0 -1 3632.96 920.542)"/><path d="M22.2827 25.0945C21.735 25.4107 21.1394 25.6422 20.4957 25.789 19.852 25.9415 19.1434 26.0177 18.3699 26.0177 15.6146 26.0177 13.5001 25.1227 12.0264 23.3329 10.5527 21.5431 9.81592 18.9712 9.81592 15.6174L9.81592 0 4.92066 0 4.92066 29.6425 9.81592 29.6425 9.81592 25.0352C10.8435 26.8364 12.1761 28.1717 13.8134 29.0412 15.4565 29.9164 17.4524 30.354 19.8012 30.354 20.1343 30.354 20.5042 30.3314 20.9107 30.2862 21.3172 30.2467 21.7661 30.1818 22.2573 30.0914L22.2827 25.0945Z" transform="matrix(1.00024 0 0 -1 3667.37 920.542)"/><path d="M16.5914 26.2294C13.9828 26.2294 11.9191 25.2103 10.4003 23.172 8.8815 21.1337 8.12206 18.3417 8.12206 14.7959 8.12206 11.25 8.87582 8.45801 10.3834 6.41973 11.8966 4.38145 13.9659 3.36231 16.5914 3.36231 19.1886 3.36231 21.2438 4.38428 22.757 6.4282 24.2758 8.47777 25.0352 11.267 25.0352 14.7959 25.0352 18.3078 24.2758 21.0913 22.757 23.1466 21.2438 25.2018 19.1886 26.2294 16.5914 26.2294ZM16.5914 30.354C20.826 30.354 24.1516 28.9763 26.5682 26.2209 28.9904 23.4712 30.2015 19.6629 30.2015 14.7959 30.2015 9.94575 28.9904 6.13742 26.5682 3.37078 24.1516 0.609789 20.826-0.770706 16.5914-0.770706 12.3398-0.770706 9.00854 0.609789 6.59758 3.37078 4.1923 6.13742 2.98966 9.94575 2.98966 14.7959 2.98966 19.6629 4.1923 23.4712 6.59758 26.2209 9.00854 28.9763 12.3398 30.354 16.5914 30.354Z" transform="matrix(1.00024 0 0 -1 3688.44 920.542)"/><path d="M18.5816 14.8975C14.6462 14.8975 11.9191 14.4486 10.4003 13.5509 8.8815 12.6531 8.12206 11.1174 8.12206 8.94358 8.12206 7.21584 8.6923 5.84382 9.83286 4.8275 10.9734 3.81683 12.5204 3.3115 14.474 3.3115 17.1785 3.3115 19.3467 4.26853 20.9785 6.18259 22.6102 8.09665 23.4261 10.6402 23.4261 13.8134L23.4261 14.8975 18.5816 14.8975ZM28.2959 16.9132 28.2959 0 23.4261 0 23.4261 4.4972C22.3138 2.70171 20.9276 1.37485 19.2677 0.516627 17.6077-0.341595 15.5778-0.770706 13.1782-0.770706 10.1462-0.770706 7.73247 0.0818699 5.93698 1.78702 4.14714 3.49217 3.25221 5.77324 3.25221 8.63021 3.25221 11.9614 4.36734 14.474 6.59758 16.1679 8.83348 17.8617 12.1647 18.7087 16.5914 18.7087L23.4261 18.7087 23.4261 19.1914C23.4261 21.433 22.6893 23.1663 21.2156 24.3916 19.7419 25.6168 17.6726 26.2294 15.0076 26.2294 13.3137 26.2294 11.6622 26.0262 10.0531 25.6196 8.44954 25.2131 6.90813 24.6033 5.42882 23.7903L5.42882 28.2959C7.20737 28.9847 8.93511 29.4986 10.612 29.8373 12.289 30.1818 13.9207 30.354 15.5073 30.354 19.7984 30.354 23.0026 29.2417 25.1199 27.0171 27.2373 24.7981 28.2959 21.4301 28.2959 16.9132Z" transform="matrix(1.00024 0 0 -1 3721.61 920.542)"/><path d="M26.4412 28.5077 26.4412 23.9512C25.0634 24.7134 23.683 25.2837 22.2997 25.662 20.9164 26.0403 19.5189 26.2294 18.1074 26.2294 14.9455 26.2294 12.4894 25.2272 10.7391 23.2228 8.9944 21.2241 8.12206 18.4151 8.12206 14.7959 8.12206 11.1767 8.9944 8.36485 10.7391 6.36044 12.4894 4.36169 14.9455 3.36231 18.1074 3.36231 19.5189 3.36231 20.9164 3.55146 22.2997 3.92975 23.683 4.30805 25.0634 4.87832 26.4412 5.64055L26.4412 1.13489C25.0804 0.502511 23.6717 0.028231 22.215-0.287956 20.7639-0.609789 19.2168-0.770706 17.5738-0.770706 13.1077-0.770706 9.55904 0.632375 6.92789 3.43854 4.3024 6.24469 2.98966 10.0304 2.98966 14.7959 2.98966 19.629 4.31652 23.4289 6.97023 26.1955 9.62959 28.9678 13.2714 30.354 17.8956 30.354 19.3919 30.354 20.8542 30.1987 22.2827 29.8882 23.7112 29.5833 25.0973 29.1231 26.4412 28.5077Z" transform="matrix(1.00024 0 0 -1 3754.84 920.542)"/><path d="M29.7526 17.8956 29.7526 0 24.8828 0 24.8828 17.7347C24.8828 20.5408 24.3351 22.6384 23.2398 24.0274 22.1444 25.422 20.5042 26.1193 18.3191 26.1193 15.6879 26.1193 13.613 25.2809 12.0942 23.6039 10.5754 21.9327 9.81592 19.6488 9.81592 16.7523L9.81592 0 4.92066 0 4.92066 41.1862 9.81592 41.1862 9.81592 25.0352C10.9847 26.8195 12.3567 28.1519 13.932 29.0328 15.513 29.9136 17.3367 30.354 19.4032 30.354 22.8078 30.354 25.3825 29.301 27.1272 27.1949 28.8775 25.0889 29.7526 21.9891 29.7526 17.8956Z" transform="matrix(1.00024 0 0 -1 3784.64 920.542)"/><path d="M3142.12 1154.75C3140.14 1154.75 3138.13 1155.71 3136.08 1157.65 3134.03 1159.58 3132.39 1161.82 3131.16 1164.36 3129.93 1166.91 3128.81 1170.5 3127.79 1175.14L3127.43 1176.8C3126.95 1179.02 3126.71 1181.19 3126.71 1183.32 3126.71 1185.5 3127.08 1187.08 3127.81 1188.04 3128.55 1188.99 3129.78 1189.47 3131.52 1189.47 3133.02 1189.47 3134.38 1189.14 3135.61 1188.46 3136.83 1187.79 3137.99 1186.69 3139.09 1185.16 3140.18 1183.63 3141.24 1181.66 3142.28 1179.25 3143.31 1176.84 3144.2 1173.96 3144.95 1170.61 3145.7 1167.25 3146.07 1164.14 3146.07 1161.26 3146.07 1159.05 3145.75 1157.41 3145.11 1156.34 3144.46 1155.28 3143.47 1154.75 3142.12 1154.75ZM3122.31 1148.14C3124.79 1148.14 3126.78 1148.84 3128.26 1150.23 3129.74 1151.63 3130.48 1153.46 3130.48 1155.74 3130.48 1156.48 3130.39 1157.2 3130.22 1157.89L3130.66 1158.25C3133.42 1154.75 3136.08 1152.19 3138.66 1150.57 3141.24 1148.95 3144.22 1148.14 3147.6 1148.14 3150.98 1148.14 3153.61 1149.37 3155.48 1151.83 3157.36 1154.28 3158.29 1157.83 3158.29 1162.47 3158.29 1166.52 3157.71 1170.53 3156.54 1174.51 3155.37 1178.5 3153.69 1181.93 3151.51 1184.82 3149.32 1187.71 3146.57 1189.99 3143.26 1191.65 3139.96 1193.31 3136.22 1194.14 3132.06 1194.14 3129.39 1194.14 3126.82 1193.68 3124.33 1192.75L3122.62 1200.75C3122.35 1202.07 3122.16 1203.09 3122.04 1203.83 3121.92 1204.56 3121.86 1205.24 3121.86 1205.87 3121.86 1207.16 3122.2 1208.09 3122.87 1208.65 3123.54 1209.22 3124.7 1209.6 3126.35 1209.78L3125.86 1212.74 3107.17 1212.74 3118.54 1162.21C3118.98 1160.2 3119.21 1158.72 3119.21 1157.76 3119.21 1156.77 3119.04 1156.01 3118.72 1155.47 3118.39 1154.93 3117.82 1154.66 3117.01 1154.66 3116.08 1154.66 3115.08 1155.08 3114 1155.92 3112.92 1156.75 3111.66 1158 3110.22 1159.64L3106.99 1156.41C3109.99 1153.36 3112.64 1151.21 3114.96 1149.99 3117.29 1148.76 3119.73 1148.14 3122.31 1148.14Z" fill="#25394F" fill-rule="evenodd"/><text fill="#000000" fill-opacity="0" font-family="Arial,Arial_MSFontService,sans-serif" font-size="64.5977" x="3106.99" y="1204.67"></text><path d="M3194.78 1173.48 3250.13 1173.48 3250.13 1179.46 3194.78 1179.46ZM3194.78 1154.84 3250.13 1154.84 3250.13 1160.81 3194.78 1160.81Z" fill="#25394F" fill-rule="evenodd"/><text fill="#000000" fill-opacity="0" font-family="Arial,Arial_MSFontService,sans-serif" font-size="24.6172" x="3194.78" y="1176.38">=</text><path d="M3309.75 1131.39C3315.41 1131.39 3319.93 1132.54 3323.32 1134.85 3326.7 1137.15 3328.39 1140.37 3328.39 1144.51 3328.39 1147.98 3327.4 1150.97 3325.4 1153.49 3323.41 1156.01 3320.08 1158.34 3315.41 1160.5L3315.41 1160.9C3319.78 1161.71 3323.23 1163.46 3325.76 1166.16 3328.29 1168.85 3329.56 1172.19 3329.56 1176.18 3329.56 1179.65 3328.71 1182.74 3327.02 1185.45 3325.33 1188.16 3322.76 1190.29 3319.32 1191.83 3315.87 1193.37 3311.7 1194.14 3306.78 1194.14 3303.4 1194.14 3300.08 1193.84 3296.81 1193.22 3293.55 1192.61 3290.7 1191.75 3288.28 1190.64L3288.28 1179.37 3296.36 1179.37C3297.23 1182.78 3298.46 1185.26 3300.05 1186.8 3301.63 1188.34 3303.71 1189.11 3306.29 1189.11 3312.64 1189.11 3315.81 1185.19 3315.81 1177.34 3315.81 1173.12 3314.7 1169.98 3312.47 1167.91 3310.24 1165.84 3306.84 1164.81 3302.29 1164.81L3298.74 1164.81 3298.74 1159.69C3303.95 1159.48 3307.91 1158.26 3310.6 1156.03 3313.3 1153.8 3314.65 1150.57 3314.65 1146.35 3314.65 1143.02 3313.97 1140.52 3312.62 1138.82 3311.28 1137.13 3309.31 1136.29 3306.74 1136.29 3304.22 1136.29 3302.16 1137.18 3300.54 1138.98 3298.92 1140.78 3297.81 1143.41 3297.22 1146.89L3289.13 1146.89 3289.13 1136.24C3296.71 1133.01 3303.58 1131.39 3309.75 1131.39Z" fill="#25394F" fill-rule="evenodd"/><text fill="#000000" fill-opacity="0" font-family="Arial,Arial_MSFontService,sans-serif" font-size="62.7559" x="3288.28" y="1186.3"></text><path d="M3342.2 1183 3351.27 1183 3351.27 1193.43 3342.2 1193.43Z" fill="#25394F" fill-rule="evenodd"/><text fill="#000000" fill-opacity="0" font-family="Arial,Arial_MSFontService,sans-serif" font-size="10.4219" x="3342.2" y="1192.12">.</text><path d="M3398.94 1131.39C3404.6 1131.39 3409.12 1132.54 3412.51 1134.85 3415.89 1137.15 3417.58 1140.37 3417.58 1144.51 3417.58 1147.98 3416.59 1150.97 3414.6 1153.49 3412.6 1156.01 3409.27 1158.34 3404.6 1160.5L3404.6 1160.9C3408.97 1161.71 3412.43 1163.46 3414.96 1166.16 3417.49 1168.85 3418.75 1172.19 3418.75 1176.18 3418.75 1179.65 3417.91 1182.74 3416.21 1185.45 3414.52 1188.16 3411.95 1190.29 3408.51 1191.83 3405.07 1193.37 3400.89 1194.14 3395.98 1194.14 3392.59 1194.14 3389.27 1193.84 3386 1193.22 3382.74 1192.61 3379.89 1191.75 3377.47 1190.64L3377.47 1179.37 3385.55 1179.37C3386.42 1182.78 3387.65 1185.26 3389.24 1186.8 3390.82 1188.34 3392.91 1189.11 3395.48 1189.11 3401.83 1189.11 3405.01 1185.19 3405.01 1177.34 3405.01 1173.12 3403.89 1169.98 3401.66 1167.91 3399.43 1165.84 3396.04 1164.81 3391.48 1164.81L3387.94 1164.81 3387.94 1159.69C3393.15 1159.48 3397.1 1158.26 3399.79 1156.03 3402.49 1153.8 3403.84 1150.57 3403.84 1146.35 3403.84 1143.02 3403.16 1140.52 3401.82 1138.82 3400.47 1137.13 3398.51 1136.29 3395.93 1136.29 3393.42 1136.29 3391.35 1137.18 3389.73 1138.98 3388.11 1140.78 3387.01 1143.41 3386.41 1146.89L3378.32 1146.89 3378.32 1136.24C3385.9 1133.01 3392.77 1131.39 3398.94 1131.39Z" fill="#25394F" fill-rule="evenodd"/><text fill="#000000" fill-opacity="0" font-family="Arial,Arial_MSFontService,sans-serif" font-size="62.7559" x="3377.47" y="1186.3"></text><path d="M3363.27 1568.39C3361.29 1568.39 3359.27 1569.36 3357.22 1571.29 3355.17 1573.22 3353.53 1575.46 3352.3 1578.01 3351.08 1580.55 3349.95 1584.15 3348.94 1588.79L3348.58 1590.45C3348.1 1592.67 3347.86 1594.84 3347.86 1596.96 3347.86 1599.15 3348.22 1600.72 3348.96 1601.68 3349.69 1602.64 3350.93 1603.12 3352.66 1603.12 3354.16 1603.12 3355.52 1602.78 3356.75 1602.11 3357.98 1601.43 3359.14 1600.33 3360.23 1598.81 3361.33 1597.28 3362.39 1595.31 3363.42 1592.9 3364.46 1590.49 3365.35 1587.61 3366.1 1584.25 3366.84 1580.9 3367.22 1577.78 3367.22 1574.91 3367.22 1572.69 3366.9 1571.05 3366.25 1569.99 3365.61 1568.93 3364.61 1568.39 3363.27 1568.39ZM3343.45 1561.79C3345.94 1561.79 3347.92 1562.49 3349.41 1563.88 3350.89 1565.27 3351.63 1567.11 3351.63 1569.38 3351.63 1570.13 3351.54 1570.85 3351.36 1571.54L3351.81 1571.9C3354.57 1568.39 3357.23 1565.83 3359.81 1564.22 3362.38 1562.6 3365.36 1561.79 3368.75 1561.79 3372.13 1561.79 3374.76 1563.02 3376.63 1565.47 3378.5 1567.93 3379.44 1571.48 3379.44 1576.12 3379.44 1580.16 3378.85 1584.18 3377.69 1588.16 3376.52 1592.14 3374.84 1595.58 3372.65 1598.47 3370.47 1601.36 3367.72 1603.64 3364.41 1605.3 3361.1 1606.96 3357.37 1607.79 3353.2 1607.79 3350.54 1607.79 3347.96 1607.33 3345.48 1606.4L3343.77 1614.39C3343.5 1615.71 3343.31 1616.74 3343.19 1617.47 3343.07 1618.2 3343.01 1618.89 3343.01 1619.51 3343.01 1620.8 3343.34 1621.73 3344.02 1622.3 3344.69 1622.87 3345.85 1623.24 3347.5 1623.42L3347 1626.39 3328.32 1626.39 3339.68 1575.85C3340.13 1573.84 3340.36 1572.36 3340.36 1571.4 3340.36 1570.42 3340.19 1569.65 3339.86 1569.11 3339.53 1568.57 3338.96 1568.3 3338.15 1568.3 3337.23 1568.3 3336.22 1568.72 3335.14 1569.56 3334.07 1570.4 3332.81 1571.64 3331.37 1573.29L3328.14 1570.06C3331.13 1567 3333.79 1564.86 3336.11 1563.63 3338.43 1562.4 3340.88 1561.79 3343.45 1561.79Z" fill="#B07AA1" fill-rule="evenodd"/><text fill="#000000" fill-opacity="0" font-family="Arial,Arial_MSFontService,sans-serif" font-size="64.5977" x="3328.14" y="1618.31"></text><path d="M3415.93 1587.13 3471.27 1587.13 3471.27 1593.1 3415.93 1593.1ZM3415.93 1568.48 3471.27 1568.48 3471.27 1574.46 3415.93 1574.46Z" fill="#B07AA1" fill-rule="evenodd"/><text fill="#000000" fill-opacity="0" font-family="Arial,Arial_MSFontService,sans-serif" font-size="24.6172" x="3415.93" y="1590.02">=</text><path d="M3530.76 1545.03C3535.16 1545.03 3538.76 1545.63 3541.54 1546.81 3544.33 1547.99 3546.34 1549.59 3547.58 1551.62 3548.83 1553.64 3549.45 1556 3549.45 1558.69 3549.45 1561.06 3549.01 1563.26 3548.12 1565.29 3547.24 1567.33 3545.71 1569.65 3543.54 1572.26 3541.37 1574.86 3537.71 1578.59 3532.56 1583.44 3530.97 1584.94 3529.08 1586.91 3526.87 1589.35 3524.67 1591.79 3522.93 1593.88 3521.64 1595.62L3521.64 1596.07 3537.59 1596.07C3539.53 1596.07 3540.99 1595.92 3541.95 1595.64 3542.9 1595.35 3543.66 1594.86 3544.21 1594.16 3544.77 1593.45 3545.23 1592.4 3545.58 1590.99L3550.75 1590.99 3549.72 1607.07 3508.57 1607.07 3508.57 1604.11C3510.87 1598.81 3515.59 1591.98 3522.72 1583.62 3525.95 1579.82 3528.42 1576.69 3530.11 1574.23 3531.8 1571.78 3533.07 1569.46 3533.9 1567.27 3534.74 1565.08 3535.16 1562.82 3535.16 1560.49 3535.16 1557.19 3534.43 1554.61 3532.96 1552.74 3531.49 1550.87 3529.49 1549.93 3526.94 1549.93 3522.06 1549.93 3518.93 1553.45 3517.55 1560.49L3509.47 1560.49 3509.47 1549.89C3514.35 1547.91 3518.29 1546.61 3521.28 1545.98 3524.28 1545.35 3527.44 1545.03 3530.76 1545.03Z" fill="#B07AA1" fill-rule="evenodd"/><text fill="#000000" fill-opacity="0" font-family="Arial,Arial_MSFontService,sans-serif" font-size="62.0371" x="3508.57" y="1599.32"></text><path d="M3563.34 1596.65 3572.42 1596.65 3572.42 1607.07 3563.34 1607.07Z" fill="#B07AA1" fill-rule="evenodd"/><text fill="#000000" fill-opacity="0" font-family="Arial,Arial_MSFontService,sans-serif" font-size="10.4219" x="3563.34" y="1605.77">.</text><path d="M3623.46 1545.03 3629.21 1545.03C3629.03 1547.91 3628.94 1551.89 3628.94 1556.98L3628.94 1594.54C3628.94 1596.28 3629.03 1597.59 3629.23 1598.47 3629.42 1599.35 3629.77 1600.07 3630.26 1600.63 3630.76 1601.18 3631.47 1601.61 3632.4 1601.93 3633.32 1602.24 3634.49 1602.48 3635.9 1602.65 3637.31 1602.81 3639.16 1602.92 3641.47 1602.98L3641.47 1607.07 3602.7 1607.07 3602.7 1602.98C3606.03 1602.83 3608.4 1602.63 3609.82 1602.38 3611.24 1602.12 3612.33 1601.74 3613.08 1601.23 3613.83 1600.72 3614.37 1600 3614.72 1599.08 3615.06 1598.15 3615.24 1596.63 3615.24 1594.54L3615.24 1562.06C3615.24 1560.83 3615 1559.95 3614.54 1559.41 3614.07 1558.87 3613.44 1558.6 3612.63 1558.6 3611.88 1558.6 3610.83 1558.95 3609.46 1559.63 3608.1 1560.32 3605.86 1561.73 3602.75 1563.86L3600.01 1559.09Z" fill="#B07AA1" fill-rule="evenodd"/><text fill="#000000" fill-opacity="0" font-family="Arial,Arial_MSFontService,sans-serif" font-size="62.0371" x="3600.01" y="1599.32"></text></g></svg>