<svg width="1511" height="988" xmlns="http://www.w3.org/2000/svg" xmlns:xlink="http://www.w3.org/1999/xlink" xml:space="preserve" overflow="hidden"><g transform="translate(-2290 -865)"><path d="M2555.5 939.569C2555.5 922.962 2568.96 909.5 2585.57 909.5L3379.43 909.5C3396.04 909.5 3409.5 922.962 3409.5 939.569L3409.5 1766.43C3409.5 1783.04 3396.04 1796.5 3379.43 1796.5L2585.57 1796.5C2568.96 1796.5 2555.5 1783.04 2555.5 1766.43Z" stroke="#7F7F7F" stroke-width="4.58333" stroke-miterlimit="8" fill="none" fill-rule="evenodd"/><path d="M2726.5 1043.5C2726.5 1020.3 2745.3 1001.5 2768.5 1001.5 2791.7 1001.5 2810.5 1020.3 2810.5 1043.5 2810.5 1066.7 2791.7 1085.5 2768.5 1085.5 2745.3 1085.5 2726.5 1066.7 2726.5 1043.5Z" stroke="#000000" stroke-width="3.4375" stroke-miterlimit="8" fill="#8FAADC" fill-rule="evenodd"/><text font-family="Times New Roman,Times New Roman_MSFontService,sans-serif" font-weight="400" font-size="50" transform="matrix(1 0 0 1 2755.42 1061)">4</text><text font-family="Times New Roman,Times New Roman_MSFontService,sans-serif" font-weight="400" font-size="50" transform="matrix(1 0 0 1 2575.54 976)">Data Center Cooling System</text><path d="M3479.5 1043.5C3479.5 1020.3 3498.3 1001.5 3521.5 1001.5 3544.7 1001.5 3563.5 1020.3 3563.5 1043.5 3563.5 1066.7 3544.7 1085.5 3521.5 1085.5 3498.3 1085.5 3479.5 1066.7 3479.5 1043.5Z" stroke="#000000" stroke-width="3.4375" stroke-miterlimit="8" fill="#FFD966" fill-rule="evenodd"/><text font-family="Times New Roman,Times New Roman_MSFontService,sans-serif" font-weight="400" font-size="50" transform="matrix(1 0 0 1 3507.94 1061)">0</text><text font-family="Times New Roman,Times New Roman_MSFontService,sans-serif" font-weight="400" font-size="50" transform="matrix(1 0 0 1 3449.81 931)">Server </text><text font-family="Times New Roman,Times New Roman_MSFontService,sans-serif" font-weight="400" font-size="50" transform="matrix(1 0 0 1 3453.82 991)">Room</text><path d="M2704.5 1085.5 2704.5 1118.66" stroke="#000000" stroke-width="4.58333" stroke-miterlimit="8" fill="none" fill-rule="evenodd"/><path d="M0 0 60.3279 0.000360892" stroke="#000000" stroke-width="4.58333" stroke-miterlimit="8" fill="none" fill-rule="evenodd" transform="matrix(-1 0 0 1 2734.83 1118.5)"/><path d="M0 0 41.5943 0.000360892" stroke="#000000" stroke-width="4.58333" stroke-miterlimit="8" fill="none" fill-rule="evenodd" transform="matrix(-1 0 0 1 2725.09 1131.5)"/><path d="M0 0 21.9083 0.000360892" stroke="#000000" stroke-width="4.58333" stroke-miterlimit="8" fill="none" fill-rule="evenodd" transform="matrix(-1 0 0 1 2715.41 1145.5)"/><path d="M0 0 32.2255 19.1544" stroke="#000000" stroke-width="4.58333" stroke-miterlimit="8" fill="none" fill-rule="evenodd" transform="matrix(1 0 0 -1 2703.5 1087.65)"/><path d="M2810.5 1041.21 2847.17 1041.21 2847.17 1045.79 2810.5 1045.79ZM2860.92 1041.21 2897.58 1041.21 2897.58 1045.79 2860.92 1045.79ZM2911.33 1041.21 2948 1041.21 2948 1045.79 2911.33 1045.79ZM2961.75 1041.21 2998.42 1041.21 2998.42 1045.79 2961.75 1045.79ZM3012.17 1041.21 3048.83 1041.21 3048.83 1045.79 3012.17 1045.79ZM3062.58 1041.21 3099.25 1041.21 3099.25 1045.79 3062.58 1045.79ZM3113 1041.21 3149.67 1041.21 3149.67 1045.79 3113 1045.79ZM3163.42 1041.21 3200.08 1041.21 3200.08 1045.79 3163.42 1045.79ZM3213.83 1041.21 3250.5 1041.21 3250.5 1045.79 3213.83 1045.79ZM3264.25 1041.21 3300.92 1041.21 3300.92 1045.79 3264.25 1045.79ZM3314.67 1041.21 3351.33 1041.21 3351.33 1045.79 3314.67 1045.79ZM3365.08 1041.21 3401.75 1041.21 3401.75 1045.79 3365.08 1045.79ZM3415.5 1041.21 3437.81 1041.21 3437.81 1045.79 3415.5 1045.79ZM3433.23 1020.58 3479.06 1043.5 3433.23 1066.42Z"/><path d="M1.19317e-06-2.29167 4.58333-2.29166 4.58333 2.29167-1.19317e-06 2.29167ZM9.16667-2.29166 13.75-2.29166 13.75 2.29167 9.16667 2.29167ZM18.3333-2.29166 22.9167-2.29165 22.9167 2.29168 18.3333 2.29168ZM27.5-2.29165 32.0833-2.29165 32.0833 2.29168 27.5 2.29168ZM36.6667-2.29165 41.25-2.29165 41.25 2.29169 36.6667 2.29169ZM45.8333-2.29164 50.4167-2.29164 50.4167 2.29169 45.8333 2.29169ZM55-2.29164 59.5833-2.29164 59.5833 2.2917 55 2.2917ZM64.1667-2.29163 68.75-2.29163 68.75 2.2917 64.1667 2.2917ZM73.3333-2.29163 77.9167-2.29163 77.9167 2.29171 73.3333 2.2917ZM82.5-2.29162 87.0833-2.29162 87.0833 2.29171 82.5 2.29171ZM91.6667-2.29162 96.25-2.29162 96.25 2.29172 91.6667 2.29171ZM100.833-2.29161 105.417-2.29161 105.417 2.29172 100.833 2.29172ZM110-2.29161 114.583-2.29161 114.583 2.29173 110 2.29172ZM119.167-2.2916 123.75-2.2916 123.75 2.29173 119.167 2.29173ZM128.333-2.2916 132.917-2.2916 132.917 2.29174 128.333 2.29173ZM137.5-2.2916 142.083-2.29159 142.083 2.29174 137.5 2.29174ZM146.667-2.29159 151.25-2.29159 151.25 2.29175 146.667 2.29174ZM155.833-2.29159 160.417-2.29158 160.417 2.29175 155.833 2.29175ZM165-2.29158 169.583-2.29158 169.583 2.29175 165 2.29175ZM174.167-2.29158 178.75-2.29157 178.75 2.29176 174.167 2.29176ZM183.333-2.29157 187.917-2.29157 187.917 2.29176 183.333 2.29176ZM192.5-2.29157 197.083-2.29156 197.083 2.29177 192.5 2.29177ZM201.667-2.29156 206.25-2.29156 206.25 2.29177 201.667 2.29177ZM210.833-2.29156 215.417-2.29155 215.417 2.29178 210.833 2.29178ZM220-2.29155 224.583-2.29155 224.583 2.29178 220 2.29178ZM229.167-2.29155 233.75-2.29154 233.75 2.29179 229.167 2.29179ZM238.333-2.29154 242.917-2.29154 242.917 2.29179 238.333 2.29179ZM247.5-2.29154 252.083-2.29154 252.083 2.2918 247.5 2.2918ZM256.667-2.29153 261.25-2.29153 261.25 2.2918 256.667 2.2918ZM265.833-2.29153 270.417-2.29153 270.417 2.29181 265.833 2.29181ZM275-2.29152 279.583-2.29152 279.583 2.29181 275 2.29181ZM284.167-2.29152 288.75-2.29152 288.75 2.29182 284.167 2.29181ZM293.333-2.29151 297.917-2.29151 297.917 2.29182 293.333 2.29182ZM302.5-2.29151 307.083-2.29151 307.083 2.29183 302.5 2.29182ZM311.667-2.2915 316.25-2.2915 316.25 2.29183 311.667 2.29183ZM320.833-2.2915 325.417-2.2915 325.417 2.29184 320.833 2.29183ZM330-2.29149 334.583-2.29149 334.583 2.29184 330 2.29184ZM339.167-2.29149 343.75-2.29149 343.75 2.29185 339.167 2.29184ZM348.333-2.29149 352.917-2.29148 352.917 2.29185 348.333 2.29185ZM357.5-2.29148 362.083-2.29148 362.083 2.29186 357.5 2.29185ZM366.667-2.29148 371.25-2.29147 371.25 2.29186 366.667 2.29186ZM375.833-2.29147 380.417-2.29147 380.417 2.29186 375.833 2.29186ZM385-2.29147 389.583-2.29146 389.583 2.29187 385 2.29187ZM394.167-2.29146 398.75-2.29146 398.75 2.29187 394.167 2.29187ZM403.333-2.29146 407.917-2.29145 407.917 2.29188 403.333 2.29188ZM412.5-2.29145 417.083-2.29145 417.083 2.29188 412.5 2.29188ZM421.667-2.29145 426.25-2.29144 426.25 2.29189 421.667 2.29189ZM430.833-2.29144 435.417-2.29144 435.417 2.29189 430.833 2.29189ZM440-2.29144 444.583-2.29144 444.583 2.2919 440 2.2919ZM449.167-2.29143 453.75-2.29143 453.75 2.2919 449.167 2.2919ZM458.333-2.29143 462.917-2.29143 462.917 2.29191 458.333 2.29191ZM467.5-2.29142 472.083-2.29142 472.083 2.29191 467.5 2.29191ZM476.667-2.29142 481.25-2.29142 481.25 2.29192 476.667 2.29191ZM485.833-2.29141 490.417-2.29141 490.417 2.29192 485.833 2.29192ZM495-2.29141 499.583-2.29141 499.583 2.29193 495 2.29192ZM504.167-2.2914 508.75-2.2914 508.75 2.29193 504.167 2.29193ZM513.333-2.2914 517.917-2.2914 517.917 2.29194 513.333 2.29193ZM522.5-2.29139 527.083-2.29139 527.083 2.29194 522.5 2.29194ZM531.667-2.29139 536.25-2.29139 536.25 2.29195 531.667 2.29194ZM540.833-2.29139 545.417-2.29138 545.417 2.29195 540.833 2.29195ZM550-2.29138 554.583-2.29138 554.583 2.29196 550 2.29195ZM559.167-2.29138 563.75-2.29137 563.75 2.29196 559.167 2.29196ZM568.333-2.29137 572.917-2.29137 572.917 2.29197 568.333 2.29196ZM577.5-2.29137 582.083-2.29136 582.083 2.29197 577.5 2.29197ZM586.667-2.29136 591.25-2.29136 591.25 2.29197 586.667 2.29197ZM595.833-2.29136 600.417-2.29135 600.417 2.29198 595.833 2.29198ZM605-2.29135 609.583-2.29135 609.583 2.29198 605 2.29198ZM614.167-2.29135 618.75-2.29134 618.75 2.29199 614.167 2.29199ZM623.333-2.29134 627.917-2.29134 627.917 2.29199 623.333 2.29199ZM632.5-2.29134 637.083-2.29134 637.083 2.292 632.5 2.292ZM641.667-2.29133 646.25-2.29133 646.25 2.292 641.667 2.292ZM650.833-2.29133 651.902-2.29133 651.902 2.29201 650.833 2.29201ZM647.318-22.9163 693.152 0.000360892 647.318 22.917Z" transform="matrix(-1 0 0 1 3491.65 1013.5)"/><text font-family="Times New Roman,Times New Roman_MSFontService,sans-serif" font-weight="400" font-size="50" transform="matrix(1 0 0 1 3024.05 1667)">Office </text><text font-family="Times New Roman,Times New Roman_MSFontService,sans-serif" font-weight="400" font-size="50" transform="matrix(1 0 0 1 3024.05 1727)">HVAC</text><path d="M3240.5 1621C3240.5 1598.08 3259.08 1579.5 3282 1579.5 3304.92 1579.5 3323.5 1598.08 3323.5 1621 3323.5 1643.92 3304.92 1662.5 3282 1662.5 3259.08 1662.5 3240.5 1643.92 3240.5 1621Z" stroke="#000000" stroke-width="3.4375" stroke-miterlimit="8" fill="#F4B183" fill-rule="evenodd"/><text font-family="Times New Roman,Times New Roman_MSFontService,sans-serif" font-weight="400" font-size="50" transform="matrix(1 0 0 1 3268.6 1639)">3</text><path d="M3499.5 1592C3499.5 1569.08 3518.08 1550.5 3541 1550.5 3563.92 1550.5 3582.5 1569.08 3582.5 1592 3582.5 1614.92 3563.92 1633.5 3541 1633.5 3518.08 1633.5 3499.5 1614.92 3499.5 1592Z" stroke="#000000" stroke-width="3.4375" stroke-miterlimit="8" fill="#FFD966" fill-rule="evenodd"/><text font-family="Times New Roman,Times New Roman_MSFontService,sans-serif" font-weight="400" font-size="50" transform="matrix(1 0 0 1 3528.01 1610)">0</text><text font-family="Times New Roman,Times New Roman_MSFontService,sans-serif" font-weight="400" font-size="50" transform="matrix(1 0 0 1 3544.65 1679)">Office </text><text font-family="Times New Roman,Times New Roman_MSFontService,sans-serif" font-weight="400" font-size="50" transform="matrix(1 0 0 1 3544.65 1739)">Zone Air</text><path d="M0.00153675-2.29167 36.6682-2.26708 36.6651 2.31625-0.00153675 2.29167ZM50.4182-2.25786 87.0848-2.23327 87.0818 2.35006 50.4151 2.32547ZM100.835-2.22405 137.501-2.19946 137.498 2.38387 100.832 2.35928ZM142.545-22.8211 188.363 0.126312 142.514 23.0122Z" transform="matrix(1 0 0 -1 3311.5 1591.63)"/><path d="M0.00153675-2.29167 4.58487-2.28859 4.5818 2.29474-0.00153675 2.29167ZM9.1682-2.28552 13.7515-2.28245 13.7485 2.30089 9.16513 2.29781ZM18.3349-2.27937 22.9182-2.2763 22.9151 2.30703 18.3318 2.30396ZM27.5015-2.27323 32.0849-2.27015 32.0818 2.31318 27.4985 2.31011ZM36.6682-2.26708 41.2515-2.264 41.2485 2.31933 36.6651 2.31625ZM45.8349-2.26093 50.4182-2.25786 50.4151 2.32547 45.8318 2.3224ZM55.0015-2.25478 59.5849-2.25171 59.5818 2.33162 54.9985 2.32855ZM64.1682-2.24864 68.7515-2.24556 68.7485 2.33777 64.1651 2.33469ZM73.3349-2.24249 77.9182-2.23942 77.9151 2.34392 73.3318 2.34084ZM82.5015-2.23634 87.0849-2.23327 87.0818 2.35006 82.4985 2.34699ZM91.6682-2.2302 96.2515-2.22712 96.2485 2.35621 91.6651 2.35314ZM100.835-2.22405 105.418-2.22098 105.415 2.36236 100.832 2.35928ZM110.002-2.2179 114.585-2.21483 114.582 2.3685 109.998 2.36543ZM119.168-2.21176 123.752-2.20868 123.748 2.37465 119.165 2.37158ZM128.335-2.20561 132.918-2.20253 132.915 2.3808 128.332 2.37772ZM137.502-2.19946 142.085-2.19639 142.082 2.38694 137.498 2.38387ZM146.668-2.19331 147.114-2.19302 147.111 2.39032 146.665 2.39002ZM142.545-22.8211 188.363 0.126312 142.514 23.0122Z" transform="matrix(-1 0 0 1 3511.86 1621.5)"/><path d="M3046.21 1563.01 3046.21 1526.35 3050.79 1526.35 3050.79 1563.01ZM3052.37 1514.19 3089.03 1514.54 3088.99 1519.13 3052.32 1518.77ZM3102.78 1514.68 3139.45 1515.04 3139.4 1519.62 3102.74 1519.26ZM3153.2 1515.17 3189.86 1515.53 3189.82 1520.11 3153.15 1519.75ZM3203.61 1515.66 3240.27 1516.02 3240.23 1520.6 3203.57 1520.24ZM3254.02 1516.15 3290.69 1516.51 3290.64 1521.09 3253.98 1520.73ZM3304.44 1516.64 3341.1 1517 3341.06 1521.58 3304.39 1521.22ZM3354.85 1517.13 3391.52 1517.49 3391.47 1522.07 3354.81 1521.72ZM3405.27 1517.62 3441.93 1517.98 3441.89 1522.56 3405.22 1522.21ZM3455.68 1518.11 3492.35 1518.47 3492.3 1523.05 3455.64 1522.7ZM3521.92 1510.13 3512.52 1560.5 3477.86 1522.76Z"/><path d="M2.67353e-06-3.4375 6.875-3.43749 6.875 3.43751-2.67353e-06 3.4375ZM13.75-3.43749 20.625-3.43748 20.625 3.43752 13.75 3.43751ZM27.5-3.43748 34.375-3.43747 34.375 3.43753 27.5 3.43752ZM41.25-3.43747 48.125-3.43746 48.125 3.43754 41.25 3.43753ZM55-3.43746 61.875-3.43745 61.875 3.43755 55 3.43754ZM68.75-3.43745 75.625-3.43744 75.625 3.43756 68.75 3.43755ZM82.5-3.43744 89.375-3.43743 89.375 3.43757 82.5 3.43756ZM96.25-3.43743 103.125-3.43742 103.125 3.43758 96.25 3.43757ZM110-3.43741 116.875-3.43741 116.875 3.43759 110 3.43759ZM123.75-3.4374 130.625-3.4374 130.625 3.4376 123.75 3.4376ZM137.5-3.43739 144.375-3.43739 144.375 3.43761 137.5 3.43761ZM151.25-3.43738 158.125-3.43738 158.125 3.43762 151.25 3.43762ZM165-3.43737 171.875-3.43737 171.875 3.43763 165 3.43763ZM178.75-3.43736 185.625-3.43736 185.625 3.43764 178.75 3.43764ZM192.5-3.43735 199.375-3.43735 199.375 3.43765 192.5 3.43765ZM206.25-3.43734 213.125-3.43733 213.125 3.43767 206.25 3.43766ZM220-3.43733 226.875-3.43732 226.875 3.43768 220 3.43767ZM233.75-3.43732 240.625-3.43731 240.625 3.43769 233.75 3.43768ZM247.5-3.43731 254.375-3.4373 254.375 3.4377 247.5 3.43769ZM261.25-3.4373 268.125-3.43729 268.125 3.43771 261.25 3.4377ZM275-3.43729 281.875-3.43728 281.875 3.43772 275 3.43771ZM288.75-3.43728 295.625-3.43727 295.625 3.43773 288.75 3.43772ZM302.5-3.43726 309.375-3.43726 309.375 3.43774 302.5 3.43774ZM316.25-3.43725 323.125-3.43725 323.125 3.43775 316.25 3.43775ZM330-3.43724 336.875-3.43724 336.875 3.43776 330 3.43776ZM343.75-3.43723 350.625-3.43723 350.625 3.43777 343.75 3.43777ZM357.5-3.43722 364.375-3.43722 364.375 3.43778 357.5 3.43778ZM371.25-3.43721 378.125-3.43721 378.125 3.43779 371.25 3.43779ZM385-3.4372 391.875-3.4372 391.875 3.4378 385 3.4378ZM398.75-3.43719 405.625-3.43718 405.625 3.43782 398.75 3.43781ZM412.5-3.43718 419.375-3.43717 419.375 3.43783 412.5 3.43782ZM418.185-22.9163 464.019 0.000360892 418.185 22.917Z" transform="matrix(-1 0 0 1 3511.52 1562.5)"/><path d="M2405.5 1286.5C2405.5 1263.3 2424.08 1244.5 2447 1244.5 2469.92 1244.5 2488.5 1263.3 2488.5 1286.5 2488.5 1309.7 2469.92 1328.5 2447 1328.5 2424.08 1328.5 2405.5 1309.7 2405.5 1286.5Z" stroke="#000000" stroke-width="3.4375" stroke-miterlimit="8" fill="#FFD966" fill-rule="evenodd"/><text font-family="Times New Roman,Times New Roman_MSFontService,sans-serif" font-weight="400" font-size="50" transform="matrix(1 0 0 1 2433.62 1305)">0</text><text font-family="Times New Roman,Times New Roman_MSFontService,sans-serif" font-weight="400" font-size="50" transform="matrix(1 0 0 1 2376.33 1166)">Source </text><text font-family="Times New Roman,Times New Roman_MSFontService,sans-serif" font-weight="400" font-size="50" transform="matrix(1 0 0 1 2358.28 1226)">Energies</text><path d="M2488.5 1284.21 2493.08 1284.21 2493.08 1288.79 2488.5 1288.79ZM2497.67 1284.21 2502.25 1284.21 2502.25 1288.79 2497.67 1288.79ZM2506.83 1284.21 2511.42 1284.21 2511.42 1288.79 2506.83 1288.79ZM2516 1284.21 2520.58 1284.21 2520.58 1288.79 2516 1288.79ZM2525.17 1284.21 2529.75 1284.21 2529.75 1288.79 2525.17 1288.79ZM2534.33 1284.21 2538.92 1284.21 2538.92 1288.79 2534.33 1288.79ZM2543.5 1284.21 2548.08 1284.21 2548.08 1288.79 2543.5 1288.79ZM2552.67 1284.21 2557.25 1284.21 2557.25 1288.79 2552.67 1288.79ZM2561.83 1284.21 2566.42 1284.21 2566.42 1288.79 2561.83 1288.79ZM2571 1284.21 2575.58 1284.21 2575.58 1288.79 2571 1288.79ZM2580.17 1284.21 2584.75 1284.21 2584.75 1288.79 2580.17 1288.79ZM2589.33 1284.21 2593.92 1284.21 2593.92 1288.79 2589.33 1288.79ZM2598.5 1284.21 2603.08 1284.21 2603.08 1288.79 2598.5 1288.79ZM2607.67 1284.21 2612.25 1284.21 2612.25 1288.79 2607.67 1288.79ZM2616.83 1284.21 2621.42 1284.21 2621.42 1288.79 2616.83 1288.79ZM2626 1284.21 2630.58 1284.21 2630.58 1288.79 2626 1288.79ZM2635.17 1284.21 2639.75 1284.21 2639.75 1288.79 2635.17 1288.79ZM2644.33 1284.21 2648.92 1284.21 2648.92 1288.79 2644.33 1288.79ZM2653.5 1284.21 2658.08 1284.21 2658.08 1288.79 2653.5 1288.79ZM2662.67 1284.21 2667.25 1284.21 2667.25 1288.79 2662.67 1288.79ZM2671.83 1284.21 2676.42 1284.21 2676.42 1288.79 2671.83 1288.79ZM2681 1284.21 2685.58 1284.21 2685.58 1288.79 2681 1288.79ZM2681.23 1263.58 2727.06 1286.5 2681.23 1309.42Z"/><path d="M2954.5 1633.5 2954.5 1666.66" stroke="#000000" stroke-width="4.58333" stroke-miterlimit="8" fill="none" fill-rule="evenodd"/><path d="M0 0 60.3279 0.000360892" stroke="#000000" stroke-width="4.58333" stroke-miterlimit="8" fill="none" fill-rule="evenodd" transform="matrix(-1 0 0 1 2984.83 1666.5)"/><path d="M0 0 41.5943 0.000360892" stroke="#000000" stroke-width="4.58333" stroke-miterlimit="8" fill="none" fill-rule="evenodd" transform="matrix(-1 0 0 1 2975.09 1679.5)"/><path d="M0 0 21.9083 0.000360892" stroke="#000000" stroke-width="4.58333" stroke-miterlimit="8" fill="none" fill-rule="evenodd" transform="matrix(-1 0 0 1 2965.41 1693.5)"/><path d="M0 0 32.2255 19.1544" stroke="#000000" stroke-width="4.58333" stroke-miterlimit="8" fill="none" fill-rule="evenodd" transform="matrix(1 0 0 -1 2954.5 1635.65)"/><path d="M3256.5 1256C3256.5 1233.08 3275.08 1214.5 3298 1214.5 3320.92 1214.5 3339.5 1233.08 3339.5 1256 3339.5 1278.92 3320.92 1297.5 3298 1297.5 3275.08 1297.5 3256.5 1278.92 3256.5 1256Z" stroke="#000000" stroke-width="3.4375" stroke-miterlimit="8" fill="#B889DB" fill-rule="evenodd"/><text font-family="Times New Roman,Times New Roman_MSFontService,sans-serif" font-weight="400" font-size="50" transform="matrix(1 0 0 1 3284.58 1274)">6</text><path d="M0 0 0.000360892 33.1635" stroke="#000000" stroke-width="4.58333" stroke-miterlimit="8" fill="none" fill-rule="evenodd" transform="matrix(-1 0 0 1 3354.5 1304.5)"/><path d="M3324.5 1337.5 3384.83 1337.5" stroke="#000000" stroke-width="4.58333" stroke-miterlimit="8" fill="none" fill-rule="evenodd"/><path d="M3333.5 1350.5 3375.09 1350.5" stroke="#000000" stroke-width="4.58333" stroke-miterlimit="8" fill="none" fill-rule="evenodd"/><path d="M3343.5 1364.5 3365.41 1364.5" stroke="#000000" stroke-width="4.58333" stroke-miterlimit="8" fill="none" fill-rule="evenodd"/><path d="M3354.73 1306.65 3322.5 1287.5" stroke="#000000" stroke-width="4.58333" stroke-miterlimit="8" fill="none" fill-rule="evenodd"/><path d="M2726.5 1286.5C2726.5 1263.3 2745.3 1244.5 2768.5 1244.5 2791.7 1244.5 2810.5 1263.3 2810.5 1286.5 2810.5 1309.7 2791.7 1328.5 2768.5 1328.5 2745.3 1328.5 2726.5 1309.7 2726.5 1286.5Z" stroke="#000000" stroke-width="3.4375" stroke-miterlimit="8" fill="#A9D18E" fill-rule="evenodd"/><text font-family="Times New Roman,Times New Roman_MSFontService,sans-serif" font-weight="400" font-size="50" transform="matrix(1 0 0 1 2755.42 1305)">1</text><text font-family="Times New Roman,Times New Roman_MSFontService,sans-serif" font-weight="400" font-size="50" transform="matrix(1 0 0 1 3052.69 1353)">District </text><text font-family="Times New Roman,Times New Roman_MSFontService,sans-serif" font-weight="400" font-size="50" transform="matrix(1 0 0 1 3052.69 1413)">Network</text><path d="M2810.5 1284.21 2937.98 1284.21 2937.98 1288.79 2810.5 1288.79ZM2933.4 1263.58 2979.23 1286.5 2933.4 1309.42Z"/><path d="M2.29167-5.17881e-06 2.29193 118.448-2.2914 118.448-2.29167 5.17881e-06ZM22.9169 113.864 0.000360892 159.698-22.9164 113.864Z" transform="matrix(1 0 0 -1 2768.5 1245.2)"/><path d="M4.0121e-06-2.29167 164.888-2.29138 164.888 2.29196-4.0121e-06 2.29167ZM160.304-22.9164 206.138 0.000360892 160.304 22.9169Z" transform="matrix(1 0 0 -1 3049.5 1259.5)"/><path d="M4.01209e-06-2.29167 164.888-2.29138 164.888 2.29196-4.01209e-06 2.29167ZM160.305-22.9164 206.138 0.000360892 160.305 22.9169Z" transform="matrix(-1 0 0 1 3268.64 1285.5)"/><path d="M2405.5 1431C2405.5 1408.08 2424.08 1389.5 2447 1389.5 2469.92 1389.5 2488.5 1408.08 2488.5 1431 2488.5 1453.92 2469.92 1472.5 2447 1472.5 2424.08 1472.5 2405.5 1453.92 2405.5 1431Z" stroke="#000000" stroke-width="3.4375" stroke-miterlimit="8" fill="#FFD966" fill-rule="evenodd"/><text font-family="Times New Roman,Times New Roman_MSFontService,sans-serif" font-weight="400" font-size="50" transform="matrix(1 0 0 1 2433.62 1449)">0</text><text font-family="Times New Roman,Times New Roman_MSFontService,sans-serif" font-weight="400" font-size="50" transform="matrix(1 0 0 1 2358.28 1377)">Ambient</text><path d="M3220.5 1666.5 3220.5 1699.66" stroke="#000000" stroke-width="4.58333" stroke-miterlimit="8" fill="none" fill-rule="evenodd"/><path d="M0 0 60.3279 0.000360892" stroke="#000000" stroke-width="4.58333" stroke-miterlimit="8" fill="none" fill-rule="evenodd" transform="matrix(-1 0 0 1 3250.83 1699.5)"/><path d="M0 0 41.5943 0.000360892" stroke="#000000" stroke-width="4.58333" stroke-miterlimit="8" fill="none" fill-rule="evenodd" transform="matrix(-1 0 0 1 3241.09 1712.5)"/><path d="M0 0 21.9083 0.000360892" stroke="#000000" stroke-width="4.58333" stroke-miterlimit="8" fill="none" fill-rule="evenodd" transform="matrix(-1 0 0 1 3231.41 1726.5)"/><path d="M0 0 32.2255 19.1544" stroke="#000000" stroke-width="4.58333" stroke-miterlimit="8" fill="none" fill-rule="evenodd" transform="matrix(1 0 0 -1 3220.5 1668.65)"/><path d="M2704.5 1328.5 2704.5 1361.66" stroke="#000000" stroke-width="4.58333" stroke-miterlimit="8" fill="none" fill-rule="evenodd"/><path d="M0 0 60.3279 0.000360892" stroke="#000000" stroke-width="4.58333" stroke-miterlimit="8" fill="none" fill-rule="evenodd" transform="matrix(-1 0 0 1 2734.83 1361.5)"/><path d="M0 0 41.5943 0.000360892" stroke="#000000" stroke-width="4.58333" stroke-miterlimit="8" fill="none" fill-rule="evenodd" transform="matrix(-1 0 0 1 2726.09 1375.5)"/><path d="M0 0 21.9083 0.000360892" stroke="#000000" stroke-width="4.58333" stroke-miterlimit="8" fill="none" fill-rule="evenodd" transform="matrix(-1 0 0 1 2715.41 1388.5)"/><path d="M0 0 32.2255 19.1544" stroke="#000000" stroke-width="4.58333" stroke-miterlimit="8" fill="none" fill-rule="evenodd" transform="matrix(1 0 0 -1 2704.5 1330.65)"/><path d="M2894.73 1187.22 3227.74 1220.32 3227.29 1224.88 2894.27 1191.78ZM3225.22 1199.34 3268.56 1226.68 3220.69 1244.95Z"/><path d="M0 0 96.2352 69.0055" stroke="#000000" stroke-width="4.58333" stroke-miterlimit="8" fill="none" fill-rule="evenodd" transform="matrix(1 0 0 -1 2797.5 1257.51)"/><path d="M2795.21 1257.39 2795.21 1220.72 2799.79 1220.72 2799.79 1257.39ZM2795.21 1206.97 2795.21 1170.31 2799.79 1170.31 2799.79 1206.97ZM2795.21 1156.56 2795.21 1143.52 2823.42 1143.52 2823.42 1148.1 2797.5 1148.1 2799.79 1145.81 2799.79 1156.56ZM2837.17 1143.52 2873.84 1143.52 2873.84 1148.1 2837.17 1148.1ZM2887.59 1143.52 2924.25 1143.52 2924.25 1148.1 2887.59 1148.1ZM2938 1143.52 2974.67 1143.52 2974.67 1148.1 2938 1148.1ZM2988.42 1143.52 3025.09 1143.52 3025.09 1148.1 2988.42 1148.1ZM3038.84 1143.52 3075.5 1143.52 3075.5 1148.1 3038.84 1148.1ZM3089.25 1143.52 3125.92 1143.52 3125.92 1148.1 3089.25 1148.1ZM3139.67 1143.52 3176.34 1143.52 3176.34 1148.1 3139.67 1148.1ZM3190.09 1143.52 3226.75 1143.52 3226.75 1148.1 3190.09 1148.1ZM3240.5 1143.52 3277.17 1143.52 3277.17 1148.1 3240.5 1148.1ZM3290.92 1143.52 3327.59 1143.52 3327.59 1148.1 3290.92 1148.1ZM3341.34 1143.52 3378 1143.52 3378 1148.1 3341.34 1148.1ZM3391.75 1143.52 3428.42 1143.52 3428.42 1148.1 3391.75 1148.1ZM3442.17 1143.52 3478.84 1143.52 3478.84 1148.1 3442.17 1148.1ZM3492.59 1143.52 3520.59 1143.52 3518.3 1145.81 3518.3 1137.15 3522.88 1137.15 3522.88 1148.1 3492.59 1148.1ZM3497.67 1131.33 3520.59 1085.5 3543.51 1131.33Z"/><path d="M2.29167-3.72737e-06 2.29196 180.634-2.29137 180.634-2.29167 3.72737e-06ZM22.917 176.051 0.000360892 221.884-22.9164 176.051Z" transform="matrix(1 0 0 -1 3018.5 1550.38)"/><path d="M2.29173 41.25 2.29203 246.264-2.29131 246.264-2.29161 41.25ZM-22.9166 45.8334 0 0 22.9167 45.8333Z" transform="matrix(1 0 0 -1 2988.5 1561.76)"/><path d="M2976.5 1592C2976.5 1569.08 2995.08 1550.5 3018 1550.5 3040.92 1550.5 3059.5 1569.08 3059.5 1592 3059.5 1614.92 3040.92 1633.5 3018 1633.5 2995.08 1633.5 2976.5 1614.92 2976.5 1592Z" stroke="#000000" stroke-width="3.4375" stroke-miterlimit="8" fill="#F4B183" fill-rule="evenodd"/><text font-family="Times New Roman,Times New Roman_MSFontService,sans-serif" font-weight="400" font-size="50" transform="matrix(1 0 0 1 3005.14 1610)">2</text><path d="M2978.5 1286.5C2978.5 1263.3 2997.3 1244.5 3020.5 1244.5 3043.7 1244.5 3062.5 1263.3 3062.5 1286.5 3062.5 1309.7 3043.7 1328.5 3020.5 1328.5 2997.3 1328.5 2978.5 1309.7 2978.5 1286.5Z" stroke="#000000" stroke-width="3.4375" stroke-miterlimit="8" fill="#B889DB" fill-rule="evenodd"/><text font-family="Times New Roman,Times New Roman_MSFontService,sans-serif" font-weight="400" font-size="50" transform="matrix(1 0 0 1 3007.39 1305)">5</text><path d="M2949.5 1321.5 2949.5 1354.66" stroke="#000000" stroke-width="4.58333" stroke-miterlimit="8" fill="none" fill-rule="evenodd"/><path d="M0 0 60.3279 0.000360892" stroke="#000000" stroke-width="4.58333" stroke-miterlimit="8" fill="none" fill-rule="evenodd" transform="matrix(-1 0 0 1 2979.83 1354.5)"/><path d="M0 0 41.5943 0.000360892" stroke="#000000" stroke-width="4.58333" stroke-miterlimit="8" fill="none" fill-rule="evenodd" transform="matrix(-1 0 0 1 2970.09 1368.5)"/><path d="M0 0 21.9083 0.000360892" stroke="#000000" stroke-width="4.58333" stroke-miterlimit="8" fill="none" fill-rule="evenodd" transform="matrix(-1 0 0 1 2960.41 1381.5)"/><path d="M0 0 32.2255 19.1544" stroke="#000000" stroke-width="4.58333" stroke-miterlimit="8" fill="none" fill-rule="evenodd" transform="matrix(1 0 0 -1 2948.5 1323.65)"/><rect x="2857" y="1135" width="73.0002" height="19.9999" fill="#FFFFFF"/><rect x="2909" y="1185" width="77" height="19.9999" fill="#FFFFFF"/><path d="M2800.08 1070.84 2963.11 1226.54 2959.94 1229.85 2796.92 1074.16ZM2974.04 1208.46 2991.36 1256.68 2942.38 1241.6Z"/><path d="M3018.9 1246.83 2838.66 1073.73 2841.84 1070.42 3022.08 1243.52ZM2827.68 1091.78 2810.5 1043.5 2859.43 1058.72Z"/><rect x="3391" y="1187" width="35.9998" height="119" fill="#FFFFFF"/><text font-family="Times New Roman,Times New Roman_MSFontService,sans-serif" font-weight="400" font-size="50" transform="matrix(1 0 0 1 3350.58 1228)">Borefield </text><text font-family="Times New Roman,Times New Roman_MSFontService,sans-serif" font-weight="400" font-size="50" transform="matrix(1 0 0 1 3350.58 1288)">System</text><rect x="3391" y="1640" width="35.9998" height="124" fill="#FFFFFF"/><text font-family="Times New Roman,Times New Roman_MSFontService,sans-serif" font-weight="400" font-size="50" transform="matrix(1 0 0 1 3315.04 1688)">Office </text><text font-family="Times New Roman,Times New Roman_MSFontService,sans-serif" font-weight="400" font-size="50" transform="matrix(1 0 0 1 3315.04 1748)">Envelope</text><rect x="2978" y="1420" width="48.0002" height="19.9999" fill="#FFFFFF"/><rect x="2978" y="1471" width="48.0002" height="19.9999" fill="#FFFFFF"/><path d="M0-2.29167 4.58333-2.29167 4.58333 2.29167 0 2.29167ZM9.16667-2.29167 13.75-2.29167 13.75 2.29167 9.16667 2.29167ZM18.3333-2.29167 22.9167-2.29167 22.9167 2.29167 18.3333 2.29167ZM27.5-2.29167 32.0833-2.29167 32.0833 2.29167 27.5 2.29167ZM36.6667-2.29167 41.25-2.29167 41.25 2.29167 36.6667 2.29167ZM45.8333-2.29167 50.4167-2.29167 50.4167 2.29167 45.8333 2.29167ZM55-2.29167 59.5833-2.29167 59.5833 2.29167 55 2.29167ZM64.1667-2.29167 68.75-2.29167 68.75 2.29167 64.1667 2.29167ZM73.3333-2.29167 77.9167-2.29167 77.9167 2.29167 73.3333 2.29167ZM82.5-2.29167 87.0833-2.29167 87.0833 2.29167 82.5 2.29167ZM91.6667-2.29167 96.25-2.29167 96.25 2.29167 91.6667 2.29167ZM100.833-2.29167 105.417-2.29167 105.417 2.29167 100.833 2.29167ZM110-2.29167 114.583-2.29167 114.583 2.29167 110 2.29167ZM119.167-2.29167 123.75-2.29167 123.75 2.29167 119.167 2.29167ZM128.333-2.29167 132.917-2.29167 132.917 2.29167 128.333 2.29167ZM137.5-2.29167 142.083-2.29167 142.083 2.29167 137.5 2.29167ZM146.667-2.29167 151.25-2.29167 151.25 2.29167 146.667 2.29167ZM155.833-2.29167 160.417-2.29167 160.417 2.29167 155.833 2.29167ZM165-2.29167 169.583-2.29167 169.583 2.29167 165 2.29167ZM174.167-2.29167 178.75-2.29167 178.75 2.29167 174.167 2.29167ZM183.333-2.29167 187.917-2.29167 187.917 2.29167 183.333 2.29167ZM192.5-2.29167 197.083-2.29167 197.083 2.29167 192.5 2.29167ZM201.667-2.29167 206.25-2.29167 206.25 2.29167 201.667 2.29167ZM210.833-2.29167 215.417-2.29167 215.417 2.29167 210.833 2.29167ZM220-2.29167 224.583-2.29167 224.583 2.29167 220 2.29167ZM229.167-2.29167 233.75-2.29167 233.75 2.29167 229.167 2.29167ZM238.333-2.29167 242.917-2.29167 242.917 2.29167 238.333 2.29167ZM247.5-2.29167 252.083-2.29167 252.083 2.29167 247.5 2.29167ZM256.667-2.29167 261.25-2.29167 261.25 2.29167 256.667 2.29167ZM265.833-2.29167 270.417-2.29167 270.417 2.29167 265.833 2.29167ZM275-2.29167 279.583-2.29167 279.583 2.29167 275 2.29167ZM284.167-2.29167 288.75-2.29167 288.75 2.29167 284.167 2.29167ZM293.333-2.29167 297.917-2.29167 297.917 2.29167 293.333 2.29167ZM302.5-2.29167 307.083-2.29167 307.083 2.29167 302.5 2.29167ZM311.667-2.29167 316.25-2.29167 316.25 2.29167 311.667 2.29167ZM320.833-2.29167 325.417-2.29167 325.417 2.29167 320.833 2.29167ZM330-2.29167 334.583-2.29167 334.583 2.29167 330 2.29167ZM339.167-2.29167 343.75-2.29167 343.75 2.29167 339.167 2.29167ZM348.333-2.29167 352.917-2.29167 352.917 2.29167 348.333 2.29167ZM357.5-2.29167 362.083-2.29167 362.083 2.29167 357.5 2.29167ZM366.667-2.29167 371.25-2.29167 371.25 2.29167 366.667 2.29167ZM375.833-2.29167 380.417-2.29167 380.417 2.29167 375.833 2.29167ZM385-2.29167 389.583-2.29167 389.583 2.29167 385 2.29167ZM394.167-2.29167 398.75-2.29167 398.75 2.29167 394.167 2.29167ZM403.333-2.29167 407.917-2.29167 407.917 2.29167 403.333 2.29167ZM412.5-2.29167 417.083-2.29167 417.083 2.29167 412.5 2.29167ZM421.667-2.29167 426.25-2.29167 426.25 2.29167 421.667 2.29167ZM430.833-2.29167 435.417-2.29167 435.417 2.29167 430.833 2.29167ZM440-2.29167 444.583-2.29167 444.583 2.29167 440 2.29167ZM449.167-2.29167 453.75-2.29167 453.75 2.29167 449.167 2.29167ZM458.333-2.29167 462.917-2.29167 462.917 2.29167 458.333 2.29167ZM467.5-2.29167 472.083-2.29167 472.083 2.29167 467.5 2.29167ZM476.667-2.29167 481.25-2.29167 481.25 2.29167 476.667 2.29167ZM485.833-2.29167 490.417-2.29167 490.417 2.29167 485.833 2.29167ZM495-2.29167 499.583-2.29167 499.583 2.29167 495 2.29167ZM504.167-2.29167 508.75-2.29167 508.75 2.29167 504.167 2.29167ZM513.333-2.29167 517.917-2.29167 517.917 2.29167 513.333 2.29167ZM522.5-2.29167 527.083-2.29167 527.083 2.29167 522.5 2.29167ZM531.667-2.29167 536.25-2.29167 536.25 2.29167 531.667 2.29167ZM540.833-2.29167 545.417-2.29167 545.417 2.29167 540.833 2.29167ZM550-2.29167 554.583-2.29167 554.583 2.29167 550 2.29167ZM559.167-2.29167 563.75-2.29167 563.75 2.29167 559.167 2.29167ZM568.333-2.29167 572.917-2.29167 572.917 2.29167 568.333 2.29167ZM577.5-2.29167 582.083-2.29167 582.083 2.29167 577.5 2.29167ZM586.667-2.29167 591.25-2.29167 591.25 2.29167 586.667 2.29167ZM595.833-2.29167 600.417-2.29167 600.417 2.29167 595.833 2.29167ZM605-2.29167 609.583-2.29167 609.583 2.29167 605 2.29167ZM614.167-2.29167 618.75-2.29167 618.75 2.29167 614.167 2.29167ZM623.333-2.29167 627.917-2.29167 627.917 2.29167 623.333 2.29167ZM632.5-2.29167 637.083-2.29167 637.083 2.29167 632.5 2.29167ZM641.667-2.29167 646.25-2.29167 646.25 2.29167 641.667 2.29167ZM650.833-2.29167 655.417-2.29167 655.417 2.29167 650.833 2.29167ZM660-2.29167 664.583-2.29167 664.583 2.29167 660 2.29167ZM669.167-2.29167 673.75-2.29167 673.75 2.29167 669.167 2.29167ZM678.333-2.29167 682.917-2.29167 682.917 2.29167 678.333 2.29167ZM687.5-2.29167 692.083-2.29167 692.083 2.29167 687.5 2.29167ZM696.667-2.29167 701.25-2.29167 701.25 2.29167 696.667 2.29167ZM705.833-2.29167 710.417-2.29167 710.417 2.29167 705.833 2.29167ZM715-2.29167 719.583-2.29167 719.583 2.29167 715 2.29167ZM724.167-2.29167 728.75-2.29167 728.75 2.29167 724.167 2.29167ZM733.333-2.29167 737.917-2.29167 737.917 2.29167 733.333 2.29167ZM742.5-2.29167 747.083-2.29167 747.083 2.29167 742.5 2.29167ZM751.667-2.29167 756.25-2.29167 756.25 2.29167 751.667 2.29167ZM760.833-2.29167 765.417-2.29167 765.417 2.29167 760.833 2.29167ZM770-2.29167 774.583-2.29167 774.583 2.29167 770 2.29167ZM779.167-2.29167 783.75-2.29167 783.75 2.29167 779.167 2.29167ZM788.333-2.29167 792.917-2.29167 792.917 2.29167 788.333 2.29167ZM797.5-2.29167 802.083-2.29167 802.083 2.29167 797.5 2.29167ZM806.667-2.29167 811.633-2.29167 811.633 1.9084 807.05 1.9084 807.05 0 809.342 2.29167 806.667 2.29167ZM811.633 6.49173 811.633 11.0751 807.05 11.0751 807.05 6.49173ZM811.633 15.6584 811.633 20.2417 807.05 20.2417 807.05 15.6584ZM811.633 24.8251 811.633 29.4084 807.05 29.4084 807.05 24.8251ZM811.633 33.9917 811.633 38.5751 807.05 38.5751 807.05 33.9917ZM811.633 43.1584 811.633 47.7417 807.05 47.7417 807.05 43.1584ZM811.633 52.3251 811.633 56.9084 807.05 56.9084 807.05 52.3251ZM811.633 61.4917 811.633 66.0751 807.05 66.0751 807.05 61.4917ZM811.633 70.6584 811.633 75.2417 807.05 75.2417 807.05 70.6584ZM811.633 79.8251 811.633 84.4084 807.05 84.4084 807.05 79.8251ZM811.633 88.9917 811.633 92.0027 807.05 92.0027 807.05 88.9917ZM832.258 87.4193 809.342 133.253 786.425 87.4193Z" transform="matrix(1 0 0 -1 2488.5 1430.75)"/><rect x="2756" y="1420" width="53.0002" height="19.9999" fill="#FFFFFF"/><path d="M0-2.29167 265.795-2.29167 265.795 166.847 261.212 166.847 261.212 0 263.503 2.29167 0 2.29167ZM286.42 162.264 263.503 208.097 240.587 162.264Z" transform="matrix(1.83697e-16 1 1 -1.83697e-16 2768.5 1328.5)"/><path d="M0-2.29167 36.6667-2.29167 36.6667 2.29167 0 2.29167ZM50.4167-2.29167 87.0833-2.29167 87.0833 2.29167 50.4167 2.29167ZM100.833-2.29167 137.5-2.29167 137.5 2.29167 100.833 2.29167ZM151.25-2.29167 168.475-2.29167 168.475 21.7338 163.891 21.7338 163.891 0 166.183 2.29167 151.25 2.29167ZM168.475 35.4838 168.475 72.1505 163.891 72.1505 163.891 35.4838ZM168.475 85.9005 168.475 122.567 163.891 122.567 163.891 85.9005ZM168.475 136.317 168.475 172.984 163.891 172.984 163.891 136.317ZM168.475 186.734 168.475 223.4 163.891 223.4 163.891 186.734ZM168.475 237.15 168.475 273.817 163.891 273.817 163.891 237.15ZM168.475 287.567 168.475 324.234 163.891 324.234 163.891 287.567ZM168.475 337.984 168.475 374.65 163.891 374.65 163.891 337.984ZM168.475 388.4 168.475 425.067 163.891 425.067 163.891 388.4ZM168.475 438.817 168.475 475.484 163.891 475.484 163.891 438.817ZM168.475 489.234 168.475 525.9 163.891 525.9 163.891 489.234ZM168.475 539.65 168.475 576.317 163.891 576.317 163.891 539.65ZM168.475 590.067 168.475 626.734 163.891 626.734 163.891 590.067ZM168.475 640.484 168.475 677.15 163.891 677.15 163.891 640.484ZM168.475 690.9 168.475 727.567 163.891 727.567 163.891 690.9ZM168.475 741.317 168.475 743.165 166.183 740.874 192.824 740.874 192.824 745.457 163.891 745.457 163.891 741.317ZM188.241 720.249 234.074 743.165 188.241 766.082Z" transform="matrix(1.83697e-16 1 1 -1.83697e-16 2797.5 1315.5)"/><path d="M0-2.29167 4.58333-2.29167 4.58333 2.29167 0 2.29167ZM9.16667-2.29167 13.75-2.29167 13.75 2.29167 9.16667 2.29167ZM18.3333-2.29167 22.9167-2.29167 22.9167 2.29167 18.3333 2.29167ZM27.5-2.29167 32.0833-2.29167 32.0833 2.29167 27.5 2.29167ZM36.6667-2.29167 41.25-2.29167 41.25 2.29167 36.6667 2.29167ZM45.8333-2.29167 50.4167-2.29167 50.4167 2.29167 45.8333 2.29167ZM55-2.29167 59.5833-2.29167 59.5833 2.29167 55 2.29167ZM64.1667-2.29167 68.75-2.29167 68.75 2.29167 64.1667 2.29167ZM73.3333-2.29167 77.9167-2.29167 77.9167 2.29167 73.3333 2.29167ZM82.5-2.29167 87.0833-2.29167 87.0833 2.29167 82.5 2.29167ZM91.6667-2.29167 96.25-2.29167 96.25 2.29167 91.6667 2.29167ZM100.833-2.29167 105.417-2.29167 105.417 2.29167 100.833 2.29167ZM110-2.29167 114.583-2.29167 114.583 2.29167 110 2.29167ZM119.167-2.29167 123.75-2.29167 123.75 2.29167 119.167 2.29167ZM128.333-2.29167 132.917-2.29167 132.917 2.29167 128.333 2.29167ZM137.5-2.29167 142.083-2.29167 142.083 2.29167 137.5 2.29167ZM146.667-2.29167 151.25-2.29167 151.25 2.29167 146.667 2.29167ZM155.833-2.29167 160.417-2.29167 160.417 2.29167 155.833 2.29167ZM165-2.29167 169.583-2.29167 169.583 2.29167 165 2.29167ZM174.167-2.29167 178.75-2.29167 178.75 2.29167 174.167 2.29167ZM183.333-2.29167 187.917-2.29167 187.917 2.29167 183.333 2.29167ZM192.5-2.29167 197.083-2.29167 197.083 2.29167 192.5 2.29167ZM201.667-2.29167 206.25-2.29167 206.25 2.29167 201.667 2.29167ZM210.833-2.29167 215.417-2.29167 215.417 2.29167 210.833 2.29167ZM220-2.29167 224.583-2.29167 224.583 2.29167 220 2.29167ZM229.167-2.29167 233.75-2.29167 233.75 2.29167 229.167 2.29167ZM238.333-2.29167 242.917-2.29167 242.917 2.29167 238.333 2.29167ZM247.5-2.29167 252.083-2.29167 252.083 2.29167 247.5 2.29167ZM256.667-2.29167 261.25-2.29167 261.25 2.29167 256.667 2.29167ZM265.833-2.29167 270.417-2.29167 270.417 2.29167 265.833 2.29167ZM275.26 2.0316 275.26 6.61493 270.677 6.61493 270.677 2.0316ZM275.26 11.1983 275.26 15.7816 270.677 15.7816 270.677 11.1983ZM275.26 20.3649 275.26 24.9483 270.677 24.9483 270.677 20.3649ZM275.26 29.5316 275.26 34.1149 270.677 34.1149 270.677 29.5316ZM275.26 38.6983 275.26 43.2816 270.677 43.2816 270.677 38.6983ZM275.26 47.8649 275.26 52.4483 270.677 52.4483 270.677 47.8649ZM275.26 57.0316 275.26 61.6149 270.677 61.6149 270.677 57.0316ZM275.26 66.1983 275.26 70.7816 270.677 70.7816 270.677 66.1983ZM275.26 75.3649 275.26 79.9483 270.677 79.9483 270.677 75.3649ZM275.26 84.5316 275.26 89.1149 270.677 89.1149 270.677 84.5316ZM275.26 93.6983 275.26 98.2816 270.677 98.2816 270.677 93.6983ZM275.26 102.865 275.26 107.448 270.677 107.448 270.677 102.865ZM275.26 112.032 275.26 116.615 270.677 116.615 270.677 112.032ZM275.26 121.198 275.26 125.782 270.677 125.782 270.677 121.198ZM275.26 130.365 275.26 134.948 270.677 134.948 270.677 130.365ZM275.26 139.532 275.26 144.115 270.677 144.115 270.677 139.532ZM275.26 148.698 275.26 153.282 270.677 153.282 270.677 148.698ZM275.26 157.865 275.26 162.448 270.677 162.448 270.677 157.865ZM275.26 167.032 275.26 171.615 270.677 171.615 270.677 167.032ZM275.26 176.198 275.26 180.782 270.677 180.782 270.677 176.198ZM275.26 185.365 275.26 189.948 270.677 189.948 270.677 185.365ZM275.26 194.532 275.26 199.115 270.677 199.115 270.677 194.532ZM275.26 203.698 275.26 208.282 270.677 208.282 270.677 203.698ZM275.26 212.865 275.26 217.448 270.677 217.448 270.677 212.865ZM275.26 222.032 275.26 226.615 270.677 226.615 270.677 222.032ZM275.26 231.198 275.26 235.782 270.677 235.782 270.677 231.198ZM275.26 240.365 275.26 244.948 270.677 244.948 270.677 240.365ZM275.26 249.532 275.26 254.115 270.677 254.115 270.677 249.532ZM275.26 258.698 275.26 263.282 270.677 263.282 270.677 258.698ZM275.26 267.865 275.26 272.448 270.677 272.448 270.677 267.865ZM275.26 277.032 275.26 281.615 270.677 281.615 270.677 277.032ZM275.26 286.198 275.26 290.782 270.677 290.782 270.677 286.198ZM275.26 295.365 275.26 299.948 270.677 299.948 270.677 295.365ZM275.26 304.532 275.26 309.115 270.677 309.115 270.677 304.532ZM275.26 313.698 275.26 318.282 270.677 318.282 270.677 313.698ZM275.26 322.865 275.26 327.448 270.677 327.448 270.677 322.865ZM275.26 332.032 275.26 336.615 270.677 336.615 270.677 332.032ZM275.26 341.198 275.26 345.782 270.677 345.782 270.677 341.198ZM275.26 350.365 275.26 354.948 270.677 354.948 270.677 350.365ZM275.26 359.532 275.26 364.115 270.677 364.115 270.677 359.532ZM275.26 368.698 275.26 373.282 270.677 373.282 270.677 368.698ZM275.26 377.865 275.26 382.448 270.677 382.448 270.677 377.865ZM275.26 387.032 275.26 391.615 270.677 391.615 270.677 387.032ZM275.26 396.198 275.26 400.782 270.677 400.782 270.677 396.198ZM275.26 405.365 275.26 409.948 270.677 409.948 270.677 405.365ZM275.26 414.532 275.26 419.115 270.677 419.115 270.677 414.532ZM275.26 423.698 275.26 428.282 270.677 428.282 270.677 423.698ZM275.26 432.865 275.26 437.448 270.677 437.448 270.677 432.865ZM275.26 442.032 275.26 446.615 270.677 446.615 270.677 442.032ZM275.26 451.198 275.26 455.782 270.677 455.782 270.677 451.198ZM275.26 460.365 275.26 464.948 270.677 464.948 270.677 460.365ZM275.26 469.532 275.26 474.115 270.677 474.115 270.677 469.532ZM275.26 478.698 275.26 483.282 270.677 483.282 270.677 478.698ZM275.26 487.865 275.26 492.448 270.677 492.448 270.677 487.865ZM275.26 497.032 275.26 501.615 270.677 501.615 270.677 497.032ZM275.26 506.198 275.26 510.782 270.677 510.782 270.677 506.198ZM275.26 515.365 275.26 519.948 270.677 519.948 270.677 515.365ZM275.26 524.532 275.26 529.115 270.677 529.115 270.677 524.532ZM275.26 533.698 275.26 538.282 270.677 538.282 270.677 533.698ZM275.26 542.865 275.26 547.448 270.677 547.448 270.677 542.865ZM275.26 552.032 275.26 556.615 270.677 556.615 270.677 552.032ZM275.26 561.198 275.26 565.782 270.677 565.782 270.677 561.198ZM275.26 570.365 275.26 574.948 270.677 574.948 270.677 570.365ZM275.26 579.532 275.26 584.115 270.677 584.115 270.677 579.532ZM275.26 588.698 275.26 593.282 270.677 593.282 270.677 588.698ZM275.26 597.865 275.26 602.448 270.677 602.448 270.677 597.865ZM275.26 607.032 275.26 611.615 270.677 611.615 270.677 607.032ZM275.26 616.198 275.26 620.782 270.677 620.782 270.677 616.198ZM275.26 625.365 275.26 629.948 270.677 629.948 270.677 625.365ZM275.26 634.532 275.26 639.115 270.677 639.115 270.677 634.532ZM275.26 643.698 275.26 648.282 270.677 648.282 270.677 643.698ZM275.26 652.865 275.26 657.448 270.677 657.448 270.677 652.865ZM275.26 662.032 275.26 666.615 270.677 666.615 270.677 662.032ZM275.26 671.198 275.26 675.782 270.677 675.782 270.677 671.198ZM275.26 680.365 275.26 684.948 270.677 684.948 270.677 680.365ZM275.26 689.532 275.26 694.115 270.677 694.115 270.677 689.532ZM275.26 698.698 275.26 703.282 270.677 703.282 270.677 698.698ZM275.26 707.865 275.26 712.448 270.677 712.448 270.677 707.865ZM275.26 717.032 275.26 721.615 270.677 721.615 270.677 717.032ZM275.26 726.198 275.26 730.782 270.677 730.782 270.677 726.198ZM275.26 735.365 275.26 739.948 270.677 739.948 270.677 735.365ZM275.26 744.532 275.26 749.115 270.677 749.115 270.677 744.532ZM275.26 753.698 275.26 758.282 270.677 758.282 270.677 753.698ZM275.26 762.865 275.26 767.448 270.677 767.448 270.677 762.865ZM275.26 772.032 275.26 776.615 270.677 776.615 270.677 772.032ZM275.26 781.198 275.26 785.782 270.677 785.782 270.677 781.198ZM275.26 790.365 275.26 794.948 270.677 794.948 270.677 790.365ZM275.26 799.532 275.26 804.115 270.677 804.115 270.677 799.532ZM275.26 808.698 275.26 813.282 270.677 813.282 270.677 808.698ZM275.26 817.865 275.26 822.448 270.677 822.448 270.677 817.865ZM275.26 827.032 275.26 831.615 270.677 831.615 270.677 827.032ZM271.756 837.278 267.173 837.278 267.173 832.694 271.756 832.694ZM262.589 837.278 258.006 837.278 258.006 832.694 262.589 832.694ZM253.423 837.278 248.839 837.278 248.839 832.694 253.423 832.694ZM244.256 837.278 239.673 837.278 239.673 832.694 244.256 832.694ZM235.089 837.278 231.719 837.278 231.719 832.694 235.089 832.694ZM236.302 857.903 190.469 834.986 236.302 812.069Z" transform="matrix(1.83697e-16 1 1 -1.83697e-16 2446.5 1472.5)"/><rect x="2540" y="1144" width="36" height="60.9999" fill="#FFFFFF"/><text font-family="Times New Roman,Times New Roman_MSFontService,sans-serif" font-weight="400" font-size="50" transform="matrix(1 0 0 1 2549.4 1192)">Electrical </text><text font-family="Times New Roman,Times New Roman_MSFontService,sans-serif" font-weight="400" font-size="50" transform="matrix(1 0 0 1 2593.52 1252)">System</text><path d="M2660.4 1766.32 3011.6 1766.32 3011.6 1822.32 2660.4 1822.32Z" fill="#FFFFFF" fill-rule="evenodd"/><text fill="#7F7F7F" font-family="Times New Roman,Times New Roman_MSFontService,sans-serif" font-style="italic" font-weight="400" font-size="50" transform="matrix(1 0 0 1 2660.4 1810)">System Boundary</text></g></svg>