<svg width="1745" height="1032" xmlns="http://www.w3.org/2000/svg" xmlns:xlink="http://www.w3.org/1999/xlink" xml:space="preserve" overflow="hidden"><g transform="translate(-962 -783)"><path d="M1532.82 1412.61C1542.87 1435.6 1569.67 1446.1 1592.7 1436.07 1615.72 1426.03 1626.24 1399.26 1616.19 1376.27 1606.14 1353.27 1579.33 1342.77 1556.31 1352.8 1545.8 1357.39 1537.41 1365.77 1532.82 1376.27L1410.86 1376.27 1410.86 1448.95 1343.18 1448.95C1333.14 1425.95 1306.33 1415.45 1283.3 1425.48 1260.28 1435.52 1249.76 1462.29 1259.81 1485.28 1269.86 1508.28 1296.67 1518.78 1319.69 1508.75 1330.2 1504.16 1338.59 1495.79 1343.18 1485.28L1410.85 1485.28 1410.72 1579.44C1420.45 1582.93 1422.76 1578.11 1433.01 1580.84 1435.23 1581.42 1444.89 1580.19 1447.11 1580.8L1447.27 1412.61 1532.82 1412.61Z" fill="#A6A6A6" fill-rule="evenodd" fill-opacity="0.501961"/><path d="M1516.53 1620.04C1511.22 1620.08 1505.97 1621.07 1501 1622.95L1451.13 1577 1411 1581.35 1474.65 1647.54C1464.72 1670.61 1475.39 1697.36 1498.48 1707.29 1521.57 1717.21 1548.35 1706.56 1558.28 1683.49 1568.22 1660.41 1557.55 1633.67 1534.46 1623.74 1528.8 1621.31 1522.7 1620.05 1516.53 1620.04Z" fill="#A6A6A6" fill-rule="evenodd" fill-opacity="0.501961"/><path d="M1620.09 1085.49C1620.1 1091.43 1621.27 1097.3 1623.54 1102.78L1494.95 1231.1 1283.9 1231.1 1283.9 1121.89 1369.33 1121.89C1379.37 1144.92 1406.16 1155.45 1429.17 1145.4 1452.17 1135.34 1462.68 1108.52 1452.64 1085.49 1442.6 1062.46 1415.81 1051.94 1392.81 1061.99 1382.3 1066.58 1373.92 1074.97 1369.33 1085.49L1247.52 1085.49 1247.52 1231.1 1198.11 1231.1C1188.07 1208.07 1161.28 1197.54 1138.28 1207.6 1115.28 1217.65 1104.77 1244.47 1114.81 1267.5 1124.85 1290.53 1151.63 1301.06 1174.64 1291 1185.14 1286.41 1193.53 1278.02 1198.11 1267.5L1509.33 1267.5 1571.3 1207.44 1667.65 1303.9 1756.61 1303.9 1756.61 1413.67 1674.28 1483.86C1650.92 1472.89 1623.1 1482.97 1612.15 1506.36 1601.2 1529.76 1611.27 1557.61 1634.63 1568.57 1657.99 1579.53 1685.81 1569.45 1696.76 1546.06 1701.8 1535.3 1702.55 1523.02 1698.88 1511.72L1792.99 1430.73 1792.99 1303.9 1823.89 1303.9C1833.93 1326.93 1860.72 1337.46 1883.72 1327.41 1906.72 1317.35 1917.23 1290.53 1907.19 1267.5 1897.15 1244.47 1870.37 1233.95 1847.36 1244 1836.86 1248.59 1828.47 1256.98 1823.89 1267.5L1681.99 1267.5 1596.55 1181.96 1650.54 1128.28C1674.19 1136.51 1700.03 1123.99 1708.25 1100.31 1716.47 1076.63 1703.97 1050.76 1680.32 1042.53 1656.67 1034.3 1630.83 1046.82 1622.6 1070.5 1620.93 1075.32 1620.08 1080.39 1620.09 1085.49Z" fill="#A6A6A6" fill-rule="evenodd" fill-opacity="0.501961"/><g><g><g><path d="M39.9492 316.078 79.424 355.546 109.5 327.064 109.5 523.02 261.583 523.081 261.583 371.187 322.416 371.187 322.416 523.106 474.5 523.166 474.5 326.809 504.728 355.4 544.05 316.084 292 76.65ZM462.333 511 334.583 510.945 334.583 359.02 249.417 359.02 249.417 510.908 121.667 510.86 121.667 315.542 292 154.237 462.333 315.305ZM79.6551 338.574 57.384 316.333 292 93.4156 526.616 316.333 504.491 338.428 292 137.483Z" stroke="#0033CC" stroke-width="6.08334" fill="#0033CC" transform="matrix(1 0 0 1 962 783)"/></g></g></g><g><g><g><path d="M1822 1227.33C1687.43 1227.33 1578.33 1336.43 1578.33 1471 1578.33 1605.57 1687.43 1714.67 1822 1714.67 1956.57 1714.67 2065.67 1605.57 2065.67 1471 2065.52 1336.49 1956.51 1227.48 1822 1227.33ZM2039.77 1399.24 1951.92 1399.24C1944.01 1399.24 1937.59 1392.82 1937.59 1384.91 1937.59 1376.99 1944.01 1370.57 1951.92 1370.57L2028.13 1370.57C2032.65 1379.86 2036.54 1389.43 2039.77 1399.24ZM1732.42 1413.67 1861.42 1413.67C1869.33 1413.67 1875.75 1420.08 1875.75 1428 1875.75 1435.92 1869.33 1442.33 1861.42 1442.33L1594.52 1442.33C1599.79 1400.34 1616.64 1360.64 1643.17 1327.67L1784.35 1327.67C1792.27 1327.67 1798.69 1334.08 1798.69 1342 1798.69 1349.92 1792.27 1356.33 1784.35 1356.33L1732.42 1356.33C1716.58 1356.33 1703.75 1369.17 1703.75 1385 1703.75 1400.83 1716.58 1413.67 1732.42 1413.67ZM1604.2 1542.67 1701.09 1542.67C1709.01 1542.67 1715.42 1549.08 1715.42 1557 1715.42 1564.92 1709.01 1571.33 1701.09 1571.33L1615.81 1571.33C1611.29 1562.05 1607.41 1552.48 1604.2 1542.67ZM1822 1700.33C1740.12 1700.27 1664.47 1656.57 1623.52 1585.67L1701.09 1585.67C1716.92 1585.67 1729.76 1572.83 1729.76 1557 1729.76 1541.17 1716.92 1528.33 1701.09 1528.33L1599.92 1528.33C1595.09 1509.6 1592.66 1490.34 1592.67 1471 1592.67 1466.18 1592.87 1461.4 1593.16 1456.67L1861.42 1456.67C1877.25 1456.67 1890.08 1443.83 1890.08 1428 1890.08 1412.17 1877.25 1399.33 1861.42 1399.33L1732.42 1399.33C1724.5 1399.33 1718.08 1392.92 1718.08 1385 1718.08 1377.08 1724.5 1370.67 1732.42 1370.67L1784.38 1370.67C1800.21 1370.67 1813.04 1357.83 1813.04 1342 1813.04 1326.17 1800.21 1313.33 1784.38 1313.33L1655.73 1313.33C1742.62 1221.45 1887.54 1217.39 1979.43 1304.27 1995.55 1319.52 2009.37 1337.03 2020.46 1356.25L1951.92 1356.25C1936.09 1356.25 1923.26 1369.08 1923.26 1384.91 1923.26 1400.75 1936.09 1413.58 1951.92 1413.58L2044.05 1413.58C2048.9 1432.34 2051.34 1451.63 2051.33 1471 2051.33 1475.82 2051.13 1480.58 2050.84 1485.33L1924.11 1485.33C1908.28 1485.33 1895.44 1498.17 1895.44 1514 1895.44 1529.83 1908.28 1542.67 1924.11 1542.67L1940.25 1542.67C1948.17 1542.67 1954.58 1549.08 1954.58 1557 1954.58 1564.92 1948.17 1571.33 1940.25 1571.33L1811.25 1571.33C1795.42 1571.33 1782.58 1584.17 1782.58 1600 1782.58 1615.83 1795.42 1628.67 1811.25 1628.67L1988.31 1628.67C1945.1 1674.43 1884.94 1700.35 1822 1700.33ZM1940.25 1528.33 1924.12 1528.33C1916.21 1528.33 1909.79 1521.92 1909.79 1514 1909.79 1506.08 1916.21 1499.67 1924.12 1499.67L2049.48 1499.67C2044.21 1541.66 2027.37 1581.36 2000.84 1614.33L1811.25 1614.33C1803.33 1614.33 1796.92 1607.92 1796.92 1600 1796.92 1592.08 1803.33 1585.67 1811.25 1585.67L1940.25 1585.67C1956.08 1585.67 1968.92 1572.83 1968.92 1557 1968.92 1541.17 1956.08 1528.33 1940.25 1528.33Z" stroke="#339933" stroke-width="6.88" fill="#339933"/></g></g></g><text font-family="Magneto,Magneto_MSFontService,sans-serif" font-weight="700" font-stretch="semi-expanded" font-size="454" transform="matrix(1 0 0 1 1293.54 1339)">SEE</text><path d="M1103.47 1308.11 1111.97 1327.58 1111.97 1327.58 1141.51 1371.23 1153.14 1383.98 1177.91 1409.42 1193.8 1422.31 1220.44 1441.68 1239.09 1452.77 1268.46 1467.54 1288.87 1476.07 1321.61 1486.48 1342.55 1492.04 1380.64 1497.94 1399.41 1500.3 1458.7 1500.41 1439.76 1443.06 1573.39 1513.89 1500.11 1625.86 1481.17 1568.51C1395.92 1574.73 1315.57 1554.89 1250.54 1515.33 1185.51 1475.76 1135.79 1416.46 1111.79 1343.77L1100.21 1308.66Z" fill="#0033CC" fill-rule="evenodd"/><path d="M1438.26 845.418 1469.71 896.976C1551.33 871.568 1634.08 872.655 1706.4 896.433 1778.71 920.211 1840.59 966.678 1880.46 1032.03L1917.8 1093.25 1917.8 1093.25 1917.8 1093.25 1917.8 1093.25 1918.57 1094.7 1919.41 1095.91 1927.75 1111.85 1934.32 1124.15 1934.77 1125.27 1935.09 1125.9 1939.2 1136.44 1947.03 1156.18C1957.86 1188.7 1963.09 1222.57 1963.05 1256.65L1962.16 1273.91 1919.56 1252.95 1924.89 1215.13 1925.08 1208.27 1922.96 1154.05 1919.58 1134.38 1917.74 1124.17 1909.32 1094.06 1909.32 1094.06 1899.03 1068.06 1883.95 1047.84 1883.95 1047.84 1845.28 1012.03 1831.07 1002.25 1801.17 983.092 1782.76 974.15 1752.43 961.324 1731.74 954.755 1699.79 947.043 1677.97 943.36 1643.73 940.652 1622.07 939.992 1583.64 942.89 1564.82 944.85 1507.06 958.194 1538.51 1009.75 1392.3 971.1Z" fill="#339933" fill-rule="evenodd"/></g></svg>