<svg width="800" height="800" xmlns="http://www.w3.org/2000/svg" xmlns:xlink="http://www.w3.org/1999/xlink" xml:space="preserve" overflow="hidden"><g transform="translate(-2035 -603)"><path d="M2676.67 1119.62 2676.67 819.667 2193.33 819.667 2193.33 1119.75ZM2210 836.333 2660 836.333 2660 1102.94 2210 1103.08Z"/><path d="M2168.33 811.333C2168.33 802.128 2175.79 794.667 2185 794.667L2685 794.667C2694.2 794.667 2701.67 802.128 2701.67 811.333L2701.67 1153.11 2718.33 1153.11 2718.33 811.333C2718.33 792.924 2703.41 778 2685 778L2185 778C2166.59 778 2151.67 792.924 2151.67 811.333L2151.67 1153.11 2168.33 1153.11Z"/><path d="M2476.67 1177.95 2476.67 1194.62 2393.33 1194.62 2393.33 1177.95 2051.67 1177.95 2051.67 1194.62C2051.69 1217.62 2070.33 1236.26 2093.33 1236.28L2776.67 1236.28C2799.67 1236.26 2818.31 1217.62 2818.33 1194.62L2818.33 1177.95ZM2776.67 1219.62 2093.33 1219.62C2079.53 1219.62 2068.33 1208.42 2068.33 1194.62L2376.67 1194.62C2376.36 1203.52 2383.33 1210.98 2392.23 1211.28 2392.6 1211.3 2392.97 1211.3 2393.33 1211.28L2476.67 1211.28C2485.57 1211.59 2493.03 1204.62 2493.33 1195.72 2493.35 1195.35 2493.35 1194.98 2493.33 1194.62L2801.67 1194.62C2801.67 1208.42 2790.47 1219.62 2776.67 1219.62Z"/><g><g><g><path d="M2357.56 1047.55C2355.84 1049.27 2353.63 1049.76 2351.42 1048.78 2349.2 1047.8 2347.97 1045.83 2347.97 1043.62 2347.97 1041.4 2349.45 1039.19 2351.42 1038.45 2353.63 1037.47 2355.84 1037.96 2357.56 1039.68 2359.77 1041.65 2359.77 1045.34 2357.56 1047.55ZM2531.12 885.546 2511.21 905.458 2495.47 901.279 2491.54 885.792 2511.45 865.879C2499.65 861.454 2486.38 864.158 2477.04 872.517 2467.7 881.121 2464.01 893.904 2467.2 906.196L2341.83 1031.57C2337.4 1035.75 2335.68 1042.14 2337.16 1048.04 2338.63 1053.94 2343.3 1058.61 2349.2 1060.09 2355.1 1061.56 2361.25 1059.84 2365.67 1055.42L2491.05 930.042C2503.34 933.237 2516.12 929.55 2524.73 920.208 2533.09 910.867 2535.79 897.346 2531.12 885.546Z"/><path d="M2530.14 1031.57 2466.71 968.146 2441.15 993.713 2502.6 1055.17 2504.82 1057.38 2505.06 1057.14C2512.19 1062.3 2522.02 1061.32 2528.17 1055.17 2534.32 1048.78 2535.05 1038.95 2530.14 1031.57L2530.14 1031.57Z"/><path d="M2372.56 892.675 2372.8 892.429 2366.41 880.629 2345.27 863.667 2336.67 872.271 2353.63 893.412 2365.43 899.804 2365.67 899.558 2412.63 946.512 2419.51 939.629Z"/></g></g></g></g></svg>